<svg xmlns="http://www.w3.org/2000/svg" xmlns:xlink="http://www.w3.org/1999/xlink" viewBox="0 0 4800 2700"><defs><style>.cls-1{fill:none;}.cls-2{isolation:isolate;}.cls-3{clip-path:url(#clip-path);}.cls-4{fill:#c9faf0;}.cls-16,.cls-5{fill:#fff;}.cls-6{fill:#696c72;}.cls-7{fill:#37404f;}.cls-8{fill:#2a323d;}.cls-9{fill:#355059;}.cls-10{fill:#39baf9;}.cls-11{fill:#cbecf5;}.cls-12{fill:#7fcffa;}.cls-13{fill:#333;}.cls-14,.cls-26,.cls-30{mix-blend-mode:multiply;}.cls-15{fill:#ea4546;}.cls-16{opacity:0.34;}.cls-17{fill:#162d70;}.cls-18{opacity:0.56;}.cls-19{fill:#0e766d;}.cls-20{fill:#089486;}.cls-21{fill:#7f8184;}.cls-22{fill:#f97878;}.cls-23{fill:#eb435b;}.cls-24{fill:#e11d4a;}.cls-25,.cls-26{fill:#cfcdcc;}.cls-27{fill:#f4f5f0;}.cls-28{fill:#703e03;}.cls-29,.cls-31{fill:#4c0805;}.cls-30{fill:#999;}.cls-31{opacity:0.69;}.cls-32{fill:#ffbe98;}.cls-33{fill:#e29674;}.cls-34{fill:#1f398e;}.cls-35{fill:#edf4ff;}.cls-36{clip-path:url(#clip-path-3);}.cls-37{fill:#d62821;}.cls-38{fill:#fff0f1;}.cls-39{clip-path:url(#clip-path-4);}.cls-40{clip-path:url(#clip-path-5);}.cls-41{clip-path:url(#clip-path-6);}.cls-42{clip-path:url(#clip-path-7);}.cls-43{clip-path:url(#clip-path-8);}</style><clipPath id="clip-path"><rect class="cls-1" width="4800" height="2700"/></clipPath><clipPath id="clip-path-3"><polygon id="SVGID" class="cls-1" points="3291.68 2085.03 3651.15 1013.36 4440.11 1454.8 4080.63 2526.47 3291.68 2085.03"/></clipPath><clipPath id="clip-path-4"><polygon id="SVGID-2" data-name="SVGID" class="cls-1" points="2976.84 1036.43 2987.25 1005.66 3309.22 1184.14 3298.82 1214.9 2976.84 1036.43"/></clipPath><clipPath id="clip-path-5"><polygon id="SVGID-3" data-name="SVGID" class="cls-1" points="2955.87 1111.81 2966.28 1081.05 3288.25 1259.52 3277.85 1290.29 2955.87 1111.81"/></clipPath><clipPath id="clip-path-6"><polygon id="SVGID-4" data-name="SVGID" class="cls-1" points="2932.63 1188.89 2943.04 1158.13 3265.01 1336.6 3254.61 1367.37 2932.63 1188.89"/></clipPath><clipPath id="clip-path-7"><polygon id="SVGID-5" data-name="SVGID" class="cls-1" points="2798.53 1592.74 2809.93 1562.33 3125.93 1751.19 3114.53 1781.6 2798.53 1592.74"/></clipPath><clipPath id="clip-path-8"><polygon id="SVGID-6" data-name="SVGID" class="cls-1" points="2772.72 1668.25 2783.78 1637.71 3101.86 1823.04 3090.8 1853.58 2772.72 1668.25"/></clipPath></defs><g class="cls-2"><g id="Layer_5" data-name="Layer 5"><g class="cls-3"><rect class="cls-4" width="4800" height="2700"/><path class="cls-5" d="M3169.37,455.88c54.93-9.76,113.43,8.14,166.35-9.54,60.39-20.17,98.62-81.66,157.23-106.52,121.91-51.73,243.23,72.91,372.55,101.45,121.12,26.73,242.64-33.67,352-92.18,28.34-15.16,58.07-31.62,74.47-59.27,13.82-23.29,16.34-51.71,28.61-75.87,21.57-42.49,68.41-64.36,106.74-92.68,52.28-38.63,91.25-92.31,138.89-136.54S4676.66-95.6,4740.9-85.65C4853.45-68.21,4897.37,67.76,4918,179.77q38.79,210.18,77.57,420.35c8.36,45.28,16.18,94.53-5.09,135.37-27.85,53.48-94.2,72.24-153.78,81.52-333.69,52-672-25.16-1008.41-54.91a3595.59,3595.59,0,0,0-668.58,3.36c-105.65,10.41-223,44.65-324.13-2-90.73-41.84,18-121.23,63.64-148.34,47.28-28.07,92.72-54.24,136.54-87.83C3075.93,496.54,3118.4,464.93,3169.37,455.88Z"/><path class="cls-5" d="M73.17,273.21H1605.09s-508.6-36.76-655.66-61.27-337-110.3-459.58-67.41c0,0-110.3-110.3-232.85-61.27S73.17,273.21,73.17,273.21Z"/><path class="cls-5" d="M251.83,381c65.33-2,133.61-18,194.16,6.63,17.05,6.93,33,17,51.05,20.71,37,7.66,73.48-12.49,110.66-19.3,70.51-12.92,139.55,22.3,207.75,44.35,115.1,37.21,239.21,37.6,359.26,22.84,51.07-6.28,102.81-15.23,153.63-7.16,46.7,7.41,89.81,28.76,133.46,46.95,178.93,74.56,374.2,98,563.12,141.38,39.38,9.05,85.55,25.85,93.93,65.38-191,23.94-384.08,25.55-576.61,27.13L-11.2,742.65c-43.55.35-93.68-2.32-120.27-36.8-19.29-25-19.75-59.28-19.37-90.87q1.91-158.69,3.82-317.39c.09-7.52-3.61-26.25,4.51-29.79,6.69-2.92,23.22,8.67,29.16,11.46C-91.07,289.71-68.7,300-46.13,309.78c44.93,19.49,90.77,37.19,138,50.16C144.58,374.4,197.3,381,251.83,381Z"/><rect class="cls-6" y="573.47" width="4800" height="2126.53"/><path class="cls-7" d="M3112.49,708.28s207.28,328.31,12.25,649.53c-312.51,514.72-2095.65,1348.08-2095.65,1348.08H0s1970.34-1140,2296.31-1409.5,221.8-582,221.8-582Z"/><rect class="cls-7" y="628.62" width="4800" height="189.96"/><path class="cls-8" d="M-1457.41,1398.08,168.35,2010.13-110.9,2396.49l-3.82,61.21-566.15,443.73-688.56-91.8-145.36,91.8,604.4,195.1L-978.87,3155c-16.2,13.83-.48,39.68,19.25,31.65l118.09-48,351.93,355.75,145.36-84.16-153-405.48s340.45-130.06,508.76-218,818.63-451.38,818.63-451.38L2096.32,3448.46l183.62-103.28L1633.46,1864.77l740.2-426.52s143.45-53.56,202.74-151.11,78.42-166.4,78.42-166.4,7.65-47.81-42.08-42.08-307.94,21-307.94,21L1147.64,1489.89,2,1507.1l-1273.83-212.3Z"/><path class="cls-9" d="M2244.87,1376.92c0,18.67-13.1,41.38-29.27,50.71s-29.28,1.77-29.29-16.9,13.11-41.38,29.29-50.72S2244.87,1358.25,2244.87,1376.92Z"/><path class="cls-9" d="M2244.87,1376.92c0,18.67-13.1,41.38-29.27,50.71s-29.28,1.77-29.29-16.9,13.11-41.38,29.29-50.72S2244.87,1358.25,2244.87,1376.92Z"/><path d="M2202.45,1449.77a33,33,0,0,1-16.64-4.37c-11.22-6.48-17.65-19.12-17.65-34.67,0-25.26,16.49-53.81,38.36-66.44,13.46-7.75,27.64-8.53,38.85-2s17.65,19.11,17.65,34.67c0,25.24-16.48,53.8-38.34,66.43A44.74,44.74,0,0,1,2202.45,1449.77Zm24.15-75a18.29,18.29,0,0,0-1.93,1c-10.59,6.1-20.21,22.79-20.21,35a16.24,16.24,0,0,0,.13,2.16,14.67,14.67,0,0,0,1.93-1c10.58-6.1,20.21-22.79,20.21-35A16.35,16.35,0,0,0,2226.6,1374.76Z"/><path class="cls-7" d="M2275.64,1441.46a12,12,0,0,1-6-1.62l-61.55-35.54a12.1,12.1,0,0,1,12.09-21l61.56,35.54a12.1,12.1,0,0,1-6.06,22.58Z"/><path class="cls-10" d="M668.05,1339.65l108.07-29.6c63.82-17.53,139.89,121.06,108.13,168.7l-86.9,93.79Z"/><path class="cls-7" d="M44.24,1197.5l108.07-29.6c63.82-17.54,139.89,121.06,108.13,168.69l-86.9,93.79Z"/><path class="cls-11" d="M1337.07,1434.69,741.84,1742.23l-7.26,3.75-206,106.46L271,1743.56l-5.93-2.42-593-250.67-5.81-2.42-592.93-250.56-5.56-2.29-342.5-144.82-7-2.9-76.94-32.55a4.41,4.41,0,0,1-.48-7.86l161.26-93.4a27.08,27.08,0,0,1,18.39-3Z"/><polygon class="cls-5" points="-1312.78 1048.11 -1272.56 1065.12 -1265.38 1068.09 -923.07 1212.83 -917.32 1215.21 -324.53 1465.71 -318.58 1468.17 274.2 1718.74 280.4 1721.28 527.52 1825.74 876.65 1645.35 -1235.25 1003.22 -1312.78 1048.11"/><path class="cls-10" d="M-1184.66,974.36a31.11,31.11,0,0,0-4.81,2.36c935.39,199.39,1905.67,399.34,2220.09,589.07l233.28-120.53Z"/><path d="M-1179,1036.3a29.79,29.79,0,0,0-20.57,3.51l-82.27,47.67,7,2.9,78.27-45.37a24.22,24.22,0,0,1,16-2.9L-835.27,1169l-84.21,49.84a28.12,28.12,0,0,0-12.82,16.34l5.56,2.29a22.25,22.25,0,0,1,10.28-13.3L-828,1171.8-205,1400.7l-115.54,68.23a28.2,28.2,0,0,0-13.31,19.12l5.81,2.42a21.23,21.23,0,0,1,10.64-16.21l119.78-70.9,622.93,229L278.72,1719a28.05,28.05,0,0,0-13.67,22.14s5.93,2.42,5.93,2.06a21.74,21.74,0,0,1,10.89-18.88L432.73,1635,734.58,1746l7.26-3.75Z"/><path class="cls-11" d="M2813.4,814.66c-1.82,102.11-83.36,287.94-213.17,375.53l-201.8,116.51-497,287-1070.2,618L223.07,2562.72C-46.6,2715.28-430.11,2735.24-836.73,2759.8c-31.45,1.94-46-38.35-20.44-56.86,289-210.27,565.1-405.53,781.17-532.07L2116.91,904.8l44-25.41c15.6-8.47,30.85-16.94,45.73-25.17q8.52-4.53,16.69-9.07c56.38-30.61,108.16-57.83,156.55-77.67,84.33-34.24,158.85-45.85,231-13.79a366,366,0,0,1,172.39,17.9A45.29,45.29,0,0,1,2813.4,814.66Z"/><path class="cls-5" d="M153.36,2236.12,2390.16,944.74c13.21-7.17,26.72-14.64,39.91-21.94l5.44-3c5.47-2.9,11.16-6,16.73-9.09,61.73-33.5,109.12-58,154-76.43,51.79-21,93.78-30.85,132-30.85a196,196,0,0,1,50.28,6.61,21.08,21.08,0,0,0-13.29-15.6c-38.05-13.37-75.51-19.87-114.54-19.87a358.74,358.74,0,0,0-46.66,3.12l-6.77.9-6.24-2.77a192.71,192.71,0,0,0-79.9-16.78c-38.26,0-80.25,9.82-132,30.85-44.87,18.4-92.27,42.93-154,76.43-5.57,3.09-11.26,6.19-16.73,9.1l-5.44,3c-13.19,7.31-26.7,14.78-39.91,21.94L-63.76,2191.73c-224.2,131.33-519.69,342-779.21,530.8a6.63,6.63,0,0,0-2.67,8.06,6.8,6.8,0,0,0,6.74,5.09l28.09-1.68c85.76-5.16,170.49-10.27,253.23-16.62C-315.59,2542.18-51.41,2356.07,153.36,2236.12Z"/><path class="cls-10" d="M831.24,2211.64,223.07,2562.72C-46.6,2715.28-430.11,2735.24-836.73,2759.8c0,0,514.41-99.44,925.75-365.48C408.9,2187.44,712.19,2197,831.24,2211.64Z"/><path class="cls-10" d="M2425.41,807.77c-45.49-40.29-84.13-23.3-84.13-23.3s-76.26,38.07-117.91,60.68c41.26,6.17,77.55,23.11,102.84,51.42,61.94,69.08,56.38,221.15-113.24,447.51,114.69-169.5,127.63-283.34,109.61-356-15-61-74.59-111.91-150.38-114.78-63.7,35.22,4.69-3-55.29,31.55,69.84-3.72,119.84,38.19,135.26,100.65,14.88,60.13,9.8,237-350.73,588.21l497-287q46.64-79.31,71.26-152.93C2532.48,965.89,2474.16,850.94,2425.41,807.77Z"/><path class="cls-12" d="M2580.63,1089.06l-201.79,116.51-497,287-1070.2,618L203.48,2461.6c-239.9,135.71-684.48,250-1066,287.12a30.39,30.39,0,0,0,25.82,11.08c406.62-24.56,790.13-44.52,1059.8-197.08l608.17-351.08,1070.2-618,497-287,201.8-116.51C2730,1102.6,2811.58,916.77,2813.4,814.66a44.55,44.55,0,0,0-7-23.87C2757.2,907.1,2668.24,1030,2580.63,1089.06Z"/><path class="cls-13" d="M2583.94,743.74c45.68,21.9,71.24,73.88,29.27,136.17l6.54,9.57c61.51-58,46.38-108.63-8.81-135.85Z"/><path d="M2583.94,743.74c45.68,21.9,71.24,73.88,29.27,136.17l6.54,9.57c61.51-58,46.38-108.63-8.81-135.85Z"/><path d="M981.08,1969.21c-5.24,3-9.53.55-9.53-5.5v-14.26c0-6.06,4.29-13.49,9.53-16.51s9.54-.55,9.54,5.5v14.26C990.62,1958.75,986.33,1966.18,981.08,1969.21Z"/><path d="M1033,1939.42c-5.24,3-9.53.55-9.53-5.51v-14.25c0-6.06,4.29-13.49,9.53-16.52s9.54-.55,9.54,5.5v14.26C1042.52,1929,1038.23,1936.39,1033,1939.42Z"/><path d="M1084.89,1909.62c-5.25,3-9.54.55-9.54-5.5v-14.26c0-6,4.29-13.48,9.54-16.51s9.53-.55,9.53,5.5v14.26C1094.42,1899.17,1090.13,1906.6,1084.89,1909.62Z"/><path d="M1136.79,1879.83c-5.25,3-9.54.55-9.54-5.51v-14.25c0-6.06,4.29-13.49,9.53-16.52s9.54-.55,9.54,5.51v14.26C1146.32,1869.37,1142,1876.8,1136.79,1879.83Z"/><path d="M1188.69,1850c-5.25,3-9.54.54-9.54-5.51v-14.26c0-6,4.29-13.49,9.54-16.51s9.53-.55,9.53,5.5v14.26C1198.22,1839.58,1193.93,1847,1188.69,1850Z"/><path d="M1240.59,1820.24c-5.24,3-9.53.55-9.53-5.5v-14.26c0-6.06,4.28-13.49,9.53-16.52s9.53-.55,9.53,5.51v14.26C1250.12,1809.78,1245.83,1817.21,1240.59,1820.24Z"/><path d="M1292.49,1790.45c-5.24,3-9.54.55-9.54-5.51v-14.26c0-6,4.3-13.48,9.54-16.51s9.53-.55,9.53,5.5v14.26C1302,1780,1297.74,1787.42,1292.49,1790.45Z"/><path d="M1344.39,1760.65c-5.24,3-9.53.55-9.53-5.5v-14.26c0-6.06,4.29-13.49,9.53-16.51s9.54-.56,9.54,5.5v14.26C1353.93,1750.19,1349.63,1757.62,1344.39,1760.65Z"/><path d="M1396.29,1730.86c-5.24,3-9.53.55-9.53-5.51V1711.1c0-6.06,4.29-13.49,9.53-16.52s9.54-.55,9.54,5.51v14.26C1405.83,1720.4,1401.54,1727.83,1396.29,1730.86Z"/><path d="M1448.19,1701.07c-5.24,3-9.53.54-9.53-5.51V1681.3c0-6,4.29-13.49,9.53-16.51s9.54-.55,9.54,5.5v14.26C1457.73,1690.61,1453.44,1698,1448.19,1701.07Z"/><path d="M1500.1,1671.27c-5.25,3-9.54.55-9.54-5.51V1651.5c0-6,4.29-13.48,9.54-16.51s9.53-.55,9.53,5.51v14.26C1509.63,1660.81,1505.34,1668.24,1500.1,1671.27Z"/><path d="M1552,1641.47c-5.25,3-9.54.56-9.54-5.5v-14.26c0-6,4.29-13.48,9.54-16.51s9.53-.55,9.53,5.5V1625C1561.53,1631,1557.24,1638.45,1552,1641.47Z"/><path d="M1603.9,1611.68c-5.25,3-9.54.55-9.54-5.5v-14.26c0-6.06,4.29-13.49,9.54-16.52s9.53-.55,9.53,5.51v14.26C1613.43,1601.22,1609.14,1608.65,1603.9,1611.68Z"/><path d="M1655.8,1581.89c-5.25,3-9.53.55-9.53-5.51v-14.26c0-6,4.29-13.48,9.54-16.51s9.53-.55,9.53,5.5v14.26C1665.33,1571.43,1661,1578.86,1655.8,1581.89Z"/><path d="M1862.12,1460.43c-5.25,3-9.53.55-9.53-5.51v-14.26c0-6.05,4.29-13.49,9.54-16.51s9.54-.55,9.54,5.51v14.25C1871.66,1450,1867.36,1457.4,1862.12,1460.43Z"/><path d="M1912.21,1431.29c-5.24,3-9.53.55-9.53-5.5v-14.26c0-6.06,4.29-13.49,9.53-16.51s9.53-.56,9.53,5.5v14.26C1921.75,1420.84,1917.46,1428.26,1912.21,1431.29Z"/><path d="M1962.3,1402.16c-5.24,3-9.53.55-9.53-5.51V1382.4c0-6.06,4.29-13.49,9.53-16.52s9.54-.55,9.54,5.5v14.26C1971.84,1391.7,1967.55,1399.13,1962.3,1402.16Z"/><path d="M2012.39,1373c-5.24,3-9.53.56-9.53-5.5v-14.26c0-6.06,4.29-13.49,9.53-16.51s9.54-.55,9.54,5.5v14.26C2021.93,1362.56,2017.64,1370,2012.39,1373Z"/><path d="M2062.48,1343.89c-5.24,3-9.53.55-9.53-5.51v-14.25c0-6.06,4.29-13.49,9.53-16.52s9.54-.55,9.54,5.51v14.26C2072,1333.43,2067.73,1340.86,2062.48,1343.89Z"/><path d="M2112.58,1314.76c-5.25,3-9.54.55-9.54-5.51V1295c0-6,4.29-13.48,9.54-16.51s9.53-.55,9.53,5.5v14.26C2122.11,1304.3,2117.82,1311.73,2112.58,1314.76Z"/><path d="M2162.67,1285.62c-5.25,3-9.54.55-9.54-5.5v-14.26c0-6.06,4.29-13.49,9.54-16.51s9.53-.56,9.53,5.5v14.26C2172.2,1275.16,2167.91,1282.59,2162.67,1285.62Z"/><path d="M2212.76,1256.49c-5.24,3-9.53.55-9.53-5.51v-14.26c0-6,4.29-13.48,9.53-16.51s9.53-.55,9.53,5.51V1240C2222.29,1246,2218,1253.46,2212.76,1256.49Z"/><path d="M2262.85,1227.36c-5.24,3-9.53.54-9.53-5.51v-14.26c0-6,4.29-13.49,9.53-16.51s9.54-.55,9.54,5.5v14.26C2272.39,1216.9,2268.09,1224.33,2262.85,1227.36Z"/><path d="M2312.94,1198.22c-5.24,3-9.53.55-9.53-5.5v-14.26c0-6.06,4.29-13.49,9.53-16.51s9.54-.56,9.54,5.5v14.26C2322.48,1187.76,2318.19,1195.19,2312.94,1198.22Z"/><path d="M2363,1169.09c-5.24,3-9.53.55-9.53-5.51v-14.26c0-6,4.29-13.48,9.53-16.51s9.54-.55,9.54,5.5v14.26C2372.57,1158.63,2368.28,1166.06,2363,1169.09Z"/><path d="M2413.13,1140c-5.25,3-9.54.55-9.54-5.5v-14.26c0-6.06,4.29-13.49,9.54-16.51s9.53-.55,9.53,5.5v14.26C2422.66,1129.49,2418.37,1136.93,2413.13,1140Z"/><path d="M193.63,2431.9c-5.25,3-9.54.55-9.54-5.51v-14.25c0-6.06,4.29-13.49,9.54-16.52s9.53-.55,9.53,5.51v14.26C203.16,2421.44,198.87,2428.87,193.63,2431.9Z"/><path d="M246.06,2401.48c-5.25,3-9.54.56-9.54-5.5v-14.26c0-6.06,4.29-13.48,9.54-16.51s9.53-.55,9.53,5.5V2385C255.59,2391,251.3,2398.45,246.06,2401.48Z"/><path d="M298.48,2371.07c-5.24,3-9.53.55-9.53-5.51V2351.3c0-6.05,4.29-13.48,9.53-16.51s9.54-.55,9.54,5.51v14.25C308,2360.61,303.73,2368,298.48,2371.07Z"/><path d="M350.92,2340.65c-5.25,3-9.54.55-9.54-5.5v-14.26c0-6.06,4.29-13.49,9.54-16.52s9.53-.55,9.53,5.51v14.25C360.45,2330.19,356.16,2337.62,350.92,2340.65Z"/><path d="M403.34,2310.23c-5.24,3-9.53.55-9.53-5.5v-14.26c0-6,4.29-13.49,9.53-16.51s9.54-.56,9.54,5.5v14.26C412.88,2299.78,408.59,2307.21,403.34,2310.23Z"/><path d="M455.77,2279.82c-5.24,3-9.53.55-9.53-5.51v-14.26c0-6.05,4.29-13.48,9.53-16.51s9.54-.55,9.54,5.5v14.26C465.31,2269.36,461,2276.79,455.77,2279.82Z"/><path d="M508.2,2249.4c-5.24,3-9.53.55-9.53-5.5v-14.26c0-6.06,4.29-13.49,9.53-16.52s9.53-.55,9.53,5.51v14.26C517.73,2238.94,513.44,2246.37,508.2,2249.4Z"/><path d="M560.63,2219c-5.25,3-9.53.55-9.53-5.5v-14.26c0-6.06,4.28-13.49,9.53-16.52s9.53-.54,9.53,5.51v14.26C570.16,2208.52,565.87,2216,560.63,2219Z"/><path d="M613.06,2188.56c-5.25,3-9.54.56-9.54-5.5V2168.8c0-6.05,4.29-13.48,9.54-16.51s9.53-.55,9.53,5.5v14.26C622.59,2178.11,618.3,2185.54,613.06,2188.56Z"/><path d="M665.49,2158.15c-5.25,3-9.54.55-9.54-5.51v-14.26c0-6.05,4.29-13.48,9.54-16.51s9.53-.55,9.53,5.51v14.26C675,2147.69,670.73,2155.12,665.49,2158.15Z"/><path d="M717.91,2127.73c-5.24,3-9.53.55-9.53-5.5V2108c0-6.06,4.29-13.49,9.53-16.52s9.54-.55,9.54,5.51v14.26C727.45,2117.27,723.16,2124.7,717.91,2127.73Z"/><path d="M770.34,2097.31c-5.24,3-9.53.55-9.53-5.5v-14.26c0-6.05,4.29-13.49,9.53-16.51s9.54-.55,9.54,5.5v14.26C779.88,2086.86,775.59,2094.29,770.34,2097.31Z"/><path d="M857.74,2113.43a20.8,20.8,0,0,1-10.55-2.74c-7.52-4.34-11.65-13.19-11.65-24.92v-51.62c0-23,16.16-51,36-62.41,10.14-5.87,19.85-6.73,27.41-2.37s11.65,13.18,11.65,24.92v51.63c0,22.94-16.16,50.93-36,62.4C868.72,2111.72,863,2113.43,857.74,2113.43Zm30.67-140.74c-4.18,0-8.89,1.43-13.82,4.28-18.2,10.51-33,36.16-33,57.18v51.62c0,9.48,3.07,16.47,8.63,19.69s13.15,2.37,21.36-2.37c18.21-10.51,33-36.16,33-57.17v-51.63c0-9.48-3.06-16.47-8.62-19.68A15,15,0,0,0,888.41,1972.69Z"/><path d="M1753.18,1605.47a20.87,20.87,0,0,1-10.56-2.74c-7.51-4.34-11.64-13.18-11.64-24.91v-51.63c0-23,16.16-50.94,36-62.41,10.14-5.87,19.88-6.72,27.41-2.37s11.65,13.19,11.65,24.92V1538c0,22.94-16.16,50.94-36,62.4C1764.16,1603.76,1758.42,1605.47,1753.18,1605.47Zm30.66-140.74c-4.17,0-8.88,1.44-13.81,4.29-18.2,10.5-33,36.15-33,57.17v51.63c0,9.47,3.07,16.46,8.63,19.68s13.16,2.37,21.36-2.37c18.21-10.51,33-36.15,33-57.17v-51.63c0-9.48-3.06-16.47-8.62-19.68A14.89,14.89,0,0,0,1783.84,1464.73Z"/><path d="M2489.28,1178.45a20.86,20.86,0,0,1-10.55-2.74c-7.51-4.34-11.65-13.19-11.65-24.92v-51.63c0-23,16.17-51,36-62.41,10.17-5.87,19.9-6.71,27.41-2.36s11.64,13.18,11.64,24.91v51.63c0,22.94-16.15,50.94-36,62.41C2500.27,1176.73,2494.53,1178.45,2489.28,1178.45ZM2520,1037.71c-4.18,0-8.88,1.43-13.82,4.28-18.19,10.5-33,36.14-33,57.17v51.63c0,9.48,3.06,16.47,8.63,19.68s13.15,2.38,21.36-2.37c18.2-10.51,33-36.15,33-57.17V1059.3c0-9.48-3.06-16.47-8.62-19.68A14.88,14.88,0,0,0,2520,1037.71Z"/><path d="M874.85,2034.45c-5.24,3-9.53.55-9.53-5.5v-14.26c0-6.06,4.29-13.49,9.53-16.52s9.53-.55,9.53,5.51v14.26C884.38,2024,880.09,2031.42,874.85,2034.45Z"/><path d="M1770.49,1523.18c-5.24,3-9.53.56-9.53-5.5v-14.26c0-6.05,4.29-13.48,9.53-16.51s9.54-.55,9.54,5.5v14.26C1780,1512.73,1775.74,1520.16,1770.49,1523.18Z"/><path d="M2508.1,1091.81c-5.24,3-9.54.55-9.54-5.51v-14.25c0-6.06,4.3-13.49,9.54-16.52s9.53-.55,9.53,5.51v14.26C2517.63,1081.35,2513.34,1088.79,2508.1,1091.81Z"/><path class="cls-7" d="M2309.85,1414.73c0,18.67-13.11,41.37-29.28,50.71s-29.28,1.77-29.28-16.91,13.11-41.37,29.28-50.71S2309.85,1396.05,2309.85,1414.73Z"/><path d="M2267.43,1487.57a32.9,32.9,0,0,1-16.64-4.37c-11.21-6.47-17.65-19.11-17.65-34.67,0-25.23,16.48-53.79,38.35-66.42,13.47-7.77,27.65-8.52,38.86-2s17.65,19.11,17.65,34.67c0,25.24-16.49,53.8-38.36,66.42A44.65,44.65,0,0,1,2267.43,1487.57Zm24.15-75a15.37,15.37,0,0,0-1.94,1c-10.57,6.1-20.2,22.79-20.2,35a14.85,14.85,0,0,0,.13,2.17,18.25,18.25,0,0,0,1.92-1c10.58-6.12,20.22-22.79,20.22-35A16.4,16.4,0,0,0,2291.58,1412.56Z"/><path class="cls-10" d="M1833.63,2012.59,1941.7,1983c63.83-17.53,139.89,121.06,108.13,168.7l-86.9,93.79Z"/><path class="cls-10" d="M2023.17,2343.27l108.07-29.6c63.82-17.53,139.89,121.07,108.13,168.7l-86.9,93.79Z"/><g class="cls-14"><path class="cls-10" d="M2049.87,2151.61l-86.82,93.94L1833.53,2012.7l23.91-6.55,105.61,189.59,86.82-93.94a37.63,37.63,0,0,0,3.7-6.83C2059.27,2117.45,2058.7,2138.23,2049.87,2151.61Z"/></g><g class="cls-14"><path class="cls-15" d="M2239.46,2482.39,2152.35,2576l-129.23-232.85,23.91-6.55,105.32,189.59,87.11-93.66a38.54,38.54,0,0,0,3.7-6.83C2248.85,2448.23,2248.28,2469,2239.46,2482.39Z"/></g><path class="cls-11" d="M2418.15,3040.48l-150.74,92.19a19.66,19.66,0,0,1-22.62-1.46l-54-43.79-5-4-312-253.46-4.72-3.75-290.35-235.79-5-4.12L1235.08,2311.2l-6-4.84-277-225v-24.2l149.66-87.71,5.44-3.14,533-312.38c27.22-15.12,45.86-10,62.19,22.75l721.53,1342.65A16.05,16.05,0,0,1,2418.15,3040.48Z"/><path class="cls-10" d="M2398.85,3023.93l-718.2-1336.49c-2.05-4.1-9.14-17.46-14.75-17.46-1.82,0-6.06.65-13.55,4.81L1480.2,1775.66C1833.63,1981.47,2398.85,3023.93,2398.85,3023.93Z"/><polygon class="cls-5" points="977.03 2070.51 1244.16 2287.47 1250.33 2292.42 1589.29 2567.71 1594.03 2571.64 1884.16 2807.26 1889.11 2811.19 2201.04 3064.57 2257.49 3110.37 2338.42 3060.88 1258.17 1905.77 977.03 2070.51"/><path d="M2254.22,3027.17,1107.08,1966.29l-5.44,3.14,260.59,241.12-119.41,69.8a28.34,28.34,0,0,0-13.79,24.2v1.81l6,4.84v-6.65a21.74,21.74,0,0,1,10.88-18.87l120.87-70.9L1688.27,2512,1586,2571.92a27.87,27.87,0,0,0-12.21,14.39l5,4.12a22,22,0,0,1,10.28-13.19L1693,2516.39l270.76,250.43-84.81,49.48a27.55,27.55,0,0,0-9.8,9.92l4.72,3.75a22.64,22.64,0,0,1,8.23-8.35l86.25-50.57,280.92,259.87a12.76,12.76,0,0,1-4.84,16.57l-58.55,35.94,5,4,56.74-34.72A19.08,19.08,0,0,0,2254.22,3027.17Z"/><path class="cls-15" d="M2815.85,343.72c-.16,1.48-.36,3.36-.58,5.49l-2.22.05a1.15,1.15,0,0,1-.83-2Z"/><path class="cls-5" d="M3058.3,243.71s5.17,20.31-91.34,67.8S2245.43,484.62,2070.79,480c0,0,546.89-99.57,704.68-151.66S3058.3,243.71,3058.3,243.71Z"/><path class="cls-7" d="M3207.27,182.09s-.32-5-11.31-6.56c0,0-5.93-3.85-11.79-4.11s-18.73-2.1-45.8,3.88-151.64,51.06-151.64,51.06l-84.43-13.91-1.82.54-.81-.63a1.84,1.84,0,0,0,0-.9,2,2,0,0,0-2.44-1.32l-.21.09h0l-15.44,4.84,28.4,12.92,2-.78,1.5.66-3.77,4.38,21.19,12.69-98.55,35.34s-3.49,1.35-9.09-1.5-85.82-40.38-85.82-40.38l-16.41,6.4L2769,300.36l-18.37-1.16-16.71,6,25,8.42L2747.38,320l2.39,8.06,106.84-12.15s30-5.65,33.6-6.8,33.71-11.81,33.71-11.81a1.8,1.8,0,0,0,2.21,1.22l7.64-2.15a11.43,11.43,0,0,0-1.93,2.78l-.65,1.34a.7.7,0,0,0,.78,1l1.45-.3a11.44,11.44,0,0,0,4.71-2.19l7.82-6.08c.9-.26,1.82-.54,2.77-.8l-1.64,1.28a11.25,11.25,0,0,0-3.26,4l-.66,1.35a.69.69,0,0,0,.78,1l1.45-.3a11.43,11.43,0,0,0,4.71-2.18l11.4-8.86,2.56-.75-2.73,2.12a11.57,11.57,0,0,0-3.26,4l-.65,1.34a.7.7,0,0,0,.77,1l1.46-.3a11.5,11.5,0,0,0,4.71-2.19l12.65-9.82h0l6.49-2,.09.29,3.53-.89-.15-.46,5.22-1.6a4.57,4.57,0,0,0-.2.83l21.63-5.48a.79.79,0,0,1,.77,1.32l-1,1-2.33,2.28a.74.74,0,0,0,.53,1.27l1.43,0,8.2-.16,11.75.65a1.59,1.59,0,0,1,1.55,1,3.87,3.87,0,0,0,4.07,2.31,73.41,73.41,0,0,0,23.8-7.33,10.55,10.55,0,0,0,5.22-12.39l-4.36-14.73.09,0s72.9-22.83,105.28-36.83l2.51,4.76.73-.39,1.31,4.42a1.37,1.37,0,0,0-.79,1.65l.35,1.2a4.55,4.55,0,1,0,2.79-.83l-.91-3.08,2.38-.7a1.37,1.37,0,0,0-.79-2.63l-2.37.69-.45-1.52,6.78-3.55a4,4,0,0,0,1.67-5.36l-.53-1,.43-.3S3208.12,190.13,3207.27,182.09Zm-20.55-8.48a3,3,0,0,1,2.67.2l3.75,2.16-3.06.75a2.94,2.94,0,0,1-2.76-.78l-1.86-1.84Zm-2.48,1,2,2a1.11,1.11,0,0,1,.32.82l0,.6a1.07,1.07,0,0,1-.65.91l-3.48,1.53-.53-4.87ZM2862,288.38a1.37,1.37,0,0,1-1.74-.86l-.52-1.55a1.4,1.4,0,0,1,.87-1.74h0a1.38,1.38,0,0,1,1.69.88l.52,1.55A1.38,1.38,0,0,1,2862,288.38Zm4.38-1.46a1.37,1.37,0,0,1-1.74-.86l-.52-1.56a1.37,1.37,0,0,1,.87-1.72l.05,0a1.38,1.38,0,0,1,1.68.88l.52,1.55A1.36,1.36,0,0,1,2866.39,286.92Zm4.38-1.46a1.36,1.36,0,0,1-1.73-.86l-.53-1.55a1.4,1.4,0,0,1,.87-1.74h0a1.38,1.38,0,0,1,1.69.88l.52,1.55A1.36,1.36,0,0,1,2870.77,285.46Zm4.38-1.46a1.36,1.36,0,0,1-1.73-.85l-.52-1.57a1.36,1.36,0,0,1,.86-1.72h0a1.36,1.36,0,0,1,1.69.87l.52,1.55A1.36,1.36,0,0,1,2875.15,284Zm4.38-1.46a1.36,1.36,0,0,1-1.73-.86l-.52-1.56a1.37,1.37,0,0,1,.87-1.73h0a1.36,1.36,0,0,1,1.68.87l.52,1.57A1.36,1.36,0,0,1,2879.53,282.54Zm4.37-1.45a1.37,1.37,0,0,1-1.72-.87l-.52-1.56a1.37,1.37,0,0,1,.87-1.73h0a1.36,1.36,0,0,1,1.68.88l.52,1.55A1.38,1.38,0,0,1,2883.9,281.09Zm4.38-1.47a1.36,1.36,0,0,1-1.72-.87l-.52-1.55a1.39,1.39,0,0,1,.87-1.73h.06a1.35,1.35,0,0,1,1.66.87l.52,1.56A1.35,1.35,0,0,1,2888.28,279.62Zm4.4-1.46a1.37,1.37,0,0,1-1.74-.86l-.52-1.56a1.38,1.38,0,0,1,.87-1.73h0a1.37,1.37,0,0,1,1.69.88l.51,1.55A1.36,1.36,0,0,1,2892.68,278.16Zm4.14-1.38a1.39,1.39,0,0,1-1.74-.86l-.51-1.56a1.37,1.37,0,0,1,.86-1.73l0,0a1.4,1.4,0,0,1,1.7.88l.51,1.56A1.37,1.37,0,0,1,2896.82,276.78Zm4.38-1.46a1.38,1.38,0,0,1-1.74-.86l-.52-1.57a1.38,1.38,0,0,1,.87-1.72h0a1.37,1.37,0,0,1,1.69.88l.52,1.55A1.38,1.38,0,0,1,2901.2,275.32Zm4.38-1.47a1.34,1.34,0,0,1-1.72-.86l-.54-1.55a1.36,1.36,0,0,1,.88-1.72l.05,0a1.36,1.36,0,0,1,1.67.88l.52,1.55A1.35,1.35,0,0,1,2905.58,273.85Zm4.38-1.45a1.35,1.35,0,0,1-1.72-.86l-.52-1.56a1.36,1.36,0,0,1,.85-1.73h0a1.36,1.36,0,0,1,1.69.88l.52,1.55A1.37,1.37,0,0,1,2910,272.4Zm4.38-1.47a1.34,1.34,0,0,1-1.72-.86l-.52-1.56a1.35,1.35,0,0,1,.86-1.72h.05a1.37,1.37,0,0,1,1.68.88l.51,1.55A1.35,1.35,0,0,1,2914.34,270.93Zm4.38-1.45a1.38,1.38,0,0,1-1.73-.86l-.51-1.56a1.36,1.36,0,0,1,.86-1.73l0,0a1.36,1.36,0,0,1,1.67.88l.52,1.56A1.36,1.36,0,0,1,2918.72,269.48Zm4.38-1.46a1.37,1.37,0,0,1-1.73-.86l-.51-1.57a1.36,1.36,0,0,1,.86-1.72h0a1.37,1.37,0,0,1,1.69.88l.51,1.55A1.36,1.36,0,0,1,2923.1,268Zm4.39-1.46a1.38,1.38,0,0,1-1.74-.87l-.51-1.55a1.37,1.37,0,0,1,.86-1.73l0,0a1.36,1.36,0,0,1,1.68.88l.53,1.56A1.36,1.36,0,0,1,2927.49,266.56Zm141-48.11a1.38,1.38,0,0,1-1.73-.86l-.52-1.56a1.38,1.38,0,0,1,.86-1.73l.05,0a1.39,1.39,0,0,1,1.69.88l.52,1.56A1.38,1.38,0,0,1,3068.45,218.45Zm4.38-1.47a1.36,1.36,0,0,1-1.73-.85l-.52-1.57a1.37,1.37,0,0,1,.87-1.72h0a1.37,1.37,0,0,1,1.69.88l.52,1.55A1.37,1.37,0,0,1,3072.83,217Zm4.38-1.46a1.35,1.35,0,0,1-1.72-.86l-.53-1.55a1.38,1.38,0,0,1,.86-1.73l0,0a1.39,1.39,0,0,1,1.69.88l.52,1.56A1.36,1.36,0,0,1,3077.21,215.52Zm4.38-1.45a1.36,1.36,0,0,1-1.72-.86l-.52-1.57a1.35,1.35,0,0,1,.86-1.72h0a1.36,1.36,0,0,1,1.69.88l.52,1.55A1.38,1.38,0,0,1,3081.59,214.07Zm4.38-1.47a1.36,1.36,0,0,1-1.72-.86l-.52-1.56a1.35,1.35,0,0,1,.87-1.72l.05,0a1.36,1.36,0,0,1,1.67.88l.52,1.56A1.35,1.35,0,0,1,3086,212.6Zm4.38-1.45a1.37,1.37,0,0,1-1.72-.87l-.52-1.55A1.36,1.36,0,0,1,3089,207l0,0a1.37,1.37,0,0,1,1.68.88l.52,1.56A1.37,1.37,0,0,1,3090.35,211.15Zm4.38-1.46a1.36,1.36,0,0,1-1.72-.88l-.52-1.55a1.36,1.36,0,0,1,.87-1.72l0,0a1.36,1.36,0,0,1,1.67.89l.52,1.55A1.36,1.36,0,0,1,3094.73,209.69Zm4.39-1.46a1.38,1.38,0,0,1-1.73-.87l-.52-1.55a1.38,1.38,0,0,1,.86-1.73l.05,0a1.36,1.36,0,0,1,1.68.88l.52,1.56A1.38,1.38,0,0,1,3099.12,208.23Zm4.15-1.39a1.37,1.37,0,0,1-1.74-.86l-.52-1.56a1.38,1.38,0,0,1,.87-1.72h0a1.36,1.36,0,0,1,1.68.86l.52,1.57A1.36,1.36,0,0,1,3103.27,206.84Zm4.38-1.46a1.37,1.37,0,0,1-1.74-.86l-.52-1.55a1.4,1.4,0,0,1,.87-1.74h0a1.38,1.38,0,0,1,1.69.88l.52,1.55A1.38,1.38,0,0,1,3107.65,205.38Zm4.38-1.46a1.35,1.35,0,0,1-1.73-.87l-.53-1.55a1.37,1.37,0,0,1,.87-1.72l.05,0a1.38,1.38,0,0,1,1.68.88l.52,1.55A1.36,1.36,0,0,1,3112,203.92Zm4.38-1.46a1.36,1.36,0,0,1-1.73-.86l-.52-1.56a1.37,1.37,0,0,1,.86-1.73h0a1.36,1.36,0,0,1,1.69.88l.52,1.55A1.36,1.36,0,0,1,3116.41,202.46Zm4.37-1.46a1.35,1.35,0,0,1-1.72-.86l-.52-1.56a1.36,1.36,0,0,1,.87-1.73h0a1.38,1.38,0,0,1,1.69.88l.51,1.55A1.36,1.36,0,0,1,3120.78,201Zm4.38-1.46a1.36,1.36,0,0,1-1.72-.86l-.52-1.56a1.38,1.38,0,0,1,.87-1.73l0,0a1.37,1.37,0,0,1,1.68.88l.52,1.57A1.35,1.35,0,0,1,3125.16,199.54Zm4.38-1.45a1.37,1.37,0,0,1-1.72-.87l-.52-1.56a1.38,1.38,0,0,1,.87-1.73h0a1.38,1.38,0,0,1,1.69.88l.51,1.55A1.37,1.37,0,0,1,3129.54,198.09Zm4.4-1.47a1.38,1.38,0,0,1-1.74-.87l-.52-1.55a1.37,1.37,0,0,1,.87-1.72l0,0a1.36,1.36,0,0,1,1.67.87l.52,1.56A1.35,1.35,0,0,1,3133.94,196.62Zm40.63-12.5,3.15-6.92,2.92-1.17.2,5.09Z"/><polygon class="cls-16" points="3883.43 0 2504.49 2700 2067.47 2700 3446.42 0 3883.43 0"/><polygon class="cls-16" points="4070.76 0 2691.83 2700 2593.49 2700 3972.43 0 4070.76 0"/><polygon class="cls-16" points="1224.79 0 0 2398.17 0 1542.45 787.76 0 1224.79 0"/><polygon class="cls-16" points="1412.12 0 33.18 2700 0 2700 0 2572.43 1313.79 0 1412.12 0"/><polygon class="cls-16" points="4800 0 4800 408.6 3629.73 2700 3192.72 2700 4571.66 0 4800 0"/><polygon class="cls-16" points="4800 582.86 4800 775.39 3817.06 2700 3718.74 2700 4800 582.86"/><rect class="cls-5" x="3907.04" y="-71.98" width="167.49" height="2859.57"/><rect class="cls-8" x="3873.34" y="-71.98" width="32.68" height="2859.57"/><path class="cls-6" d="M73.81,2660.12a1109.71,1109.71,0,0,1,120.36,141.1Z"/></g></g><g id="Layer_4" data-name="Layer 4"><g class="cls-3"><ellipse class="cls-17" cx="2401.71" cy="2834.43" rx="1325.16" ry="2407.03" transform="translate(-447.78 5218.26) rotate(-89.64)"/><path class="cls-18" d="M2998.94,2154.75l-330.08-190.58-94.53-54.57c-24.35-14.06-61.19-15.59-82.28-3.41L1294.59,2597.54c-21.1,12.18-18.45,33.45,5.9,47.51l90.6,52.31,334,192.84c24.35,14.06,61.19,15.59,82.28,3.41l1197.46-691.35C3025.94,2190.08,3023.3,2168.81,2998.94,2154.75Z"/><path class="cls-19" d="M2965.54,2175,1823.13,2834.52c-20.12,11.62-55.27,10.16-78.5-3.25l-405.1-233.88c-23.23-13.42-25.75-33.71-5.63-45.33l1142.41-659.57c20.12-11.62,55.27-10.16,78.5,3.26l405.09,233.88C2983.14,2143,2985.66,2163.33,2965.54,2175Z"/><rect class="cls-19" x="2942.78" y="2127.78" width="36.35" height="30.95"/><rect class="cls-19" x="1320.31" y="2542.75" width="36.34" height="30.95"/><path class="cls-5" d="M2959.9,2102.7,2645,1920.89,1426,2620.36l318.66,184c23.23,13.42,58.38,14.87,78.5,3.26L2965.54,2148C2985.66,2136.41,2983.14,2116.12,2959.9,2102.7Z"/><path class="cls-20" d="M2554.81,1868.82c-23.23-13.41-58.38-14.87-78.5-3.25L1333.9,2525.14c-20.12,11.62-17.6,31.91,5.63,45.32l86.44,49.9,1219-699.47Z"/><ellipse class="cls-5" cx="2218.08" cy="2045.45" rx="9.04" ry="5.42"/><ellipse class="cls-5" cx="2245.42" cy="2060.87" rx="9.04" ry="5.42"/><path class="cls-5" d="M2273.43,2071.5c-5,0-9,2.43-9,5.43s4,5.42,9,5.42,9-2.43,9-5.42S2278.42,2071.5,2273.43,2071.5Z"/><path class="cls-5" d="M2302.66,2088.94c-5,0-9,2.42-9,5.42s4,5.42,9,5.42,9-2.42,9-5.42S2307.65,2088.94,2302.66,2088.94Z"/><path class="cls-5" d="M2331.28,2105.25c-5,0-9.05,2.43-9.05,5.43s4.05,5.42,9.05,5.42,9-2.43,9-5.42S2336.27,2105.25,2331.28,2105.25Z"/><path class="cls-5" d="M2359.51,2121.57c-5,0-9,2.43-9,5.42s4.05,5.43,9,5.43,9-2.43,9-5.43S2364.51,2121.57,2359.51,2121.57Z"/><ellipse class="cls-5" cx="2387.49" cy="2143.18" rx="9.04" ry="5.42"/><ellipse class="cls-5" cx="2415.11" cy="2159.24" rx="9.04" ry="5.42"/><path class="cls-5" d="M2444.35,2170.73c-5,0-9,2.43-9,5.43s4,5.42,9,5.42,9-2.42,9-5.42S2449.34,2170.73,2444.35,2170.73Z"/><path class="cls-5" d="M2473.35,2187.31c-5,0-9,2.43-9,5.42s4.05,5.43,9,5.43,9-2.43,9-5.43S2478.35,2187.31,2473.35,2187.31Z"/><ellipse class="cls-5" cx="2502.36" cy="2209.18" rx="9.04" ry="5.42"/><path class="cls-5" d="M2530.78,2220.3c-5,0-9,2.43-9,5.43s4.05,5.43,9,5.43,9-2.44,9-5.43S2535.78,2220.3,2530.78,2220.3Z"/><path class="cls-5" d="M2558.41,2236.36c-5,0-9,2.43-9,5.43s4,5.42,9,5.42,9-2.43,9-5.42S2563.4,2236.36,2558.41,2236.36Z"/><path class="cls-5" d="M2587.64,2253.28c-5,0-9,2.43-9,5.43s4,5.42,9,5.42,9-2.43,9-5.42S2592.63,2253.28,2587.64,2253.28Z"/><ellipse class="cls-5" cx="2616.64" cy="2275.28" rx="9.04" ry="5.42"/><ellipse class="cls-5" cx="2645.65" cy="2291.73" rx="9.04" ry="5.42"/><path class="cls-5" d="M1447.31,2491.32a6.56,6.56,0,0,1,2.84.38,12.08,12.08,0,0,1,2.74,1.49q5.86,4.07,9.81,6.76c2.64,1.81,5,3.36,7,4.65s3.8,2.43,5.4,3.38l5.07,3c1.75,1,3.71,2.21,5.86,3.51s4.8,2.91,7.92,4.82a6.6,6.6,0,0,0,1.44.5,2.78,2.78,0,0,0,1.84,0,7.71,7.71,0,0,0,1.32-.76c.33-.26.67-.5,1-.73a4.12,4.12,0,0,1,1.27-.54,9.76,9.76,0,0,1,2-.24,6.53,6.53,0,0,1,2.93,1.1l2.47,1.76a4.37,4.37,0,0,0-1.74-.16,6.63,6.63,0,0,0-1.62.38,9.09,9.09,0,0,0-1.4.68,6.23,6.23,0,0,0-1.09.72c-.54.32-.4.91.45,1.79a24.2,24.2,0,0,0,3.85,3.11c1.72,1.2,3.72,2.45,6,3.77s4.58,2.54,6.88,3.67,4.5,2.09,6.61,2.89a22.32,22.32,0,0,0,5.18,1.41,1.21,1.21,0,0,1,.59,1.33,3.33,3.33,0,0,1-1,1.56,9.84,9.84,0,0,1-1.81,1.45,11.39,11.39,0,0,1-2,1,6.48,6.48,0,0,1-5.07.28,35.56,35.56,0,0,1-6.74-2.7c-2.45-1.24-4.93-2.65-7.49-4.24s-5-3.06-7.21-4.41a54.66,54.66,0,0,0-5.94-3.18c-1.72-.76-2.94-.94-3.68-.51a37.4,37.4,0,0,1-3,2.44,23.94,23.94,0,0,0-2.63,2.25,16.34,16.34,0,0,0-2,2.44,7.52,7.52,0,0,0-1.13,2.9,6.22,6.22,0,0,0,1.09,3.35c.76,1.28,1.6,2.61,2.5,4a30.67,30.67,0,0,1,2.27,4,5.13,5.13,0,0,1,.54,3.37,6.16,6.16,0,0,1-2.21,1,16.14,16.14,0,0,1-3.15.5,10.34,10.34,0,0,1-2.95-.21c-.89-.2-1.35-.62-1.37-1.26a2.56,2.56,0,0,0,.13-1.78,13.12,13.12,0,0,0-.69-2.06q-.43-1.07-.93-2.1a10.59,10.59,0,0,1-.66-1.82,7.33,7.33,0,0,0-1.47-.68,10.5,10.5,0,0,0-1.33-.35,2.17,2.17,0,0,1-.84-2.06,10.85,10.85,0,0,1,.65-2,87.51,87.51,0,0,0-6.38-9.78q-3.91-5.33-8.33-10.7t-8.64-10.42c-2.83-3.36-5.27-6.33-7.28-8.91A40.57,40.57,0,0,1,1439,2495c-.8-1.56-.65-2.33.46-2.32Zm29.91,41.85a1.06,1.06,0,0,0,.87.46c.48.07.76,0,.89-.21,1.1-1.28,2.29-2.54,3.55-3.76s2.68-2.44,4.27-3.68c.18-.17.12-.5-.17-1a3.08,3.08,0,0,0-1.05-1.07c-2.08-1.21-4.41-2.58-7-4.13l-7.57-4.54c-2.46-1.47-4.69-2.83-6.69-4.06s-3.4-2.16-4.27-2.77c-.69-.51-1.18-.72-1.46-.63s-.16.43.34,1Z"/><path class="cls-5" d="M1477.5,2495.53a5.56,5.56,0,0,1-2.43-.81,22,22,0,0,1-3-1.89,18.18,18.18,0,0,1-2.42-2.17c-.67-.72-1-1.26-.92-1.62a5.4,5.4,0,0,1,2.13-1.53,11.54,11.54,0,0,1,3.12-.87,10.84,10.84,0,0,1,3.27.06,5.32,5.32,0,0,1,2.67,1.26,9.36,9.36,0,0,1,1.07,1c.5.51,1,1,1.41,1.53s.89,1,1.25,1.49.55.77.51.92-.21.43-.68.75a10.76,10.76,0,0,1-1.83.9,14.61,14.61,0,0,1-2.24.7A7.81,7.81,0,0,1,1477.5,2495.53Zm34.61,1.84a1,1,0,0,1,.65.31,2.56,2.56,0,0,1,.46.42c.78.91,1.75,2,2.88,3.23s2.28,2.54,3.47,3.92,2.32,2.76,3.4,4.2a28.65,28.65,0,0,1,2.54,4,7.68,7.68,0,0,1,1,3.35,2.47,2.47,0,0,1-1.35,2.31,11.19,11.19,0,0,1-4.79,1.39,23.85,23.85,0,0,1-5.57-.25,31,31,0,0,1-5.57-1.44,33.91,33.91,0,0,1-4.84-2.11s-.55-.34-1.48-.95-2.11-1.36-3.48-2.29-2.83-2-4.34-3.06-3-2.19-4.27-3.23a25.4,25.4,0,0,1-3.1-2.81c-.76-.83-1-1.43-.88-1.78-.23-.52,0-1,.82-1.26a9.23,9.23,0,0,1,3-.58,19,19,0,0,1,3.67.13,7.94,7.94,0,0,1,2.89.82,12,12,0,0,1,1.7,1c.86.58,1.91,1.3,3.11,2.17l3.89,2.79c1.37,1,2.7,1.95,4,2.84s2.41,1.7,3.41,2.39a15.52,15.52,0,0,0,2.17,1.35c.34.19.84.44,1.51.74a11.4,11.4,0,0,0,2.09.7,6.88,6.88,0,0,0,2.08.18,1.74,1.74,0,0,0,1.43-.83c.23-.2.11-.74-.37-1.61a36.64,36.64,0,0,0-2-3.1c-.86-1.2-1.83-2.47-2.88-3.82l-3-3.77c-.9-1.18-1.69-2.2-2.34-3.06a9.2,9.2,0,0,1-1.1-1.61c-.13-.18,0-.34.29-.46A5.09,5.09,0,0,1,1512.11,2497.37Z"/><path class="cls-5" d="M1501.72,2481.05a6.19,6.19,0,0,1,2.2,1.47c1,.91,2.14,1.95,3.3,3.14s2.27,2.37,3.32,3.56a22,22,0,0,1,2.15,2.82c.07.15.15.21.22.17a.29.29,0,0,1,.28,0,16.4,16.4,0,0,0,3.65,0c1.16-.14,2.33-.27,3.49-.36a29.05,29.05,0,0,1,3.62,0,14.58,14.58,0,0,1,4,.83,16,16,0,0,1,4.58,2.64c1.63,1.28,3.32,2.72,5.09,4.34s3.53,3.28,5.27,5,3.36,3.22,4.89,4.56a26.73,26.73,0,0,0,4.13,3.06c1.21.7,2.15.85,2.83.45.49-.28.53-1,.13-2.21a24.5,24.5,0,0,0-2.12-4.36c-1-1.71-2.2-3.57-3.61-5.6s-2.89-4-4.43-5.91-3.06-3.68-4.55-5.3a43.38,43.38,0,0,0-3.9-3.82c-.16-.09-.15-.25.06-.47a2,2,0,0,1,.91-.53,3.75,3.75,0,0,1,1.37-.15,2,2,0,0,1,1.3.63c.94.89,2.22,2.19,3.87,3.92s3.35,3.67,5.16,5.78,3.58,4.32,5.34,6.6a73.79,73.79,0,0,1,4.43,6.41,19.49,19.49,0,0,1,2.29,5.23c.35,1.5,0,2.52-.88,3.06a13.14,13.14,0,0,1-2.69,1.1,16.73,16.73,0,0,1-3.57.7,16.36,16.36,0,0,1-4-.17,12.11,12.11,0,0,1-4.17-1.52,36.93,36.93,0,0,1-5.81-4.2c-1.93-1.68-3.67-3.32-5.27-5s-3-3.11-4.09-4.44a34,34,0,0,0-2.5-2.71,5.48,5.48,0,0,0-2-1.4,5,5,0,0,0-2.93-.17c-.36,0-1.41.13-3.14.35s-3.7.36-5.92.43a61.13,61.13,0,0,1-6.63-.13,12.46,12.46,0,0,1-5.24-1.38,22.38,22.38,0,0,1-3.53-3.09,34.58,34.58,0,0,1-3.91-4.85,19.26,19.26,0,0,1-2.49-5.12c-.5-1.67-.24-3,.75-3.85a4.86,4.86,0,0,1,1.9-.56,12.64,12.64,0,0,1,2.39,0,12.11,12.11,0,0,1,2.4.37A10,10,0,0,1,1501.72,2481.05Zm4,11.2a2.72,2.72,0,0,0,.81.17,5.74,5.74,0,0,0,1.24,0,2.09,2.09,0,0,0,.94-.25c.24-.14.27-.38.07-.72a5.44,5.44,0,0,0-1.16-1.35c-.44-.36-1-.82-1.61-1.36-1.65-1.33-2.86-2-3.64-2s-.91.41-.4,1.16.91,1.28,1.41,1.88A29.79,29.79,0,0,0,1505.71,2492.25Z"/><path class="cls-5" d="M1534.05,2456.6l9.68-5.59,40.23,23.23,17-9.81,9.45,5.45-26.68,15.4Z"/><path class="cls-5" d="M1567.09,2438.07c-3.43-2-3.43-4.72-.21-6.58a11.92,11.92,0,0,1,11.41.11c3.42,2,3.54,4.72.25,6.62A12.14,12.14,0,0,1,1567.09,2438.07Zm12.21,6.14,9.69-5.59,37.78,21.81-9.68,5.59Z"/><path class="cls-5" d="M1597.5,2433.7l7.9-4.56,5.46,2.39.26-.16c-.27-3.35.34-6.8,4.76-9.35,7.11-4.1,15.94-2.5,25.39,2.95l23.47,13.55-9.69,5.59-22-12.72c-5.49-3.16-8.41-3.41-11.19-1.81-2.43,1.41-2.65,3-2.39,5.61l25.53,14.74-9.69,5.59Z"/><path class="cls-5" d="M1652.19,2423.94c-12.26-7.08-12.23-15.82-4.39-20.34,9.28-5.36,21.75-3.5,32,2.44a33.23,33.23,0,0,1,4.54,3.09l-19.57,11.3c6.36,2.67,12.16,2.22,16.5-.29a9.12,9.12,0,0,0,4.54-5.52l10,2.05c-.7,3.48-3.45,6.92-7.33,9.16C1679.18,2431.23,1664.69,2431.15,1652.19,2423.94Zm17-14.55c-4.2-2.42-8.75-3.23-12.63-1-3,1.75-3.31,4.64.83,7.79Z"/><path class="cls-5" d="M1699.91,2413.19l-2.67-6.56c5.55-.21,9.62-1,12.38-2.58,2.91-1.67,3-3.1,1-4.25-2.51-1.45-6.95-.2-11.83.86-5.71,1.26-13.49,2.16-19.76-1.44-7-4-6.86-9.67.72-14,5-2.89,11.06-3.65,16.33-3.88l2.35,6.38c-4.35.22-7.82.81-10.11,2.15-2.51,1.44-2.63,2.74-.72,3.84,2.44,1.41,6.38.19,11.19-.92,5.89-1.38,13.24-2.54,20.17,1.46s7.52,9.74-1.24,14.8C1713.39,2411.48,1706.33,2413.09,1699.91,2413.19Z"/><path class="cls-5" d="M2289.87,2003l10.44-6c6.32-3.64,13.23-5.33,20-1.42,3.14,1.81,5,4.64,3.64,6.69l.22.12a17.27,17.27,0,0,1,13.74,1.62c7.19,4.15,5.14,9-1.46,12.83l-11.32,6.54Zm24.22,2.31c3.37-2,3.2-3.72.66-5.19-2.75-1.59-5.33-1.29-8.56.57l-3.27,1.89,7.94,4.59Zm15.63,8.26c3.75-2.16,4.15-4.14.91-6-3.08-1.78-6.2-1.41-10,.77l-3.89,2.24,9.09,5.24Z"/><path class="cls-5" d="M2338.14,2000.36c-8.92-5.15-8.62-11.25-2.73-14.65s16.42-3.55,25.33,1.6,8.63,11.24,2.78,14.63S2347.06,2005.51,2338.14,2000.36Zm15.58-9c-4.65-2.68-9.07-3.56-11.88-1.94s-1.28,4.18,3.36,6.86,9,3.58,11.89,1.94S2358.37,1994.05,2353.72,1991.36Z"/><path class="cls-5" d="M2369.86,1988.91c-5.62-3.25-4.81-7.27,3.27-13.18-2.52-1.3-5-1.61-7.54-.14a8.2,8.2,0,0,0-3.7,4.94l-7.72-1.59a13.2,13.2,0,0,1,6.41-7.76c5.94-3.44,13.1-3.07,21.32,1.67l15.35,8.86-5.62,3.24-3.22-1.32-.19.11a6.1,6.1,0,0,1-3.33,5.86C2380.63,1992.05,2374.4,1991.53,2369.86,1988.91Zm12.73-7.72-4.71-2.72c-4.1,3.25-4.06,5.11-2,6.29a5,5,0,0,0,5.22-.07C2382.62,1983.8,2382.78,1982.7,2382.59,1981.19Z"/><path class="cls-5" d="M2376.29,1962.86l5.61-3.24,5.16,2.44.19-.1c-1.94-3.07-1.14-5.53,1.26-6.9a10,10,0,0,1,3.29-1.28l5.75,4.61a12.59,12.59,0,0,0-3,1.21c-1.72,1-2.58,3-.17,5.79l15.57,9-6.88,4Z"/><path class="cls-5" d="M2406.63,1960.81c-8.75-5.06-9.31-10.84-4.39-13.68,2.57-1.49,5.18-1.76,8.51-1.67l-4.39-2.21-9.14-5.28,6.88-4,37.89,21.88-5.62,3.24-3.11-1.26-.18.11a5.44,5.44,0,0,1-2.89,5.47C2424.44,1966.76,2415.4,1965.87,2406.63,1960.81Zm20.22-5.74-11-6.33a10.43,10.43,0,0,0-5.57,1.22c-2.19,1.27-1.78,3.78,3.3,6.71,5.29,3.06,9.22,3.53,11.88,2C2427,1957.81,2427.51,1956.75,2426.85,1955.07Z"/><path class="cls-5" d="M2412.63,1932.51c-2.43-1.4-2.43-3.35-.13-4.67a8.42,8.42,0,0,1,8.09.08c2.43,1.4,2.52,3.35.18,4.69A8.61,8.61,0,0,1,2412.63,1932.51Zm8.67,4.36,6.88-4,26.8,15.48-6.88,4Z"/><path class="cls-5" d="M2434.24,1929.4l5.61-3.24,3.86,1.7.2-.11a6.28,6.28,0,0,1,3.4-6.64c5-2.91,11.31-1.79,18,2.08l16.64,9.61-6.88,4-15.62-9c-3.89-2.25-6-2.42-7.94-1.29-1.73,1-1.89,2.15-1.71,4l18.1,10.45-6.87,4Z"/><path class="cls-5" d="M2491,1932.9c-2.21-1.28-2.84-3-2.09-5l-.21-.13a11.26,11.26,0,0,1-6.71-1.38,4.23,4.23,0,0,1-2.39-4.41l-.23-.12a19,19,0,0,1-10.1-2.22c-6.44-3.71-5.08-8.23-.07-11.13a16,16,0,0,1,4.24-1.7l8.48-4.89,5.78,3.34-3.69,2.13a14,14,0,0,1,4.25,1.6c6.17,3.55,5,7.54-.1,10.48a14.25,14.25,0,0,1-3.34,1.31c0,.69.25,1.11,1.15,1.64,1.37.78,2.94.61,5.51-.87l3.75-2.16c5.71-3.3,10.85-4,15.65-1.18,5.57,3.22,4.62,8.45-3.34,13C2502.11,1934.34,2495.74,1935.64,2491,1932.9Zm-9-20.68c-2.82-1.62-5.67-1.71-7.5-.65s-1.72,2.68,1.15,4.33,5.83,1.8,7.67.75S2485,1913.94,2482,1912.22Zm23.64,10.51c-1.68-1-3.36-.48-5.66.84l-2.38,1.38a17.51,17.51,0,0,1-3.61,1.7,2.44,2.44,0,0,0,1.39,2.26c2,1.16,5.14.59,8.24-1.19S2507.51,1923.8,2505.67,1922.73Z"/><path class="cls-5" d="M2389.13,2005.67l5.62-3.25,3.11,1.27.18-.12a6.2,6.2,0,0,1,3.3-5.71c5.62-3.24,14.43-2.15,22.71,2.63,9.19,5.3,9.7,11.12,4.71,14-2,1.16-4.92,1.64-8.34,1.56l4.5,2.33,7.84,4.53-6.88,4Zm27.95-1c-4.8-2.78-8.5-3.45-11.27-1.86a3.12,3.12,0,0,0-1.54,3.7l11,6.33a10.34,10.34,0,0,0,5.43-1.13C2423.06,2010.29,2422.6,2007.81,2417.08,2004.63Z"/><path class="cls-5" d="M2433.74,2002.26c-5.63-3.25-4.82-7.27,3.27-13.19-2.54-1.29-5-1.6-7.56-.14a8.25,8.25,0,0,0-3.69,4.94l-7.72-1.59a13.29,13.29,0,0,1,6.42-7.76c5.93-3.43,13.1-3.07,21.32,1.68l15.35,8.86-5.62,3.24-3.24-1.33-.17.11a6.1,6.1,0,0,1-3.33,5.86C2444.51,2005.4,2438.27,2004.88,2433.74,2002.26Zm12.73-7.72-4.71-2.72c-4.1,3.24-4.07,5.1-2,6.29a5,5,0,0,0,5.21-.08C2446.5,1997.14,2446.64,1996,2446.47,1994.54Z"/><path class="cls-5" d="M2461.81,1991.09l-1.87-4.64c3.93-.16,6.83-.71,8.79-1.84s2.09-2.2.68-3c-1.77-1-4.93-.15-8.4.6-4.06.9-9.59,1.54-14-1-5-2.87-4.86-6.86.52-10,3.55-2.06,7.85-2.61,11.58-2.77l1.67,4.53c-3.08.16-5.54.58-7.18,1.53s-1.85,2-.51,2.72c1.73,1,4.53.14,7.94-.65,4.2-1,9.4-1.81,14.32,1s5.33,6.91-.89,10.51C2471.4,1989.87,2466.38,1991,2461.81,1991.09Z"/><path class="cls-5" d="M2482.57,1979.11l-1.88-4.65c3.94-.16,6.84-.7,8.8-1.84s2.08-2.2.69-3c-1.78-1-4.94-.15-8.41.61-4.06.9-9.58,1.54-14-1-5-2.87-4.86-6.87.52-10,3.55-2.06,7.85-2.6,11.58-2.76l1.66,4.53c-3.07.15-5.53.58-7.17,1.52s-1.87,2-.52,2.73c1.74,1,4.54.14,7.95-.65,4.2-1,9.4-1.81,14.32,1s5.33,6.91-.9,10.5C2492.16,1977.89,2487.13,1979,2482.57,1979.11Z"/><polygon class="cls-20" points="1883.05 2417.15 1684.97 2531.51 1662.12 2518.32 1860.19 2403.96 1883.05 2417.15"/><polygon class="cls-20" points="1926.58 2442.28 1728.5 2556.64 1705.65 2543.45 1903.72 2429.09 1926.58 2442.28"/><polygon class="cls-20" points="1970.11 2467.42 1772.04 2581.78 1749.18 2568.58 1947.25 2454.22 1970.11 2467.42"/><polygon class="cls-20" points="2013.64 2492.55 1815.57 2606.91 1792.71 2593.72 1990.79 2479.36 2013.64 2492.55"/><polygon class="cls-21" points="2023.14 2336.27 1914.37 2399.07 1891.52 2385.87 2000.28 2323.08 2023.14 2336.27"/><polygon class="cls-21" points="2066.67 2361.41 1957.9 2424.2 1935.05 2411 2043.82 2348.21 2066.67 2361.41"/><polygon class="cls-21" points="2110.2 2386.54 2001.44 2449.33 1978.58 2436.14 2087.34 2373.34 2110.2 2386.54"/><polygon class="cls-21" points="2153.73 2411.67 2044.97 2474.47 2022.11 2461.27 2130.88 2398.47 2153.73 2411.67"/><polygon class="cls-20" points="2134.96 2245.32 2045.62 2296.9 2068.47 2310.1 2157.81 2258.52 2134.96 2245.32"/><polygon class="cls-20" points="2178.49 2270.45 2089.15 2322.04 2112 2335.23 2201.34 2283.65 2178.49 2270.45"/><polygon class="cls-20" points="2222.02 2295.59 2132.68 2347.17 2155.53 2360.36 2244.88 2308.78 2222.02 2295.59"/><polygon class="cls-20" points="2265.55 2320.72 2176.21 2372.3 2199.06 2385.5 2288.41 2333.91 2265.55 2320.72"/><polygon class="cls-21" points="2334.72 2156.38 2192.64 2238.41 2169.79 2225.21 2311.87 2143.18 2334.72 2156.38"/><polygon class="cls-20" points="2111.75 2553.64 1913.68 2667.99 1890.82 2654.8 2088.89 2540.44 2111.75 2553.64"/><polygon class="cls-5" points="2251.84 2472.75 2143.08 2535.55 2120.22 2522.35 2228.99 2459.56 2251.84 2472.75"/><polygon class="cls-20" points="2363.66 2381.8 2274.32 2433.39 2297.17 2446.58 2386.52 2395 2363.66 2381.8"/><polygon class="cls-5" points="2563.43 2292.86 2421.34 2374.89 2398.49 2361.7 2540.57 2279.66 2563.43 2292.86"/><polygon class="cls-21" points="2378.25 2181.51 2236.17 2263.54 2213.32 2250.34 2355.4 2168.32 2378.25 2181.51"/><polygon class="cls-21" points="2421.78 2206.64 2279.7 2288.68 2256.85 2275.48 2398.93 2193.45 2421.78 2206.64"/><polygon class="cls-5" points="2465.32 2231.78 2323.24 2313.81 2300.38 2300.61 2442.46 2218.58 2465.32 2231.78"/><polygon class="cls-20" points="2467.13 2048.09 2377.79 2099.68 2400.64 2112.87 2489.98 2061.29 2467.13 2048.09"/><polygon class="cls-20" points="2510.66 2073.22 2421.32 2124.81 2444.17 2138 2533.51 2086.42 2510.66 2073.22"/><polygon class="cls-20" points="2554.19 2098.36 2464.85 2149.94 2487.71 2163.14 2577.05 2111.55 2554.19 2098.36"/><polygon class="cls-20" points="2597.72 2123.49 2508.38 2175.07 2531.24 2188.27 2620.58 2136.69 2597.72 2123.49"/><polygon class="cls-5" points="2666.89 1959.15 2524.81 2041.18 2501.96 2027.99 2644.04 1945.95 2666.89 1959.15"/><polygon class="cls-5" points="2710.42 1984.28 2568.34 2066.31 2545.49 2053.12 2687.57 1971.09 2710.42 1984.28"/><polygon class="cls-5" points="2753.96 2009.42 2611.88 2091.45 2589.02 2078.25 2731.1 1996.22 2753.96 2009.42"/><polygon class="cls-5" points="2797.49 2034.55 2655.41 2116.58 2632.55 2103.38 2774.63 2021.35 2797.49 2034.55"/><polygon class="cls-20" points="2641.73 2148.5 2552.39 2200.08 2575.25 2213.28 2664.59 2161.69 2641.73 2148.5"/><polygon class="cls-20" points="2685.27 2173.63 2595.92 2225.21 2618.78 2238.41 2708.12 2186.83 2685.27 2173.63"/><polygon class="cls-5" points="2841.5 2059.55 2699.42 2141.59 2676.56 2128.39 2818.64 2046.36 2841.5 2059.55"/><polygon class="cls-5" points="2885.03 2084.69 2742.95 2166.72 2720.09 2153.53 2862.18 2071.49 2885.03 2084.69"/><polygon class="cls-20" points="1677.6 2738.01 1686.19 2742.97 1825.12 2662.76 1816.53 2657.8 1677.6 2738.01"/><polygon class="cls-20" points="1616.68 2702.84 1625.27 2707.8 1764.2 2627.59 1755.62 2622.63 1616.68 2702.84"/><polygon class="cls-20" points="1670.42 2733.86 1674.71 2736.34 1813.64 2656.13 1809.35 2653.65 1670.42 2733.86"/><polygon class="cls-20" points="1658.56 2727.02 1660.7 2728.26 1799.63 2648.05 1797.49 2646.8 1658.56 2727.02"/><polygon class="cls-20" points="1640.49 2716.59 1642.64 2717.82 1781.57 2637.61 1779.42 2636.37 1640.49 2716.59"/><polygon class="cls-20" points="1662.08 2729.05 1666.37 2731.53 1805.31 2651.32 1801.01 2648.84 1662.08 2729.05"/><polygon class="cls-20" points="1633.2 2712.37 1637.49 2714.85 1776.42 2634.64 1772.13 2632.16 1633.2 2712.37"/><polygon class="cls-20" points="1645.09 2719.24 1649.38 2721.72 1788.31 2641.51 1784.02 2639.03 1645.09 2719.24"/><polygon class="cls-20" points="1604.56 2695.84 1613.15 2700.8 1752.08 2620.59 1743.49 2615.63 1604.56 2695.84"/><polygon class="cls-20" points="1543.64 2660.67 1552.23 2665.63 1691.16 2585.42 1682.58 2580.46 1543.64 2660.67"/><polygon class="cls-20" points="1597.38 2691.7 1601.67 2694.17 1740.6 2613.96 1736.31 2611.48 1597.38 2691.7"/><polygon class="cls-20" points="1585.52 2684.85 1587.66 2686.09 1726.59 2605.88 1724.45 2604.64 1585.52 2684.85"/><polygon class="cls-20" points="1567.45 2674.41 1569.6 2675.65 1708.53 2595.44 1706.38 2594.2 1567.45 2674.41"/><polygon class="cls-20" points="1589.04 2686.88 1593.34 2689.36 1732.27 2609.15 1727.97 2606.67 1589.04 2686.88"/><polygon class="cls-20" points="1560.16 2670.2 1564.45 2672.68 1703.38 2592.47 1699.09 2589.99 1560.16 2670.2"/><polygon class="cls-20" points="1572.05 2677.07 1576.34 2679.55 1715.27 2599.34 1710.98 2596.86 1572.05 2677.07"/><path class="cls-18" d="M1677.65,2024.4,2233,3279.59H-653.53V3105.9s859.32-109.7,1161-393.09S770,2163.36,770,2163.36l797.88-392.15Z"/><polygon class="cls-18" points="3378.28 2430.15 2949.68 2677.6 2189.01 2238.43 2617.61 1990.98 3378.28 2430.15"/><polygon class="cls-22" points="3356.95 2402.05 2943.72 2640.62 2210.34 2217.21 2623.57 1978.63 3356.95 2402.05"/><polygon class="cls-23" points="3356.95 2368.5 2943.72 2607.07 2210.34 2183.66 2623.57 1945.08 3356.95 2368.5"/><path class="cls-5" d="M2841.91,2140.11c92.21,53.24,102.22,133.77,22.37,179.88s-219.36,40.33-311.57-12.91-102.23-133.78-22.37-179.89S2749.69,2086.87,2841.91,2140.11Z"/><path class="cls-23" d="M2824.08,2150.4c80.85,46.68,89.63,117.29,19.62,157.71s-192.32,35.35-273.17-11.32-89.63-117.29-19.61-157.71S2743.23,2103.72,2824.08,2150.4Z"/><rect class="cls-5" x="2689.36" y="2040.63" width="15.44" height="365.67" transform="translate(-577.04 3447.44) rotate(-60)"/><path class="cls-5" d="M2813.43,2325.54c-38.61,0-112.36-7.46-193.74-54.44-120.31-69.46-91.57-138-90.29-140.88l14.11,6.28-7.06-3.14,7.08,3.08c-1,2.39-23.58,59.24,83.88,121.29,112.05,64.69,211,51.1,211.93,50.95l2.25,15.27A208.28,208.28,0,0,1,2813.43,2325.54Z"/><path class="cls-5" d="M2864.5,2309.63l-14.12-6.23c.18-.45,20.57-53.51-86.69-115.43-111.8-64.56-220.92-49.49-222-49.34l-2.26-15.28c4.65-.69,115.31-16.12,232,51.24C2891.7,2244,2865.67,2307,2864.5,2309.63Z"/><rect class="cls-5" x="2541.53" y="2214.65" width="314.62" height="15.44" transform="translate(-749.52 1646.64) rotate(-29.99)"/><polygon class="cls-24" points="2210.34 2183.66 2210.34 2217.21 2943.72 2640.62 2943.72 2607.07 2210.34 2183.66"/><polygon class="cls-24" points="3356.95 2368.5 3356.95 2402.05 2943.72 2640.62 2943.72 2607.07 3356.95 2368.5"/><polygon class="cls-5" points="2951.53 2612.1 2951.53 2628.88 3356.95 2395.07 3356.95 2378.29 2951.53 2612.1"/><path class="cls-5" d="M2770.09,2434.79l15.67-9.05c10-5.77,22.31-8,35.08-.67,12.36,7.14,9.67,15,0,20.61l-5.67,3.28,17.86,10.3-10.28,5.95Zm40.68,5.8c5.67-3.28,5.49-6.53,0-9.7s-10.6-2.56-16.2.67l-4.75,2.75,15.92,9.19Z"/><path class="cls-5" d="M2816.79,2407.83l12.38-7.16,67,22.18-10.92,6.3-15.33-5.61-13.91,8,9.72,8.84-10.49,6.06Zm32,17.17,9.73-5.61-5.91-2.2c-6.51-2.3-14-5.17-20.69-7.66l-.28.17c4.47,3.86,9.42,8.09,13.41,11.85Z"/><path class="cls-5" d="M2891.58,2417.83l-2.29-8.11c6.52,0,13-1.15,16.75-3.32,4.27-2.47,4.44-4.8,1.28-6.63-3.31-1.9-7-1-12.87.17l-8.87,1.75c-6.86,1.44-15.86,1.42-23.54-3-8.73-5-9-12.92.55-18.42,5.25-3,13.19-4.82,21.64-4.47l2.27,7.38c-5.67.19-10,.92-13.65,3s-4,4.38-1,6.1c3.23,1.87,7.37.79,13.15-.41l8.62-1.8c8.12-1.69,15.89-1.24,23.33,3,8.73,5,10,13.06-.9,19.37C2910.08,2415.91,2901.2,2418.05,2891.58,2417.83Z"/><path class="cls-5" d="M2929.26,2396.07,2927,2388c6.53,0,13-1.15,16.76-3.33,4.27-2.47,4.43-4.79,1.27-6.62-3.31-1.91-6.94-1-12.87.17l-8.86,1.74c-6.87,1.45-15.87,1.42-23.55-3-8.72-5-8.95-12.93.55-18.43,5.25-3,13.2-4.82,21.65-4.46l2.27,7.37c-5.67.19-10,.93-13.65,3s-4,4.38-1,6.11c3.23,1.86,7.36.78,13.14-.41l8.63-1.8c8.12-1.7,15.89-1.25,23.33,3,8.72,5,10,13.06-.9,19.35C2947.76,2394.15,2938.88,2396.3,2929.26,2396.07Z"/><path class="cls-5" d="M2925.08,2345.3l15.68-9.05c10-5.77,22.31-8,35.08-.66,12.36,7.13,9.67,15,0,20.61l-5.67,3.27,17.86,10.32-10.29,5.93Zm40.68,5.8c5.68-3.27,5.5-6.53,0-9.7s-10.59-2.56-16.19.67l-4.75,2.75,15.92,9.19Z"/><path class="cls-5" d="M2990.75,2337.53c-17.22-9.94-18.68-20.48-6.36-27.59s30.64-6.22,47.78,3.67,19.14,20.76,6.82,27.86S3008,2347.47,2990.75,2337.53Zm30.86-17.82c-10.51-6.07-20.74-7.44-27-3.85s-3.85,9.51,6.66,15.57,21.21,7.72,27.44,4.11S3032.19,2325.82,3021.61,2319.71Z"/><path class="cls-5" d="M3014.73,2293.54l16.44-9.49c9.65-5.58,21.42-7.9,33.94-.66,7.77,4.47,9.48,9.18,7.09,13.45l31.44,6.19-11.55,6.68-27.72-5.92-5.67,3.28,19,10.95L3067.4,2324Zm39.83,5c5.38-3.11,5.65-6.35.48-9.33s-9.89-2.32-15.27.8l-5.31,3.07,14.78,8.54Z"/><path class="cls-5" d="M3075.28,2270.14l-12.53,7.23-10-5.78,35.41-20.45,10,5.79-12.53,7.23,42.68,24.64-10.35,6Z"/><path class="cls-5" d="M1749,1128.53l-28.32,355.8-36.45,458.37-6.53,81.69c-.17,45.17-29.92,90.09-89.08,124.11-44.75,25.76-100,41.64-157.81,47.66-93.78,9.75-194.24-6.43-267.3-48.42-30.46-17.57-53.26-37.95-68.34-59.71-14.13-20.39-21.5-42-22.06-63.64l-7-84.88-38-461.71-27.64-336.45,430.35-7.37,9.14-.16Z"/><g class="cls-14"><path class="cls-25" d="M1720.64,1484.33l-36.45,458.37c-16,27.32-42.07,52.79-78.27,74.49-127,75.92-331.91,75.5-459.79-.92-37.29-22.29-64-48.69-80-76.76l-38-461.71c17.27,34.1,48.27,66.28,93.1,93,141.7,84.8,369.12,85.22,510.07,1C1673.38,1546.59,1703.21,1516.43,1720.64,1484.33Z"/></g><path class="cls-26" d="M1749,1128.53l-14.16,177.65a359.61,359.61,0,0,1-48.94,33.6c-170.44,98.38-447.55,97.88-619.08-1.09a364.13,364.13,0,0,1-53.21-37.12l-13.16-160.22Z"/><path class="cls-27" d="M1639.53,1288.84c-145.46,87-380.32,86.55-526.69-1-147.54-88.25-151-232.38-5.53-321.95,146.63-90.29,386.88-89.83,534.43,1C1788.09,1057,1786.15,1201.16,1639.53,1288.84Z"/><path class="cls-28" d="M1727.67,1448.9,1698,1821.69l-6.92,86.83c-14.65,32.35-43.13,62.8-85.19,88-127,76-332,75.56-459.79-.9-43.37-25.93-72.51-57.37-87.08-90.71l-6.91-84-31.36-380.52c14.81,40.34,48.31,78.61,100.33,109.72,141.74,84.78,369.16,85.19,510.08,1C1679.76,1522.07,1712,1486.52,1727.67,1448.9Z"/><path class="cls-18" d="M1749,1128.53l-28.32,355.8-36.45,458.37-6.53,81.69c-.17,45.17-29.92,90.09-89.08,124.11-44.75,25.76-100,41.64-157.81,47.66-93.78,9.75-194.24-6.43-267.3-48.42-30.46-17.57-53.26-37.95-68.34-59.71l344.78-124.84V1133.82Z"/><path class="cls-29" d="M1811.42,1111.9c-8.48-57.62-50.93-114-127.5-158.2-171.48-99-448.63-99.51-619-1.12-77.21,44.58-119.14,101.81-126.09,160.28l-1-.73.06,13.41q-.17,5.42.06,10.85l.13,2.93c3.83,61.9,46.71,123.27,128.8,170.66,171.48,99,448.63,99.51,619,1.12,81.78-47.21,124-108.63,127-170.68l.12-.11,0-3.77c0-2.07.08-4.14,0-6.22l.11-20.2Z"/><path class="cls-28" d="M1685.86,1286.68c-170.41,98.38-447.56,97.88-619-1.12s-172.35-259-1.94-357.41,447.56-97.88,619,1.12S1856.27,1188.29,1685.86,1286.68Z"/><path class="cls-29" d="M1787.79,1097.05c-8-54.5-48.17-107.82-120.59-149.63-162.19-93.63-424.32-94.11-585.49-1.06-73,42.17-112.68,96.3-119.25,151.6l-1-.69.06,12.68q-.16,5.13.05,10.26l.13,2.77c3.61,58.55,44.17,116.6,121.81,161.42,162.19,93.64,424.32,94.11,585.49,1.06,77.35-44.66,117.28-102.75,120.08-161.43l.12-.11v-3.56c0-2,.07-3.92,0-5.89l.1-19.1Z"/><ellipse class="cls-27" cx="1375.37" cy="1092.81" rx="239.02" ry="414.01" transform="translate(275.12 2462.23) rotate(-89.69)"/><path class="cls-29" d="M1811.42,1064.8c-8.48-57.62-50.93-114-127.5-158.2-171.48-99-448.63-99.5-619-1.12-77.21,44.58-119.14,101.81-126.09,160.29l-1-.74.06,13.41c-.11,3.62-.09,7.23.06,10.85l.13,2.93c3.83,61.9,46.71,123.28,128.8,170.67,171.48,99,448.63,99.5,619,1.12,81.78-47.22,124-108.63,127-170.68l.12-.12,0-3.77c0-2.07.08-4.14,0-6.21l.11-20.21Z"/><path class="cls-28" d="M1800.83,1121.58c-18.26,43.24-56.56,84.21-115,118-170.44,98.38-447.55,97.88-619.08-1.09s-172.29-259-1.93-357.39a431.91,431.91,0,0,1,43.49-21.87c171.2-75.75,418-68,575.6,23C1796.64,947.2,1835.61,1038.62,1800.83,1121.58Z"/><path class="cls-30" d="M1800.83,1121.58l-119,68.71-573.5-331.08c171.2-75.75,418-68,575.6,23C1796.64,947.2,1835.61,1038.62,1800.83,1121.58Z"/><path class="cls-29" d="M1783.79,1014.52h.12l-.36-1.9q-.84-5.6-2.12-11.18l-9.14-48.14-11-.18c-19.9-32.26-52.23-62.58-97-88.44-160.52-92.68-420-93.15-579.5-1-39.35,22.72-68.9,49-88.75,77l-16.75-.27-10.88,62.84c-13.62,69.34,25.74,141.65,118.19,195,160.53,92.68,420,93.15,579.51,1C1753.55,1148.73,1792.7,1080.83,1783.79,1014.52Z"/><ellipse class="cls-28" cx="1375.37" cy="955.94" rx="229.15" ry="396.92" transform="translate(411.99 2326.1) rotate(-89.69)"/><path class="cls-29" d="M1180.59,1109.53l-18.71,10.88-7.28,4.23a12.22,12.22,0,0,1-12.08,0l-8.53-4.93-53.36-31.25-18.79-10.88a3.22,3.22,0,0,1,0-5.56l26.16-15.2a12,12,0,0,1,12.09,0l80.54,47.11A3.23,3.23,0,0,1,1180.59,1109.53Z"/><path class="cls-29" d="M1180.59,1109.53l-5.21,3-75.29-44a12,12,0,0,0-12.09,0l-20.86,12.12-5.3-3.07a3.22,3.22,0,0,1,0-5.56l26.16-15.2a12,12,0,0,1,12.09,0l80.54,47.11A3.23,3.23,0,0,1,1180.59,1109.53Z"/><path class="cls-28" d="M1377.57,1123c-87.92,0-170.16-19.52-231.57-55-55.31-31.93-85.77-72.17-85.77-113.31,0-40.66,29.91-80.32,84.22-111.68,60.41-34.87,141.63-54.08,228.72-54.08,87.92,0,170.16,19.52,231.57,55,55.31,31.93,85.77,72.17,85.77,113.32,0,40.66-29.91,80.32-84.22,111.67C1545.89,1103.76,1464.66,1123,1377.57,1123Z"/><path class="cls-29" d="M1488.69,1111.86A547.8,547.8,0,0,1,1377.58,1123c-87.9,0-170.19-19.52-231.62-55-55.3-31.93-85.72-72.15-85.72-113.3,0-24.8,11.15-49.18,32.18-71.56Z"/><path class="cls-29" d="M1144.45,878.29c60.41-34.88,141.63-54.09,228.72-54.09,87.92,0,170.16,19.53,231.57,55,47.35,27.34,76.42,60.77,83.82,95.65a84.1,84.1,0,0,0,2-17.62c0-41.15-30.46-81.39-85.77-113.32-61.41-35.46-143.65-55-231.57-55-87.09,0-168.31,19.21-228.72,54.08-54.31,31.36-84.22,71-84.22,111.68a84.57,84.57,0,0,0,2,17.67C1069.5,938,1098,905.09,1144.45,878.29Z"/><path class="cls-31" d="M1023,1441.66s-25.91,97.58-36.2,193.57S992,1883.77,1100,1916.34s281.11,10.28,281.11,10.28l-10.29-96S1079.8,1681.74,1023,1441.66Z"/><path class="cls-32" d="M1327.93,2075.17c-45.57,9.29-75.91,36.73-116.51,67.51-138,60.08-298.46,68.4-441.4,20.68-28.51-9.51-61.85-20.61-86.66-3.63-15.19,10.39-22.48,28.62-30.57,45.15C610.12,2292.19,527,2353.11,439.9,2396.24s-180.74,72-267.43,115.91c-46.66,23.63-95.23,52.46-147.24,46.8-61-6.63-105.55-57.84-151.26-98.78a559.16,559.16,0,0,0-151.4-96.33,603.86,603.86,0,0,0-147.47-42.31c5.08-1.51,10.22-3,15.38-4.58,231.7-69,551.83-166.38,661-209.78,178.26-70.85,294.82-162.26,365.67-221.69s96-105.13,109.7-185.11,109.69-109.71,109.69-109.71l42.77-68.83a275.26,275.26,0,0,1,141.95-114.22l1.75,34.05,5.2,101.37-8.52,71.8a277.61,277.61,0,0,0,22.12,145.92q2.51,5.64,5.29,11.41a378.4,378.4,0,0,0,28.24,49.51c16.91,24.82,37.7,47.72,62.88,63.81,82.28,52.57,258.26,38.86,258.26,38.86s87.76-13.59,135.12,9.22c17,8.19,28.82,21.1,29.42,41C1563.39,2052.19,1451.35,2050,1327.93,2075.17Z"/><path class="cls-33" d="M1211.42,2142.68c-5.52,4.19-11.24,8.44-17.21,12.71-67.84,48.6-168.55,100.34-396.49,100.34,0,0-98.28,22.84-189.69,118.84S-57,3108.19-57,3108.19l-180-211A1241.19,1241.19,0,0,0-371.71,2739.3l-282.24-330.86a175.42,175.42,0,0,1,4.66-20.82c35.38-10.31,119.85-35,224.39-66.09a603.86,603.86,0,0,1,147.47,42.31A559.16,559.16,0,0,1-126,2460.17c45.71,40.94,90.27,92.15,151.26,98.78,52,5.66,100.58-23.17,147.24-46.8,86.69-43.92,180.35-72.77,267.43-115.91s170.22-104,212.89-191.36c8.09-16.53,15.38-34.76,30.57-45.15,24.81-17,58.15-5.88,86.66,3.63C913,2211.08,1073.41,2202.76,1211.42,2142.68Z"/><path class="cls-5" d="M19.15,2934.41l-4,187.41c-1.1,52-2.39,105.07-20.07,154a239.76,239.76,0,0,1-36,65.39c-13.62,17.55-31.24,34-53.2,37.38-13.92,2.11-28-1.28-41.69-4.64l-106.17-26.16c-18.75-4.61-37.94-9.44-53.86-20.36-18.6-12.75-30.92-32.58-42.27-52.06-48.44-83.12-89.27-170.93-144.74-249.55-63.11-89.43-144-165.36-205.36-256-31.56-46.67-58.08-96.89-93.84-140.64a324.21,324.21,0,0,0-60-56.7c-7.79-5.7-14.11-10.76-15-20.92-1.13-13,2.91-27.77,6.13-40.21,7.19-27.79,20.17-54.45,39.94-75.4,2.13-2.26,4.33-4.45,6.63-6.57,23.5-21.78,53.77-34.84,84.43-44.1a444.53,444.53,0,0,1,58.33-13.39c122.72-19.73,252,10.3,364.81,65,31.47,15.27,62.42,32.68,87.69,56.89,45.49,43.62,68.83,105.44,109.33,153.73,27.69,33,63.27,59.56,86,96.15C20.83,2799.27,20.52,2868.93,19.15,2934.41Z"/><polygon class="cls-18" points="2612.87 1728.94 3163.78 3341.13 4834.31 3341.13 4283.4 2191.7 2612.87 1728.94"/><path class="cls-34" d="M3110.84,550.05l1397.68,790.81a150.58,150.58,0,0,1,69.19,177.22L4226.17,2609.94c-18.11,56.25-83.07,82-134.79,53.39l-112.23-62.06Z"/><path class="cls-35" d="M4478.61,1339.61a152,152,0,0,1,68.45,178.87L4191.74,2605.23a86.18,86.18,0,0,1-124.9,47.91l-1410-811.5a96.56,96.56,0,0,1-43.93-112.7L2966.52,606.2c19.08-60.57,89.33-87.9,144.32-56.15Z"/><path class="cls-34" d="M4513.92,1496.49,4167.62,2579.2a62.85,62.85,0,0,1-91.42,35.22L2678.07,1802.9a55.76,55.76,0,0,1-25.2-65L3004.22,622.66a58.69,58.69,0,0,1,85.21-33.26l246.31,141.45,398,228.53,735.76,422.53A97.77,97.77,0,0,1,4513.92,1496.49Z"/><g class="cls-2"><g class="cls-36"><path class="cls-10" d="M3618.41,1539.44c-2.46-1.38-4.58-1.4-6.35,0s-3.27,3.88-4.51,7.56q-3.89,11.6,3.18,15.54t10.88-7.67q3.84-11.46-3.2-15.39"/><path class="cls-10" d="M4193.8,1861.38c-2.47-1.38-4.58-1.4-6.35,0s-3.28,3.87-4.51,7.56q-3.88,11.58,3.18,15.53t10.88-7.66q3.84-11.46-3.2-15.39"/><path class="cls-10" d="M3819.36,1255.07c-2.47-1.38-4.58-1.38-6.35,0s-3.28,3.88-4.52,7.57q-3.88,11.57,3.18,15.53t10.88-7.66q3.85-11.46-3.19-15.41"/><path class="cls-10" d="M3896.28,1298.11c-2.47-1.38-4.58-1.38-6.35,0s-3.28,3.88-4.52,7.57q-3.88,11.56,3.18,15.53t10.88-7.67q3.86-11.44-3.19-15.4"/><path class="cls-10" d="M3987.05,1348.4a5.31,5.31,0,0,0-5.2-.37c-1.61.81-3,2.52-4.11,5.15l12.53,7a12.28,12.28,0,0,0,.45-7.19,7.42,7.42,0,0,0-3.67-4.59"/><path class="cls-10" d="M3548.93,2110.86c-35.33-19.76-52.33-70.48-38-113.26s54.63-61.45,90-41.68l374.49,209.53c35.33,19.76,52.33,70.48,38,113.27s-54.63,61.44-89.95,41.67l-374.49-209.53"/><path class="cls-10" d="M3865.65,1749.42l7-21,12,6.71-7,21,302.52,169.26c16.57,9.27,24.53,33,17.8,53.09l-27.61,82.32c-6.72,20.05-25.6,28.8-42.16,19.53l-302.52-169.26-7,21-12-6.71,7-21L3511.15,1735.1c-16.56-9.26-24.53-33-17.8-53.09l27.61-82.32c6.73-20,25.61-28.8,42.17-19.53l302.52,169.26"/><path class="cls-10" d="M3590.09,1524.42l.3.17a10.23,10.23,0,0,1,5.18-2.75,7.78,7.78,0,0,1,5.34.9,15.7,15.7,0,0,1,2.82,2l-2.8,6.3a12.65,12.65,0,0,0-2.47-1.83,6.76,6.76,0,0,0-6.64-.4c-2.08,1-3.61,3-4.61,6l-5.86,17.47-5.87-3.28,11.21-33.44,4.6,2.57-1.2,6.33"/><path class="cls-10" d="M3608.68,1568.25a16.36,16.36,0,0,1-6.13-6,18.45,18.45,0,0,1-2.52-8.63,26.69,26.69,0,0,1,1.48-10.09q2.72-8.13,7.7-10.77c3.33-1.75,7.07-1.46,11.25.87a16.24,16.24,0,0,1,7.92,10q1.92,6.63-.73,14.55-2.74,8.19-7.76,10.85t-11.21-.81"/><path class="cls-10" d="M3660.71,1562.45l.4.22a7.76,7.76,0,0,1,4.74-1.94,10.18,10.18,0,0,1,5.56,1.46q5,2.77,6.19,7.07c.83,2.84.56,6.34-.83,10.47l-7.32,21.81-5.87-3.29,6.92-20.62a12.22,12.22,0,0,0,.72-6.4,6,6,0,0,0-3.13-4q-3.42-1.92-5.87-.23t-4.25,7.06l-5.95,17.72-5.89-3.3,6.92-20.62a12.35,12.35,0,0,0,.73-6.4,6,6,0,0,0-3.12-4c-2.26-1.26-4.21-1.3-5.88-.11s-3.17,3.87-4.56,8l-5.59,16.66-5.87-3.28,11.21-33.44,4.6,2.57-.65,4.83.31.17a6.94,6.94,0,0,1,4.57-1.82,10,10,0,0,1,5.23,1.39q6.38,3.55,6.68,10"/><path class="cls-10" d="M4184.07,1890.19a16.12,16.12,0,0,1-6.12-6,18.47,18.47,0,0,1-2.54-8.63,26.91,26.91,0,0,1,1.49-10.09q2.73-8.13,7.7-10.77t11.25.87a16.27,16.27,0,0,1,7.92,10q1.93,6.63-.73,14.55-2.76,8.19-7.77,10.85t-11.2-.81"/><polyline class="cls-10" points="3548.89 1534.08 3563.72 1489.88 3584.32 1501.4 3582.27 1507.51 3567.59 1499.29 3562.95 1513.11 3576.71 1520.81 3574.65 1526.95 3560.89 1519.25 3554.81 1537.39 3548.89 1534.08"/><polyline class="cls-10" points="4153.26 1827.09 4155.33 1820.89 4182.77 1836.25 4180.69 1842.44 4169.96 1836.43 4157.21 1874.45 4151.24 1871.11 4164 1833.09 4153.26 1827.09"/><path class="cls-10" d="M3623.22,1401c-16.56-9.27-24.54-33-17.81-53.09l27.61-82.32c6.73-20,25.61-28.8,42.17-19.54l617,345.24c16.57,9.27,24.53,33,17.81,53.09l-27.61,82.32c-6.73,20-25.6,28.81-42.17,19.54l-617-345.24"/><polyline class="cls-10" points="3730.74 1239.03 3741.95 1205.59 3747.83 1208.88 3736.61 1242.32 3730.74 1239.03"/><path class="cls-10" d="M3950.48,1354.77l.2.11a55.16,55.16,0,0,1,4.41-7l12.13-16.3,6.25,3.5-21.75,27.54-6.35-3.55.73-39.31,6.2,3.47-.91,22.58a50.78,50.78,0,0,1-.91,8.91"/><path class="cls-10" d="M3713.45,1194.85l.29.16a7.44,7.44,0,0,1,4.79-1.7,11.1,11.1,0,0,1,5.52,1.55q9.94,5.57,5.83,17.8l-7.31,21.8-5.89-3.29,6.9-20.56a12,12,0,0,0,.66-6.5,6.62,6.62,0,0,0-3.45-4.19q-3.73-2.09-6.34-.38t-4.71,8l-5.59,16.66-5.87-3.28,11.22-33.44,4.59,2.57-.64,4.85"/><path class="cls-10" d="M3809.63,1283.89a16.41,16.41,0,0,1-6.13-5.94,18.45,18.45,0,0,1-2.53-8.64,26.87,26.87,0,0,1,1.48-10.08q2.73-8.13,7.71-10.77t11.24.87a16.21,16.21,0,0,1,7.93,10q1.92,6.63-.74,14.54-2.74,8.2-7.76,10.84t-11.2-.8"/><path class="cls-10" d="M3886.55,1326.93a16.41,16.41,0,0,1-6.13-5.94,18.69,18.69,0,0,1-2.53-8.64,26.84,26.84,0,0,1,1.48-10.08q2.73-8.13,7.71-10.77t11.24.86a16.25,16.25,0,0,1,7.93,10q1.92,6.63-.74,14.54-2.75,8.19-7.76,10.84t-11.2-.8"/><path class="cls-10" d="M3921.79,1311.42l.3.17a7.28,7.28,0,0,1,4.78-1.71,11.16,11.16,0,0,1,5.53,1.55q9.95,5.57,5.83,17.81l-7.31,21.79-5.89-3.29,6.89-20.56a11.85,11.85,0,0,0,.66-6.5,6.64,6.64,0,0,0-3.44-4.19c-2.49-1.39-4.6-1.51-6.34-.38s-3.32,3.78-4.72,8l-5.59,16.66-5.86-3.28,11.22-33.44,4.58,2.57-.64,4.85"/><path class="cls-10" d="M3978.31,1378.26a17.5,17.5,0,0,1-8.56-10.18c-1.4-4.4-1.21-9.24.58-14.57s4.39-9.13,7.69-11,6.9-1.7,10.83.5a15,15,0,0,1,7.29,8.85,20.53,20.53,0,0,1-.54,12.84l-1.29,3.84-18.4-10.3a14.79,14.79,0,0,0-.34,8.7,9.94,9.94,0,0,0,4.89,5.84,20.46,20.46,0,0,0,4.74,2,21.34,21.34,0,0,0,5.16.68l-1.93,5.78a16.57,16.57,0,0,1-4.94-.68,26.51,26.51,0,0,1-5.18-2.3"/><path class="cls-10" d="M4010.51,1362.85l.3.17a10.3,10.3,0,0,1,5.17-2.74,7.74,7.74,0,0,1,5.35.91,15.36,15.36,0,0,1,2.82,1.93l-2.79,6.31a12.17,12.17,0,0,0-2.48-1.82,6.73,6.73,0,0,0-6.64-.41q-3.12,1.56-4.6,6l-5.86,17.48-5.88-3.29,11.22-33.44,4.6,2.58-1.21,6.32"/><path class="cls-10" d="M3751.19,1217.14l1-3.13,4.92-.34,4.36-6,3.62,2-2.49,7.44,7.87,4.4-1.81,5.38-7.87-4.4-6,17.89a6.7,6.7,0,0,0-.21,4.4,5.07,5.07,0,0,0,2.37,2.79,13.56,13.56,0,0,0,4.57,1.57l-1.8,5.36a11.15,11.15,0,0,1-2.79-.54,17.5,17.5,0,0,1-3.3-1.44q-8.34-4.66-4.77-15.3l6.05-18-3.77-2.11"/><path class="cls-10" d="M3784.57,1235.82l1-3.14,4.92-.33,4.37-6,3.62,2-2.49,7.44,7.86,4.4-1.81,5.38-7.86-4.4-6,17.9a6.68,6.68,0,0,0-.22,4.39,5.06,5.06,0,0,0,2.37,2.78,13.72,13.72,0,0,0,4.58,1.59l-1.8,5.35a11.21,11.21,0,0,1-2.8-.55,17.44,17.44,0,0,1-3.3-1.43q-8.34-4.66-4.77-15.31l6.05-18-3.77-2.11"/><path class="cls-10" d="M4024.14,1369.87l1.06-3.14,4.92-.34,4.36-6,3.62,2-2.49,7.44,7.86,4.41-1.8,5.37-7.87-4.4-6,17.9a6.7,6.7,0,0,0-.21,4.4,5,5,0,0,0,2.37,2.78,13.5,13.5,0,0,0,4.57,1.58l-1.8,5.35a10.72,10.72,0,0,1-2.79-.54,17.17,17.17,0,0,1-3.3-1.43q-8.34-4.66-4.77-15.31l6-18-3.77-2.11"/><path class="cls-10" d="M3677,1202.37q8.44,4.73,12-6l9.36-27.91,6,3.34-9.6,28.6a17.6,17.6,0,0,1-4.61,7.61,10.55,10.55,0,0,1-6.91,2.84,16.34,16.34,0,0,1-8.52-2.41,18.94,18.94,0,0,1-9.09-10.26,21.08,21.08,0,0,1,.23-14.09l9.56-28.48,6,3.35-9.38,28q-1.84,5.47-.6,9.25a11.15,11.15,0,0,0,5.56,6.2"/><path class="cls-10" d="M3858.22,1311.07a20.59,20.59,0,0,1-10.34-12.76q-2.33-8.28,1.35-19.23a28.67,28.67,0,0,1,6.13-10.9,13.93,13.93,0,0,1,8.69-4.55,17,17,0,0,1,10.19,2.43,27.85,27.85,0,0,1,9.37,8.63l-4.16,4.82a41.62,41.62,0,0,0-3.29-4,15.89,15.89,0,0,0-4.06-3.22c-3.43-1.92-6.61-2-9.57-.11s-5.29,5.35-7,10.53q-2.73,8.13-1.29,13.9a13.39,13.39,0,0,0,6.8,8.75,21.37,21.37,0,0,0,4.68,2,49.25,49.25,0,0,0,5,1.09l-2.08,6.19a26.05,26.05,0,0,1-10.39-3.48"/><path class="cls-10" d="M3746.59,1202.3a4.35,4.35,0,0,1-2.11-2.42,5.16,5.16,0,0,1,.1-3.35,3.77,3.77,0,0,1,1.84-2.44,3,3,0,0,1,2.81.35,4.21,4.21,0,0,1,2.06,2.37,5.23,5.23,0,0,1-.12,3.41,3.73,3.73,0,0,1-1.82,2.38,2.92,2.92,0,0,1-2.76-.3"/><path class="cls-10" d="M4339.08,1398.27l-586.9-328.38c-55.79-31.22-119.4-1.74-142.07,65.82l-277.39,827c-22.67,67.58,4.19,147.66,60,178.88l586.9,328.38c55.8,31.22,119.4,1.75,142.06-65.82l277.4-827c22.66-67.57-4.19-147.66-60-178.88"/><path class="cls-5" d="M3704.4,1171.79l-6-3.34-9.36,27.91q-3.6,10.74-12,6a11.15,11.15,0,0,1-5.56-6.2q-1.24-3.78.6-9.25l9.38-28-6-3.35-9.56,28.48a21.08,21.08,0,0,0-.23,14.09,18.94,18.94,0,0,0,9.09,10.26,16.34,16.34,0,0,0,8.52,2.41,10.55,10.55,0,0,0,6.91-2.84,17.6,17.6,0,0,0,4.61-7.61l9.6-28.6"/><path class="cls-5" d="M3724.05,1194.86a11.1,11.1,0,0,0-5.52-1.55,7.44,7.44,0,0,0-4.79,1.7l-.29-.16.64-4.85-4.59-2.57-11.22,33.44,5.87,3.28,5.59-16.66q2.1-6.26,4.71-8t6.34.38a6.62,6.62,0,0,1,3.45,4.19,12,12,0,0,1-.66,6.5l-6.9,20.56,5.89,3.29,7.31-21.8q4.11-12.24-5.83-17.8"/><path class="cls-5" d="M3747.83,1208.88l-5.88-3.29L3730.74,1239l5.87,3.29,11.22-33.44m1.4-14.44a3,3,0,0,0-2.81-.35,3.77,3.77,0,0,0-1.84,2.44,5.16,5.16,0,0,0-.1,3.35,4.35,4.35,0,0,0,2.11,2.42,2.92,2.92,0,0,0,2.76.3,3.73,3.73,0,0,0,1.82-2.38,5.23,5.23,0,0,0,.12-3.41,4.21,4.21,0,0,0-2.06-2.37"/><path class="cls-5" d="M3765.14,1209.73l-3.62-2-4.36,6-4.92.34-1,3.13,3.77,2.11-6.05,18q-3.57,10.63,4.77,15.3a17.5,17.5,0,0,0,3.3,1.44,11.15,11.15,0,0,0,2.79.54l1.8-5.36a13.56,13.56,0,0,1-4.57-1.57,5.07,5.07,0,0,1-2.37-2.79,6.7,6.7,0,0,1,.21-4.4l6-17.89,7.87,4.4,1.81-5.38-7.87-4.4,2.49-7.44"/><path class="cls-5" d="M3798.53,1228.41l-3.62-2-4.37,6-4.92.33-1,3.14,3.77,2.11-6.05,18q-3.57,10.63,4.77,15.31a17.44,17.44,0,0,0,3.3,1.43,11.21,11.21,0,0,0,2.8.55l1.8-5.35a13.72,13.72,0,0,1-4.58-1.59,5.06,5.06,0,0,1-2.37-2.78,6.68,6.68,0,0,1,.22-4.39l6-17.9,7.86,4.4,1.81-5.38-7.86-4.4,2.49-7.44"/><path class="cls-5" d="M3811.67,1278.14q-7.07-4-3.18-15.53,1.86-5.53,4.52-7.57c1.77-1.35,3.88-1.35,6.35,0q7,3.95,3.19,15.41t-10.88,7.66m9.73-28.81q-6.27-3.51-11.24-.87t-7.71,10.77a26.87,26.87,0,0,0-1.48,10.08,18.45,18.45,0,0,0,2.53,8.64,16.41,16.41,0,0,0,6.13,5.94q6.2,3.46,11.2.8t7.76-10.84q2.65-7.92.74-14.54a16.21,16.21,0,0,0-7.93-10"/><path class="cls-5" d="M3874.24,1266.06a17,17,0,0,0-10.19-2.43,13.93,13.93,0,0,0-8.69,4.55,28.67,28.67,0,0,0-6.13,10.9q-3.67,11-1.35,19.23a20.59,20.59,0,0,0,10.34,12.76,26.05,26.05,0,0,0,10.39,3.48l2.08-6.19a49.25,49.25,0,0,1-5-1.09,21.37,21.37,0,0,1-4.68-2,13.39,13.39,0,0,1-6.8-8.75q-1.44-5.77,1.29-13.9,2.61-7.77,7-10.53c3-1.85,6.14-1.81,9.57.11a15.89,15.89,0,0,1,4.06,3.22,41.62,41.62,0,0,1,3.29,4l4.16-4.82a27.85,27.85,0,0,0-9.37-8.63"/><path class="cls-5" d="M3888.59,1321.18q-7.07-4-3.18-15.53,1.86-5.54,4.52-7.57c1.77-1.35,3.88-1.35,6.35,0q7,3.95,3.19,15.4t-10.88,7.67m9.73-28.82q-6.27-3.49-11.24-.86t-7.71,10.77a26.84,26.84,0,0,0-1.48,10.08,18.69,18.69,0,0,0,2.53,8.64,16.41,16.41,0,0,0,6.13,5.94q6.19,3.46,11.2.8t7.76-10.84q2.65-7.92.74-14.54a16.25,16.25,0,0,0-7.93-10"/><path class="cls-5" d="M3932.4,1311.43a11.16,11.16,0,0,0-5.53-1.55,7.28,7.28,0,0,0-4.78,1.71l-.3-.17.64-4.85-4.58-2.57-11.22,33.44,5.86,3.28,5.59-16.66q2.1-6.25,4.72-8c1.74-1.13,3.85-1,6.34.38a6.64,6.64,0,0,1,3.44,4.19,11.85,11.85,0,0,1-.66,6.5l-6.89,20.56,5.89,3.29,7.31-21.79q4.11-12.26-5.83-17.81"/><path class="cls-5" d="M3973.47,1335.13l-6.25-3.5-12.13,16.3a55.16,55.16,0,0,0-4.41,7l-.2-.11a50.78,50.78,0,0,0,.91-8.91l.91-22.58-6.2-3.47-.73,39.31,6.35,3.55,21.75-27.54"/><path class="cls-5" d="M3977.74,1353.18c1.13-2.63,2.5-4.34,4.11-5.15a5.31,5.31,0,0,1,5.2.37,7.42,7.42,0,0,1,3.67,4.59,12.28,12.28,0,0,1-.45,7.19l-12.53-7m11.11-10.16q-5.89-3.3-10.83-.5t-7.69,11c-1.79,5.33-2,10.17-.58,14.57a17.5,17.5,0,0,0,8.56,10.18,26.51,26.51,0,0,0,5.18,2.3,16.57,16.57,0,0,0,4.94.68l1.93-5.78a21.34,21.34,0,0,1-5.16-.68,20.46,20.46,0,0,1-4.74-2,9.94,9.94,0,0,1-4.89-5.84,14.79,14.79,0,0,1,.34-8.7l18.4,10.3,1.29-3.84a20.53,20.53,0,0,0,.54-12.84,15,15,0,0,0-7.29-8.85"/><path class="cls-5" d="M4021.33,1361.19a7.74,7.74,0,0,0-5.35-.91,10.3,10.3,0,0,0-5.17,2.74l-.3-.17,1.21-6.32-4.6-2.58-11.22,33.44,5.88,3.29,5.86-17.48q1.49-4.44,4.6-6a6.73,6.73,0,0,1,6.64.41,12.17,12.17,0,0,1,2.48,1.82l2.79-6.31a15.36,15.36,0,0,0-2.82-1.93"/><path class="cls-5" d="M4038.1,1362.45l-3.62-2-4.36,6-4.92.34-1.06,3.14,3.77,2.11-6,18q-3.57,10.63,4.77,15.31a17.17,17.17,0,0,0,3.3,1.43,10.72,10.72,0,0,0,2.79.54l1.8-5.35a13.5,13.5,0,0,1-4.57-1.58,5,5,0,0,1-2.37-2.78,6.7,6.7,0,0,1,.21-4.4l6-17.9,7.87,4.4,1.8-5.37-7.86-4.41,2.49-7.44"/><path class="cls-5" d="M3923.1,1490.42l-3.61-1.81c-2.81-1.42-5-2-6.59-1.69s-2.73,1.47-3.42,3.53a5.52,5.52,0,0,0,2.82,7.14,6.58,6.58,0,0,0,5.86.71q2.65-1.08,4-5l1-2.9m-82.27-60.62q-3.49-2-5.93-.37t-4.28,7l-.35,1.06q-2.05,6.1-1.36,9.74a8,8,0,0,0,4.3,5.66,4.76,4.76,0,0,0,5.7-.4q2.67-2.1,4.54-7.7t1.22-9.42a7.53,7.53,0,0,0-3.84-5.59m-79.8-45.15a5.31,5.31,0,0,0-5.2-.36q-2.4,1.21-4.11,5.14l12.54,7a12.32,12.32,0,0,0,.45-7.2,7.53,7.53,0,0,0-3.68-4.6m110.21,61.67a5.31,5.31,0,0,0-5.21-.37c-1.6.81-3,2.51-4.11,5.14l12.53,7a12.21,12.21,0,0,0,.46-7.19,7.48,7.48,0,0,0-3.67-4.59M4027,1533.47a5.31,5.31,0,0,0-5.2-.37c-1.61.81-3,2.52-4.11,5.15l12.53,7a12.32,12.32,0,0,0,.45-7.2,7.51,7.51,0,0,0-3.67-4.59M3646.82,1382c-8-4.46-11.81-15.9-8.57-25.55,2.1-6.25,6.65-10.21,11.76-11l12.62-37.62,15.29,8.56-12.62,37.61a23.41,23.41,0,0,1,1.82,18.62c-3.24,9.65-12.33,13.86-20.3,9.4m15.81-74.19,5.57-16.61c1.71-5.11,6.52-7.34,10.75-5a10.06,10.06,0,0,1,4.49,5.74,12.28,12.28,0,0,1,0,7.79l-5.57,16.61-15.29-8.56m17.51-25.12c-5.84-3.27-12.5-.18-14.86,6.88l-17.57,52.37-.42.13c-5.46,1.69-9.81,6.34-12,12.75-3.89,11.58.74,25.37,10.3,30.72s20.52.27,24.4-11.31a28,28,0,0,0-1-20l-.21-.48,17.56-52.37a17,17,0,0,0-.06-10.78,14,14,0,0,0-6.21-7.93m284.51,243.88c2.47,1.38,4.58,1.49,6.34.36s3.33-3.8,4.74-8l5.59-16.67,5.89,3.3L3976,1539l-4.62-2.58.65-4.85-.3-.17a7.47,7.47,0,0,1-4.71,1.71,10.94,10.94,0,0,1-5.6-1.55q-5-2.82-6.48-7.22t.6-10.54l7.34-21.86,5.91,3.31-6.92,20.62a11.94,11.94,0,0,0-.63,6.49,6.6,6.6,0,0,0,3.42,4.2m-212.36-112a17.52,17.52,0,0,1-8.55-10.18c-1.4-4.38-1.21-9.25.57-14.57s4.4-9.12,7.69-11,6.91-1.69,10.84.51a15.06,15.06,0,0,1,7.29,8.84,20.49,20.49,0,0,1-.54,12.85l-1.29,3.84-18.41-10.3a14.73,14.73,0,0,0-.33,8.71,9.94,9.94,0,0,0,4.89,5.84,21.37,21.37,0,0,0,4.75,2,21.06,21.06,0,0,0,5.15.68l-1.94,5.78a16.5,16.5,0,0,1-4.93-.68,26.24,26.24,0,0,1-5.19-2.3m49.55-7.17.4.22a7.6,7.6,0,0,1,4.75-1.94,10.2,10.2,0,0,1,5.56,1.46q4.93,2.76,6.18,7.05t-.83,10.49l-7.31,21.79-5.87-3.28,6.92-20.62a12.23,12.23,0,0,0,.71-6.41,6,6,0,0,0-3.13-4q-3.41-1.9-5.87-.21c-1.64,1.13-3,3.48-4.24,7l-6,17.72-5.89-3.3,6.91-20.63a12.2,12.2,0,0,0,.73-6.39,6,6,0,0,0-3.11-4q-3.4-1.9-5.88-.1t-4.57,8l-5.59,16.66-5.86-3.28,11.21-33.44,4.59,2.56-.64,4.85.3.17a6.91,6.91,0,0,1,4.57-1.82,10,10,0,0,1,5.24,1.39q6.36,3.56,6.67,10m32.22,17.81.3.17q4.44-3.55,9.94-.47a13.11,13.11,0,0,1,6.54,9q1.35,6.13-1.4,14.34t-7.21,11.14q-4.49,3-9.65.06a13.21,13.21,0,0,1-6.61-9.11l-.35-.2q-1.07,4.42-1.38,5.34l-4.59,13.69-5.86-3.28,16.21-48.31,4.74,2.65c-.08.7-.31,2.34-.68,4.94m28.43,51a17.52,17.52,0,0,1-8.55-10.18q-2.11-6.59.58-14.57c1.83-5.45,4.39-9.13,7.69-11s6.9-1.69,10.83.51a15,15,0,0,1,7.29,8.85,20.53,20.53,0,0,1-.54,12.84l-1.29,3.84-18.4-10.3a14.74,14.74,0,0,0-.34,8.71,9.88,9.88,0,0,0,4.89,5.83,20.46,20.46,0,0,0,4.74,2,21.34,21.34,0,0,0,5.16.68l-1.94,5.78a16.55,16.55,0,0,1-4.93-.68,26.84,26.84,0,0,1-5.19-2.3m32.21-15.41.3.17a10.3,10.3,0,0,1,5.17-2.74,7.74,7.74,0,0,1,5.35.91,15.36,15.36,0,0,1,2.82,1.93l-2.79,6.3a12.51,12.51,0,0,0-2.48-1.81,6.76,6.76,0,0,0-6.64-.41c-2.08,1-3.61,3.05-4.6,6L3886,1488.6l-5.87-3.29,11.22-33.44,4.6,2.58-1.21,6.32m19,12.37-.2-6.14a18.14,18.14,0,0,1,5.64.59,22.1,22.1,0,0,1,5.29,2.08c3.51,2,5.85,4.38,7,7.23s1.09,6.26-.24,10.24l-7.56,22.52-4.2-2.35.4-5.31-.2-.11a10.14,10.14,0,0,1-5.42,1.91,12.1,12.1,0,0,1-5.56-1.8,11.38,11.38,0,0,1-5.46-6.21,13.27,13.27,0,0,1,.24-8.81q1.73-5.18,5.78-6t10.63,2.54l4.82,2.48.6-1.78a9,9,0,0,0,.38-5.49,6.54,6.54,0,0,0-3.3-3.73,13.26,13.26,0,0,0-4.32-1.53,28,28,0,0,0-4.34-.3m85.3,46,.3.16a10.13,10.13,0,0,1,5.17-2.73,7.73,7.73,0,0,1,5.35.9,15.72,15.72,0,0,1,2.82,1.93l-2.8,6.31a12.37,12.37,0,0,0-2.48-1.82,6.75,6.75,0,0,0-6.62-.41q-3.13,1.58-4.62,6l-5.86,17.47-5.86-3.28,11.21-33.44,4.59,2.57-1.2,6.33m19.3,44.22a17.52,17.52,0,0,1-8.55-10.18q-2.11-6.59.57-14.57c1.83-5.45,4.39-9.13,7.69-11s6.9-1.7,10.84.5a15.05,15.05,0,0,1,7.29,8.85,20.47,20.47,0,0,1-.55,12.84l-1.29,3.84-18.4-10.3a14.82,14.82,0,0,0-.34,8.71,10,10,0,0,0,4.89,5.84,19.67,19.67,0,0,0,9.91,2.66l-1.94,5.78a16,16,0,0,1-4.94-.68,26.78,26.78,0,0,1-5.18-2.3m225.37,108.9,22.52-10.42a2.71,2.71,0,0,1,2.51.12,4,4,0,0,1,1.79,2.28c.71,2.1-.07,4.44-1.74,5.21l-25.3,11.73a2.71,2.71,0,0,1-2.52-.13,3.9,3.9,0,0,1-1.67-2l-13.27-32a4.39,4.39,0,0,1,1.37-5.4,2.7,2.7,0,0,1,2.77,0,3.9,3.9,0,0,1,1.67,2l11.87,28.56M3938,1484.38l1.05-3.14,4.91-.33,4.37-6,3.62,2-2.49,7.44,7.87,4.4-1.81,5.38-7.87-4.4-6,17.9a6.67,6.67,0,0,0-.21,4.39,5.07,5.07,0,0,0,2.37,2.79,13.48,13.48,0,0,0,4.57,1.57l-1.8,5.36a10.52,10.52,0,0,1-2.8-.55,17.09,17.09,0,0,1-3.29-1.43q-8.35-4.66-4.77-15.3l6-18-3.76-2.11M3720.77,1351l2.08-6.2,27.44,15.35-2.08,6.21-10.73-6-12.75,38-6-3.34,12.75-38-10.74-6m-75.83,36.52c-10.5-5.88-15.57-21-11.31-33.72,2.31-6.87,6.93-11.89,12.71-13.86l17.24-51.39c2.75-8.19,10.48-11.77,17.25-8a16.29,16.29,0,0,1,7.21,9.2,19.8,19.8,0,0,1,.07,12.5l-17.24,51.39a30.77,30.77,0,0,1,.86,21.46c-4.26,12.72-16.28,18.28-26.79,12.4m647.28,203.76-617-345.24c-16.56-9.26-35.44-.51-42.17,19.54l-27.61,82.32c-6.73,20,1.25,43.82,17.81,53.09l617,345.24c16.57,9.27,35.44.51,42.17-19.54L4310,1644.4c6.72-20.05-1.24-43.82-17.81-53.09"/><polyline class="cls-5" points="3584.32 1501.4 3563.72 1489.88 3548.89 1534.08 3554.81 1537.39 3560.89 1519.25 3574.65 1526.95 3576.71 1520.81 3562.95 1513.11 3567.59 1499.29 3582.27 1507.51 3584.32 1501.4"/><path class="cls-5" d="M3600.91,1522.74a7.78,7.78,0,0,0-5.34-.9,10.23,10.23,0,0,0-5.18,2.75l-.3-.17,1.2-6.33-4.6-2.57L3575.48,1549l5.87,3.28,5.86-17.47c1-3,2.53-5,4.61-6a6.76,6.76,0,0,1,6.64.4,12.65,12.65,0,0,1,2.47,1.83l2.8-6.3a15.7,15.7,0,0,0-2.82-2"/><path class="cls-5" d="M3610.73,1562.5q-7.07-4-3.18-15.54c1.24-3.68,2.74-6.21,4.51-7.56s3.89-1.34,6.35,0q7,3.93,3.2,15.39t-10.88,7.67m9.73-28.82c-4.18-2.33-7.92-2.62-11.25-.87s-5.89,5.35-7.7,10.77a26.69,26.69,0,0,0-1.48,10.09,18.45,18.45,0,0,0,2.52,8.63,16.36,16.36,0,0,0,6.13,6q6.2,3.46,11.21.81t7.76-10.85q2.66-7.92.73-14.55a16.24,16.24,0,0,0-7.92-10"/><path class="cls-5" d="M3671.41,1562.19a10.18,10.18,0,0,0-5.56-1.46,7.76,7.76,0,0,0-4.74,1.94l-.4-.22q-.32-6.42-6.68-10a10,10,0,0,0-5.23-1.39,6.94,6.94,0,0,0-4.57,1.82l-.31-.17.65-4.83-4.6-2.57-11.21,33.44,5.87,3.28,5.59-16.66q2.09-6.23,4.56-8c1.67-1.19,3.62-1.15,5.88.11a6,6,0,0,1,3.12,4,12.35,12.35,0,0,1-.73,6.4l-6.92,20.62,5.89,3.3,5.95-17.72q1.79-5.35,4.25-7.06t5.87.23a6,6,0,0,1,3.13,4,12.22,12.22,0,0,1-.72,6.4l-6.92,20.62,5.87,3.29,7.32-21.81c1.39-4.13,1.66-7.63.83-10.47s-2.89-5.22-6.19-7.07"/><polyline class="cls-34" points="4182.77 1836.25 4155.33 1820.89 4153.26 1827.09 4164 1833.09 4151.24 1871.11 4157.21 1874.45 4169.96 1836.43 4180.69 1842.44 4182.77 1836.25"/><path class="cls-34" d="M4186.12,1884.43q-7.06-3.95-3.18-15.53,1.85-5.54,4.51-7.56c1.77-1.36,3.88-1.34,6.35,0q7,3.93,3.2,15.39t-10.88,7.66m9.73-28.81q-6.27-3.51-11.25-.87t-7.7,10.77a26.91,26.91,0,0,0-1.49,10.09,18.47,18.47,0,0,0,2.54,8.63,16.12,16.12,0,0,0,6.12,6q6.19,3.46,11.2.81t7.77-10.85q2.66-7.92.73-14.55a16.27,16.27,0,0,0-7.92-10"/><path class="cls-5" d="M4030.21,1944c-4.48-.09-8,.59-10.44,2.09a12.2,12.2,0,0,0-5.3,6.94,13.56,13.56,0,0,0,.31,10.21,17,17,0,0,0,7.55,7.79c3.71,2.07,7,2.66,9.7,1.74s4.73-3.17,5.92-6.73a14.56,14.56,0,0,0-.25-9.33,39.61,39.61,0,0,0-6.46-11.32l-1-1.39m12-32.65q-4.32-2.41-7.82-1.3c-2.34.74-4,2.6-5,5.57a13.4,13.4,0,0,0-.68,5.39,17,17,0,0,0,1.46,5.44,47.74,47.74,0,0,0,4.72,7.65c4.07.09,7.17-.49,9.27-1.74a10.42,10.42,0,0,0,4.54-5.94,11.48,11.48,0,0,0-.29-8.52,13.92,13.92,0,0,0-6.2-6.55m-321.53-181.82a6.52,6.52,0,0,0-6.26-.27,8.48,8.48,0,0,0-4.47,5.33,11.91,11.91,0,0,0,.07,7.62,9.72,9.72,0,0,0,4.48,5.73,6.58,6.58,0,0,0,6.31.33,8.35,8.35,0,0,0,4.35-5.17,12,12,0,0,0,0-7.91,9.85,9.85,0,0,0-4.46-5.66M4110,1947.34a6.54,6.54,0,0,0-6.27-.28,8.47,8.47,0,0,0-4.45,5.34,11.88,11.88,0,0,0,0,7.61,9.75,9.75,0,0,0,4.49,5.74,6.58,6.58,0,0,0,6.31.33,8.3,8.3,0,0,0,4.34-5.18,12,12,0,0,0,0-7.9,9.89,9.89,0,0,0-4.46-5.66M3627.9,1717.65l-3.45-5.78,15-36,32.82,18.36-3.67,10.94-23.88-13.37-7.78,18.14c1.08.35,2.4.8,3.94,1.32a35.21,35.21,0,0,1,5.48,2.58q9.54,5.34,13.06,14.57t0,19.8q-4.11,12.24-12.74,15.58t-20.3-3.19q-10.57-5.92-15.24-13.43l3.74-11.14a39.72,39.72,0,0,0,6.79,8.2,40.84,40.84,0,0,0,8,6q6.87,3.85,11.69,2.14t7.24-8.87q4.59-13.71-9.83-21.77a37.53,37.53,0,0,0-5.18-2.32,55.73,55.73,0,0,0-5.6-1.79m-43.7-52.59-2.77-11.18a30.93,30.93,0,0,1,12.79-1.91,28.32,28.32,0,0,1,11.34,3.67,26.73,26.73,0,0,1,12.26,13.47,25.21,25.21,0,0,1,.28,18,28.06,28.06,0,0,1-4.83,9,34.42,34.42,0,0,1-7.92,7,101.72,101.72,0,0,1-15,7.45l-15.28,6.73-.18.53,30,16.77-3.63,10.82-42.79-24,3.12-9.3,22.93-10.72a128,128,0,0,0,13.81-7.33,26.16,26.16,0,0,0,5.8-5.11,20.69,20.69,0,0,0,3.45-6.45,14.44,14.44,0,0,0,.17-9.61,12.81,12.81,0,0,0-6.11-6.95,17.71,17.71,0,0,0-7.56-2.3,28.21,28.21,0,0,0-9.8,1.47M3711.83,1756a17.46,17.46,0,0,1-6.34-6.25,22.84,22.84,0,0,1-2.11-18.85q2.37-7.06,8.18-9.86a12.13,12.13,0,0,1,11.81.55,18.17,18.17,0,0,1,8.39,10.65,22.42,22.42,0,0,1,0,14.54q-2.43,7.26-8.24,9.89a12.37,12.37,0,0,1-11.68-.67m38.08,73.8q-13.86-7.76-17.88-22.08t2.34-33.26q4-11.94,10.6-18.85t15-7.87q8.43-1,17.62,4.2a48.11,48.11,0,0,1,16.23,14.91l-7.2,8.35a76,76,0,0,0-5.68-7,28.54,28.54,0,0,0-7-5.58q-8.89-5-16.56-.19t-12.16,18.23q-4.72,14.06-2.24,24a23.22,23.22,0,0,0,11.76,15.17,36.36,36.36,0,0,0,8.1,3.37,81.06,81.06,0,0,0,8.65,1.9l-3.6,10.72a45.36,45.36,0,0,1-18-6m115.74-80.35-302.52-169.26c-16.56-9.27-35.44-.52-42.17,19.53L3493.35,1682c-6.73,20,1.24,43.83,17.8,53.09l302.53,169.27,52-154.95m116,210.55a8.11,8.11,0,0,1-4-4.8,11.1,11.1,0,0,1,.34-6.83c.86-2.54,2-4.19,3.61-4.94s3.36-.54,5.43.61a8.26,8.26,0,0,1,4.09,4.81,10.87,10.87,0,0,1-.3,6.7c-.83,2.47-2.05,4.12-3.64,4.94s-3.43.67-5.5-.49M4114,2032.22l25.65-76.46,35.63,19.93-3.55,10.57-25.39-14.21-8,23.9,23.8,13.31-3.56,10.62-23.8-13.31-10.53,31.37-10.23-5.72m-94.63-51.7q-10.28-5.74-14.15-14.26t-.58-18.27a19.47,19.47,0,0,1,6.81-9.83q4.66-3.45,12.73-3.65a38.22,38.22,0,0,1-5.28-13.45,25,25,0,0,1,1.05-11.83q2.79-8.32,9.84-10.25t15.74,2.94q9,5,12.54,12.95a21.7,21.7,0,0,1,.74,16.29q-3.95,11.76-18,12.19,5.93,8.65,7.38,15.37a23.62,23.62,0,0,1-.58,12.84q-3.18,9.48-10.83,12t-17.46-3M3898.4,1838.88l-2.08-11.36q11.28-2.89,22.77,3.54,9.54,5.34,13.23,13.3a21.82,21.82,0,0,1,.75,16.7q-2.43,7.28-7.55,10.16t-12,1l-.14.42q7.21,5.4,9.48,12.1a21.94,21.94,0,0,1-.29,14.29q-3.7,11-12.14,13.43t-20.32-4.27a48.84,48.84,0,0,1-16.32-14l3.66-10.92a52.24,52.24,0,0,0,7.27,8.47,41.51,41.51,0,0,0,8.2,6.14q7.35,4.11,12.07,2.84t7.05-8.16a13,13,0,0,0-1-11.25q-3.06-5.12-11.64-9.93l-5.49-3.07,3.35-10,5.58,3.12q15.11,8.46,19.35-4.2a12.43,12.43,0,0,0-.09-9.06q-1.74-4.14-6.88-7a22.34,22.34,0,0,0-7.32-2.63,28,28,0,0,0-9.47.39m50.49,28.24-2.08-11.35q11.27-2.89,22.76,3.54,9.54,5.34,13.23,13.3a21.86,21.86,0,0,1,.76,16.7c-1.63,4.85-4.14,8.23-7.56,10.15s-7.42,2.26-12,1l-.14.41q7.22,5.41,9.49,12.11a21.91,21.91,0,0,1-.29,14.28q-3.71,11.06-12.14,13.44t-20.32-4.27a48.74,48.74,0,0,1-16.32-14l3.66-10.92a52.68,52.68,0,0,0,7.26,8.47,41.81,41.81,0,0,0,8.2,6.14q7.35,4.11,12.08,2.84c3.16-.84,5.51-3.57,7.05-8.16a13,13,0,0,0-1-11.25q-3.06-5.13-11.64-9.93l-5.49-3.07,3.35-10,5.57,3.12q15.12,8.46,19.36-4.2a12.49,12.49,0,0,0-.09-9.06c-1.16-2.76-3.45-5.11-6.88-7a22.34,22.34,0,0,0-7.32-2.63,28.23,28.23,0,0,0-9.47.38m152.26,106.68a17.41,17.41,0,0,1-6.35-6.25,21.92,21.92,0,0,1-3.1-9.16,22.26,22.26,0,0,1,1-9.69q2.37-7.07,8.18-9.87a12.17,12.17,0,0,1,11.83.56,18.15,18.15,0,0,1,8.37,10.64,22.36,22.36,0,0,1,0,14.54q-2.43,7.26-8.24,9.9a12.35,12.35,0,0,1-11.67-.67m79-48.4-302.52-169.26-52,154.94,302.52,169.26c16.56,9.27,35.44.52,42.16-19.53l27.61-82.32c6.73-20-1.23-43.82-17.8-53.09"/><path class="cls-37" d="M3677.92,1316.33l-15.29-8.56L3650,1345.39c-5.11.81-9.66,4.77-11.76,11-3.24,9.65.6,21.09,8.57,25.55s17.06.25,20.3-9.4a23.41,23.41,0,0,0-1.82-18.62l12.62-37.61"/><path class="cls-6" d="M3679,1286.19c-4.23-2.37-9-.14-10.75,5l-5.57,16.61,15.29,8.56,5.57-16.61a12.28,12.28,0,0,0,0-7.79,10.06,10.06,0,0,0-4.49-5.74"/><path class="cls-6" d="M3645.63,1385.5c-9.56-5.35-14.19-19.14-10.3-30.72,2.15-6.41,6.5-11.06,12-12.75l.42-.13,17.57-52.37c2.36-7.06,9-10.15,14.86-6.88a14,14,0,0,1,6.21,7.93,17,17,0,0,1,.06,10.78l-17.56,52.37.21.48a28,28,0,0,1,1,20c-3.88,11.58-14.83,16.67-24.4,11.31m35.2-104.9c-6.77-3.79-14.5-.21-17.25,8L3646.34,1340c-5.78,2-10.4,7-12.71,13.86-4.26,12.72.81,27.84,11.31,33.72s22.53.32,26.79-12.4a30.77,30.77,0,0,0-.86-21.46l17.24-51.39a19.8,19.8,0,0,0-.07-12.5,16.29,16.29,0,0,0-7.21-9.2"/><polyline class="cls-34" points="3750.29 1360.18 3722.85 1344.83 3720.77 1351.03 3731.51 1357.04 3718.76 1395.05 3724.73 1398.39 3737.48 1360.38 3748.21 1366.39 3750.29 1360.18"/><path class="cls-34" d="M3751.72,1389.43q1.71-3.93,4.11-5.14a5.31,5.31,0,0,1,5.2.36,7.53,7.53,0,0,1,3.68,4.6,12.32,12.32,0,0,1-.45,7.2l-12.54-7m11.12-10.15c-3.93-2.2-7.54-2.36-10.84-.51s-5.86,5.55-7.69,11-2,10.19-.57,14.57a17.52,17.52,0,0,0,8.55,10.18,26.24,26.24,0,0,0,5.19,2.3,16.5,16.5,0,0,0,4.93.68l1.94-5.78a21.06,21.06,0,0,1-5.15-.68,21.37,21.37,0,0,1-4.75-2,9.94,9.94,0,0,1-4.89-5.84,14.73,14.73,0,0,1,.33-8.71l18.41,10.3,1.29-3.84a20.49,20.49,0,0,0,.54-12.85,15.06,15.06,0,0,0-7.29-8.84"/><path class="cls-34" d="M3812.55,1407.09a10.2,10.2,0,0,0-5.56-1.46,7.6,7.6,0,0,0-4.75,1.94l-.4-.22q-.3-6.42-6.67-10a10,10,0,0,0-5.24-1.39,6.91,6.91,0,0,0-4.57,1.82l-.3-.17.64-4.85-4.59-2.56-11.21,33.44,5.86,3.28,5.59-16.66q2.08-6.24,4.57-8t5.88.1a6,6,0,0,1,3.11,4,12.2,12.2,0,0,1-.73,6.39l-6.91,20.63,5.89,3.3,6-17.72c1.2-3.57,2.6-5.92,4.24-7s3.6-1.06,5.87.21a6,6,0,0,1,3.13,4,12.23,12.23,0,0,1-.71,6.41l-6.92,20.62,5.87,3.28,7.31-21.79q2.07-6.2.83-10.49t-6.18-7.05"/><path class="cls-34" d="M3833.21,1452.91a8,8,0,0,1-4.3-5.66q-.69-3.64,1.36-9.74l.35-1.06q1.83-5.45,4.28-7t5.93.37a7.53,7.53,0,0,1,3.84,5.59q.66,3.79-1.22,9.42t-4.54,7.7a4.76,4.76,0,0,1-5.7.4m11.09-28.05q-5.49-3.08-9.94.47l-.3-.17c.37-2.6.6-4.24.68-4.94l-4.74-2.65-16.21,48.31,5.86,3.28,4.59-13.69q.32-.92,1.38-5.34l.35.2a13.21,13.21,0,0,0,6.61,9.11q5.16,2.89,9.65-.06t7.21-11.14q2.76-8.19,1.4-14.34a13.11,13.11,0,0,0-6.54-9"/><path class="cls-34" d="M3861.92,1451.09c1.14-2.63,2.51-4.33,4.11-5.14a5.31,5.31,0,0,1,5.21.37,7.48,7.48,0,0,1,3.67,4.59,12.21,12.21,0,0,1-.46,7.19l-12.53-7m11.12-10.15c-3.93-2.2-7.55-2.37-10.83-.51s-5.86,5.55-7.69,11-2,10.18-.58,14.57a17.52,17.52,0,0,0,8.55,10.18,26.84,26.84,0,0,0,5.19,2.3,16.55,16.55,0,0,0,4.93.68l1.94-5.78a21.34,21.34,0,0,1-5.16-.68,20.46,20.46,0,0,1-4.74-2,9.88,9.88,0,0,1-4.89-5.83,14.74,14.74,0,0,1,.34-8.71l18.4,10.3,1.29-3.84a20.53,20.53,0,0,0,.54-12.84,15,15,0,0,0-7.29-8.85"/><path class="cls-34" d="M3905.52,1459.11a7.74,7.74,0,0,0-5.35-.91,10.3,10.3,0,0,0-5.17,2.74l-.3-.17,1.21-6.32-4.6-2.58-11.22,33.44,5.87,3.29,5.87-17.48c1-2.95,2.52-5,4.6-6a6.76,6.76,0,0,1,6.64.41,12.51,12.51,0,0,1,2.48,1.81l2.79-6.3a15.36,15.36,0,0,0-2.82-1.93"/><path class="cls-34" d="M3912.3,1497.59a5.52,5.52,0,0,1-2.82-7.14c.69-2.06,1.83-3.23,3.42-3.53s3.78.27,6.59,1.69l3.61,1.81-1,2.9q-1.32,3.9-4,5a6.58,6.58,0,0,1-5.86-.71m12.09-27.92a22.1,22.1,0,0,0-5.29-2.08,18.14,18.14,0,0,0-5.64-.59l.2,6.14a28,28,0,0,1,4.34.3,13.26,13.26,0,0,1,4.32,1.53,6.54,6.54,0,0,1,3.3,3.73,9,9,0,0,1-.38,5.49l-.6,1.78-4.82-2.48q-6.57-3.4-10.63-2.54t-5.78,6a13.27,13.27,0,0,0-.24,8.81,11.38,11.38,0,0,0,5.46,6.21,12.1,12.1,0,0,0,5.56,1.8,10.14,10.14,0,0,0,5.42-1.91l.2.11-.4,5.31,4.2,2.35,7.56-22.52c1.33-4,1.41-7.38.24-10.24s-3.51-5.27-7-7.23"/><path class="cls-34" d="M3952,1477l-3.62-2-4.37,6-4.91.33-1.05,3.14,3.76,2.11-6,18q-3.57,10.65,4.77,15.3a17.09,17.09,0,0,0,3.29,1.43,10.52,10.52,0,0,0,2.8.55l1.8-5.36a13.48,13.48,0,0,1-4.57-1.57,5.07,5.07,0,0,1-2.37-2.79,6.67,6.67,0,0,1,.21-4.39l6-17.9,7.87,4.4,1.81-5.38-7.87-4.4L3952,1477"/><path class="cls-34" d="M3987.21,1505.53l-5.89-3.3-5.59,16.67c-1.41,4.19-3,6.84-4.74,8s-3.87,1-6.34-.36a6.6,6.6,0,0,1-3.42-4.2,11.94,11.94,0,0,1,.63-6.49l6.92-20.62-5.91-3.31-7.34,21.86q-2.06,6.13-.6,10.54t6.48,7.22a10.94,10.94,0,0,0,5.6,1.55,7.47,7.47,0,0,0,4.71-1.71l.3.17-.65,4.85L3976,1539l11.22-33.44"/><path class="cls-34" d="M4009.78,1517.44a7.73,7.73,0,0,0-5.35-.9,10.13,10.13,0,0,0-5.17,2.73l-.3-.16,1.2-6.33-4.59-2.57-11.21,33.44,5.86,3.28,5.86-17.47q1.49-4.44,4.62-6a6.75,6.75,0,0,1,6.62.41,12.37,12.37,0,0,1,2.48,1.82l2.8-6.31a15.72,15.72,0,0,0-2.82-1.93"/><path class="cls-34" d="M4017.69,1538.25c1.13-2.63,2.5-4.34,4.11-5.15a5.31,5.31,0,0,1,5.2.37,7.51,7.51,0,0,1,3.67,4.59,12.32,12.32,0,0,1-.45,7.2l-12.53-7m11.12-10.16c-3.94-2.2-7.54-2.36-10.84-.5s-5.86,5.54-7.69,11-2,10.18-.57,14.57a17.52,17.52,0,0,0,8.55,10.18,26.78,26.78,0,0,0,5.18,2.3,16,16,0,0,0,4.94.68l1.94-5.78a19.67,19.67,0,0,1-9.91-2.66,10,10,0,0,1-4.89-5.84,14.82,14.82,0,0,1,.34-8.71l18.4,10.3,1.29-3.84a20.47,20.47,0,0,0,.55-12.84,15.05,15.05,0,0,0-7.29-8.85"/><path class="cls-38" d="M4268.66,1661.93a2.71,2.71,0,0,0-2.51-.12l-22.52,10.42-11.87-28.56a3.9,3.9,0,0,0-1.67-2,2.7,2.7,0,0,0-2.77,0,4.39,4.39,0,0,0-1.37,5.4l13.27,32a3.9,3.9,0,0,0,1.67,2,2.71,2.71,0,0,0,2.52.13l25.3-11.73c1.67-.77,2.45-3.11,1.74-5.21a4,4,0,0,0-1.79-2.28"/><polyline class="cls-10" points="3884.68 1735.16 3872.68 1728.45 3865.65 1749.42 3813.68 1904.37 3806.64 1925.35 3818.63 1932.06 3825.67 1911.08 3877.64 1756.14 3884.68 1735.16"/><path class="cls-34" d="M3605.56,1655.64a28.32,28.32,0,0,0-11.34-3.67,30.93,30.93,0,0,0-12.79,1.91l2.77,11.18a28.21,28.21,0,0,1,9.8-1.47,17.71,17.71,0,0,1,7.56,2.3,12.81,12.81,0,0,1,6.11,6.95,14.44,14.44,0,0,1-.17,9.61,20.69,20.69,0,0,1-3.45,6.45,26.16,26.16,0,0,1-5.8,5.11,128,128,0,0,1-13.81,7.33l-22.93,10.72-3.12,9.3,42.79,24,3.63-10.82-30-16.77.18-.53,15.28-6.73a101.72,101.72,0,0,0,15-7.45,34.42,34.42,0,0,0,7.92-7,28.06,28.06,0,0,0,4.83-9,25.21,25.21,0,0,0-.28-18,26.73,26.73,0,0,0-12.26-13.47"/><path class="cls-34" d="M3672.22,1694.24l-32.82-18.36-15,36,3.45,5.78a55.73,55.73,0,0,1,5.6,1.79,37.53,37.53,0,0,1,5.18,2.32q14.43,8.06,9.83,21.77-2.4,7.15-7.24,8.87t-11.69-2.14a40.84,40.84,0,0,1-8-6,39.72,39.72,0,0,1-6.79-8.2l-3.74,11.14q4.66,7.52,15.24,13.43,11.67,6.53,20.3,3.19t12.74-15.58q3.54-10.56,0-19.8t-13.06-14.57a35.21,35.21,0,0,0-5.48-2.58c-1.54-.52-2.86-1-3.94-1.32l7.78-18.14,23.88,13.37,3.67-10.94"/><path class="cls-34" d="M3714.53,1747.92a9.72,9.72,0,0,1-4.48-5.73,11.91,11.91,0,0,1-.07-7.62,8.48,8.48,0,0,1,4.47-5.33,6.52,6.52,0,0,1,6.26.27,9.85,9.85,0,0,1,4.46,5.66,12,12,0,0,1,0,7.91,8.35,8.35,0,0,1-4.35,5.17,6.58,6.58,0,0,1-6.31-.33m8.84-26.36a12.13,12.13,0,0,0-11.81-.55q-5.82,2.81-8.18,9.86a22.84,22.84,0,0,0,2.11,18.85,17.46,17.46,0,0,0,6.34,6.25,12.37,12.37,0,0,0,11.68.67q5.8-2.62,8.24-9.89a22.42,22.42,0,0,0,0-14.54,18.17,18.17,0,0,0-8.39-10.65"/><path class="cls-34" d="M3777.62,1751.91q-9.2-5.15-17.62-4.2t-15,7.87q-6.6,6.92-10.6,18.85-6.35,18.91-2.34,33.26t17.88,22.08a45.36,45.36,0,0,0,18,6l3.6-10.72a81.06,81.06,0,0,1-8.65-1.9,36.36,36.36,0,0,1-8.1-3.37,23.22,23.22,0,0,1-11.76-15.17q-2.49-9.95,2.24-24,4.5-13.44,12.16-18.23t16.56.19a28.54,28.54,0,0,1,7,5.58,76,76,0,0,1,5.68,7l7.2-8.35a48.11,48.11,0,0,0-16.23-14.91"/><path class="cls-34" d="M3919.09,1831.06q-11.49-6.43-22.77-3.54l2.08,11.36a28,28,0,0,1,9.47-.39,22.34,22.34,0,0,1,7.32,2.63q5.14,2.88,6.88,7a12.43,12.43,0,0,1,.09,9.06q-4.24,12.65-19.35,4.2l-5.58-3.12-3.35,10,5.49,3.07q8.6,4.82,11.64,9.93a13,13,0,0,1,1,11.25q-2.31,6.9-7.05,8.16t-12.07-2.84a41.51,41.51,0,0,1-8.2-6.14,52.24,52.24,0,0,1-7.27-8.47l-3.66,10.92a48.84,48.84,0,0,0,16.32,14q11.88,6.64,20.32,4.27t12.14-13.43a21.94,21.94,0,0,0,.29-14.29q-2.28-6.69-9.48-12.1l.14-.42q6.9,1.88,12-1t7.55-10.16a21.82,21.82,0,0,0-.75-16.7q-3.71-8-13.23-13.3"/><path class="cls-34" d="M3969.57,1859.31q-11.49-6.43-22.76-3.54l2.08,11.35a28.23,28.23,0,0,1,9.47-.38,22.34,22.34,0,0,1,7.32,2.63c3.43,1.91,5.72,4.26,6.88,7a12.49,12.49,0,0,1,.09,9.06q-4.24,12.65-19.36,4.2l-5.57-3.12-3.35,10,5.49,3.07q8.58,4.8,11.64,9.93a13,13,0,0,1,1,11.25c-1.54,4.59-3.89,7.32-7.05,8.16s-7.18-.1-12.08-2.84a41.81,41.81,0,0,1-8.2-6.14,52.68,52.68,0,0,1-7.26-8.47l-3.66,10.92a48.74,48.74,0,0,0,16.32,14q11.86,6.64,20.32,4.27t12.14-13.44a21.91,21.91,0,0,0,.29-14.28q-2.28-6.69-9.49-12.11l.14-.41q6.92,1.88,12-1c3.42-1.92,5.93-5.3,7.56-10.15a21.86,21.86,0,0,0-.76-16.7q-3.69-8-13.23-13.3"/><path class="cls-34" d="M3987,1944c-2.07-1.15-3.88-1.36-5.43-.61s-2.75,2.4-3.61,4.94a11.1,11.1,0,0,0-.34,6.83,8.11,8.11,0,0,0,4,4.8c2.07,1.16,3.91,1.32,5.5.49s2.81-2.47,3.64-4.94a10.87,10.87,0,0,0,.3-6.7A8.26,8.26,0,0,0,3987,1944"/><path class="cls-34" d="M4022.33,1971a17,17,0,0,1-7.55-7.79,13.56,13.56,0,0,1-.31-10.21,12.2,12.2,0,0,1,5.3-6.94c2.48-1.5,6-2.18,10.44-2.09l1,1.39a39.61,39.61,0,0,1,6.46,11.32,14.56,14.56,0,0,1,.25,9.33q-1.78,5.34-5.92,6.73c-2.75.92-6,.33-9.7-1.74m12.59-36.93a47.74,47.74,0,0,1-4.72-7.65,17,17,0,0,1-1.46-5.44,13.4,13.4,0,0,1,.68-5.39c1-3,2.66-4.83,5-5.57s4.94-.31,7.82,1.3a13.92,13.92,0,0,1,6.2,6.55,11.48,11.48,0,0,1,.29,8.52,10.42,10.42,0,0,1-4.54,5.94c-2.1,1.25-5.2,1.83-9.27,1.74m10.58-32.16q-8.67-4.86-15.74-2.94t-9.84,10.25a25,25,0,0,0-1.05,11.83,38.22,38.22,0,0,0,5.28,13.45q-8.07.21-12.73,3.65a19.47,19.47,0,0,0-6.81,9.83q-3.29,9.78.58,18.27t14.15,14.26q9.81,5.48,17.46,3t10.83-12a23.62,23.62,0,0,0,.58-12.84q-1.46-6.72-7.38-15.37,14-.43,18-12.19a21.7,21.7,0,0,0-.74-16.29q-3.57-7.92-12.54-12.95"/><path class="cls-34" d="M4103.85,1965.75a9.75,9.75,0,0,1-4.49-5.74,11.88,11.88,0,0,1,0-7.61,8.47,8.47,0,0,1,4.45-5.34,6.54,6.54,0,0,1,6.27.28,9.89,9.89,0,0,1,4.46,5.66,12,12,0,0,1,0,7.9,8.3,8.3,0,0,1-4.34,5.18,6.58,6.58,0,0,1-6.31-.33m8.85-26.36a12.17,12.17,0,0,0-11.83-.56q-5.8,2.82-8.18,9.87a22.26,22.26,0,0,0-1,9.69,21.92,21.92,0,0,0,3.1,9.16,17.41,17.41,0,0,0,6.35,6.25,12.35,12.35,0,0,0,11.67.67q5.81-2.62,8.24-9.9a22.36,22.36,0,0,0,0-14.54,18.15,18.15,0,0,0-8.37-10.64"/><polyline class="cls-34" points="4175.25 1975.69 4139.62 1955.76 4113.97 2032.22 4124.2 2037.94 4134.73 2006.57 4158.53 2019.88 4162.09 2009.26 4138.29 1995.95 4146.31 1972.05 4171.7 1986.26 4175.25 1975.69"/><path class="cls-34" d="M3682.85,2079.46q-5.4-3-9.27-.05t-6.58,11q-5.68,16.9,4.64,22.67t15.87-11.19q5.61-16.72-4.66-22.47m132.48,73.39c-2.72-1.52-5.25-1.69-7.59-.53s-4.34,3.67-6,7.5l18.29,10.23c1.31-4.06,1.53-7.55.67-10.5a10.92,10.92,0,0,0-5.37-6.7m-53.37,9.29.3.17a79.19,79.19,0,0,1,6.42-10.13l17.72-23.79,9.11,5.09-31.75,40.2-9.26-5.18,1.07-57.37,9,5.06-1.32,33a73.59,73.59,0,0,1-1.33,13m-93.31-40.62a23.88,23.88,0,0,1-9-8.67,27.14,27.14,0,0,1-3.7-12.61,39.32,39.32,0,0,1,2.18-14.73q4-11.87,11.24-15.72t16.41,1.27a23.62,23.62,0,0,1,11.56,14.57q2.81,9.67-1.06,21.23-4,12-11.33,15.84t-16.35-1.18m51.43-22.65.44.24a10.79,10.79,0,0,1,7-2.47,16.25,16.25,0,0,1,8.07,2.25q14.49,8.12,8.5,26l-10.67,31.82-8.6-4.82,10.06-30c1.26-3.76,1.59-6.92,1-9.48a9.6,9.6,0,0,0-5-6.12q-5.43-3-9.25-.55t-6.88,11.61l-8.16,24.31-8.56-4.79,16.37-48.8,6.7,3.74-.94,7.07m82.48,97.57a25.58,25.58,0,0,1-12.47-14.87q-3.06-9.6.83-21.25,4-12,11.23-16.05t15.82.72a21.94,21.94,0,0,1,10.63,12.93q2.66,8.45-.79,18.74l-1.88,5.6-26.85-15c-1.47,4.8-1.63,9-.5,12.69a14.51,14.51,0,0,0,7.14,8.53,28.19,28.19,0,0,0,14.45,3.89l-2.82,8.44a23.71,23.71,0,0,1-7.21-1,39,39,0,0,1-7.58-3.35m47-22.49.44.25a15,15,0,0,1,7.55-4,11.29,11.29,0,0,1,7.81,1.32,22.23,22.23,0,0,1,4.1,2.82l-4.08,9.2a18.21,18.21,0,0,0-3.6-2.64q-5.15-2.88-9.7-.61c-3,1.52-5.27,4.44-6.72,8.76l-8.55,25.51-8.57-4.79,16.37-48.81,6.71,3.76-1.76,9.23m19.9,10.24,1.54-4.59,7.17-.49,6.38-8.7,5.28,3-3.64,10.86,11.48,6.42-2.63,7.85-11.48-6.42-8.77,26.13a9.67,9.67,0,0,0-.3,6.4,7.36,7.36,0,0,0,3.45,4.06,19.92,19.92,0,0,0,6.67,2.32l-2.61,7.81a15.53,15.53,0,0,1-4.09-.79,25.13,25.13,0,0,1-4.81-2.09q-12.18-6.81-7-22.34l8.82-26.31-5.5-3.08m-242.19-85.82q-11.7-6.54-15.09-18.63t2-28.07q3.38-10.07,8.94-15.9a20.49,20.49,0,0,1,12.68-6.65c4.73-.52,9.7.66,14.87,3.56a40.51,40.51,0,0,1,13.69,12.59l-6.08,7a62.86,62.86,0,0,0-4.79-5.91,23.86,23.86,0,0,0-5.92-4.71q-7.52-4.2-14-.16t-10.27,15.38q-4,11.88-1.89,20.28a19.63,19.63,0,0,0,9.94,12.79,31.1,31.1,0,0,0,6.82,2.85,69.41,69.41,0,0,0,7.3,1.59l-3,9.05a38.08,38.08,0,0,1-15.17-5.09m348.1,67.08L3600.9,1955.92c-35.32-19.77-75.6-1.11-90,41.68s2.65,93.5,38,113.26l374.49,209.53c35.32,19.77,75.6,1.11,89.95-41.67s-2.65-93.51-38-113.27"/><path class="cls-5" d="M3650.67,2032.68c-5.17-2.9-10.14-4.08-14.87-3.56a20.49,20.49,0,0,0-12.68,6.65q-5.58,5.85-8.94,15.9-5.37,16-2,28.07t15.09,18.63a38.08,38.08,0,0,0,15.17,5.09l3-9.05a69.41,69.41,0,0,1-7.3-1.59,31.1,31.1,0,0,1-6.82-2.85,19.63,19.63,0,0,1-9.94-12.79q-2.08-8.41,1.89-20.28,3.81-11.34,10.27-15.38t14,.16a23.86,23.86,0,0,1,5.92,4.71,62.86,62.86,0,0,1,4.79,5.91l6.08-7a40.51,40.51,0,0,0-13.69-12.59"/><path class="cls-5" d="M3671.64,2113.12q-10.32-5.76-4.64-22.67,2.7-8.07,6.58-11t9.27.05q10.28,5.74,4.66,22.47-5.67,16.91-15.87,11.19m14.19-42.06q-9.15-5.11-16.41-1.27t-11.24,15.72a39.32,39.32,0,0,0-2.18,14.73,27.14,27.14,0,0,0,3.7,12.61,23.88,23.88,0,0,0,9,8.67q9,5.05,16.35,1.18t11.33-15.84q3.87-11.55,1.06-21.23a23.62,23.62,0,0,0-11.56-14.57"/><path class="cls-5" d="M3735.58,2098.89a16.25,16.25,0,0,0-8.07-2.25,10.79,10.79,0,0,0-7,2.47l-.44-.24.94-7.07-6.7-3.74-16.37,48.8,8.56,4.79,8.16-24.31q3.06-9.14,6.88-11.61t9.25.55a9.6,9.6,0,0,1,5,6.12c.64,2.56.31,5.72-1,9.48l-10.06,30,8.6,4.82,10.67-31.82q6-17.88-8.5-26"/><path class="cls-5" d="M3795.51,2133.48l-9.11-5.09-17.72,23.79a79.19,79.19,0,0,0-6.42,10.13l-.3-.17a73.59,73.59,0,0,0,1.33-13l1.32-33-9-5.06-1.07,57.37,9.26,5.18,31.75-40.2"/><path class="cls-5" d="M3801.74,2159.82q2.49-5.75,6-7.5c2.34-1.16,4.87-1,7.59.53a10.92,10.92,0,0,1,5.37,6.7c.86,2.95.64,6.44-.67,10.5l-18.29-10.23M3818,2145q-8.61-4.81-15.82-.72t-11.23,16.05q-3.9,11.64-.83,21.25a25.58,25.58,0,0,0,12.47,14.87,39,39,0,0,0,7.58,3.35,23.71,23.71,0,0,0,7.21,1l2.82-8.44a28.19,28.19,0,0,1-14.45-3.89,14.51,14.51,0,0,1-7.14-8.53c-1.13-3.65-1-7.89.5-12.69l26.85,15,1.88-5.6q3.45-10.27.79-18.74A21.94,21.94,0,0,0,3818,2145"/><path class="cls-5" d="M3865.38,2171.52a11.29,11.29,0,0,0-7.81-1.32,15,15,0,0,0-7.55,4l-.44-.25,1.76-9.23-6.71-3.76-16.37,48.81,8.57,4.79,8.55-25.51c1.45-4.32,3.7-7.24,6.72-8.76s6.27-1.31,9.7.61a18.21,18.21,0,0,1,3.6,2.64l4.08-9.2a22.23,22.23,0,0,0-4.1-2.82"/><path class="cls-5" d="M3889.85,2173.37l-5.28-3-6.38,8.7-7.17.49-1.54,4.59,5.5,3.08-8.82,26.31q-5.22,15.52,7,22.34a25.13,25.13,0,0,0,4.81,2.09,15.53,15.53,0,0,0,4.09.79l2.61-7.81a19.92,19.92,0,0,1-6.67-2.32,7.36,7.36,0,0,1-3.45-4.06,9.67,9.67,0,0,1,.3-6.4l8.77-26.13,11.48,6.42,2.63-7.85-11.48-6.42,3.64-10.86"/></g></g><path class="cls-10" d="M3484.68,1245.17l-63.11,198.13c-20.18,63.37-93.66,92-151.38,58.93l-341.6-195.57a104.41,104.41,0,0,1-47.66-122.16l62.55-197.43c20.08-63.37,93.47-92.1,151.23-59.2l342.15,194.87A104.43,104.43,0,0,1,3484.68,1245.17Z"/><path class="cls-10" d="M3349.62,1681.62l-63.11,198.13c-20.19,63.37-93.67,92-151.38,58.93l-341.6-195.57A104.43,104.43,0,0,1,2745.86,1621l62.56-197.43c20.07-63.37,93.46-92.1,151.22-59.2l342.16,194.87A104.44,104.44,0,0,1,3349.62,1681.62Z"/><g class="cls-2"><g class="cls-39"><path class="cls-5" d="M3296.34,1177l-296.21-164.2c-7.12-3.94-15.21-.25-18.09,8.25s.57,18.58,7.68,22.52l296.22,164.2c7.11,3.94,15.21.25,18.08-8.25s-.56-18.58-7.68-22.52"/></g></g><g class="cls-2"><g class="cls-40"><path class="cls-5" d="M3275.37,1252.38l-296.22-164.2c-7.11-3.94-15.2-.25-18.08,8.25s.57,18.58,7.68,22.52L3265,1283.15c7.11,3.94,15.21.25,18.08-8.25s-.56-18.58-7.68-22.52"/></g></g><g class="cls-2"><g class="cls-41"><path class="cls-5" d="M3252.14,1329.46l-296.22-164.19c-7.12-4-15.21-.25-18.08,8.24s.56,18.58,7.67,22.52l296.22,164.2c7.11,3.94,15.21.25,18.08-8.24s-.56-18.58-7.67-22.53"/></g></g><g class="cls-2"><g class="cls-42"><path class="cls-5" d="M3113.29,1743.64l-290.72-173.76c-7-4.17-15.19-.75-18.34,7.65s0,18.59,6.94,22.76l290.72,173.76c7,4.17,15.19.74,18.34-7.65s0-18.59-6.94-22.76"/></g></g><g class="cls-2"><g class="cls-43"><path class="cls-5" d="M3089.14,1815.63l-292.64-170.5c-7-4.1-15.2-.58-18.25,7.85s.17,18.59,7.19,22.68l292.64,170.5c7,4.1,15.2.58,18.25-7.85s-.16-18.59-7.19-22.68"/></g></g></g></g></g></svg>