<svg id="Layer_1" data-name="Layer 1" xmlns="http://www.w3.org/2000/svg" xmlns:xlink="http://www.w3.org/1999/xlink" viewBox="0 0 4500 2500"><defs><style>.cls-1{fill:none;}.cls-2{fill:#aed3f0;}.cls-3{fill:#c3dcf3;}.cls-10,.cls-11,.cls-12,.cls-13,.cls-14,.cls-15,.cls-16,.cls-17,.cls-18,.cls-19,.cls-20,.cls-21,.cls-22,.cls-23,.cls-24,.cls-25,.cls-26,.cls-27,.cls-28,.cls-29,.cls-3,.cls-30,.cls-31,.cls-32,.cls-33,.cls-34,.cls-36,.cls-37,.cls-38,.cls-39,.cls-41,.cls-42,.cls-44,.cls-45,.cls-46,.cls-48,.cls-49,.cls-50,.cls-51,.cls-52,.cls-53,.cls-56,.cls-57,.cls-58,.cls-59,.cls-60,.cls-63,.cls-66,.cls-67,.cls-68,.cls-69,.cls-7,.cls-70,.cls-71,.cls-72,.cls-73,.cls-74,.cls-75,.cls-79,.cls-8,.cls-80,.cls-81,.cls-82,.cls-83,.cls-84,.cls-85,.cls-86,.cls-87,.cls-88,.cls-89,.cls-9{fill-rule:evenodd;}.cls-4{clip-path:url(#clip-path);}.cls-41,.cls-5,.cls-56,.cls-6{fill:#fff;}.cls-5{fill-opacity:0.45;}.cls-6{fill-opacity:0.55;}.cls-7{fill-opacity:0.14;}.cls-8{fill:#5b84a7;}.cls-9{fill:url(#linear-gradient);}.cls-10{fill:url(#linear-gradient-2);}.cls-11{fill:url(#linear-gradient-3);}.cls-12{fill:url(#linear-gradient-4);}.cls-13{fill:url(#linear-gradient-5);}.cls-14{fill:url(#linear-gradient-6);}.cls-15{fill:url(#linear-gradient-7);}.cls-16,.cls-77{fill:#ffab65;}.cls-17{fill:#e7347a;}.cls-18{fill:#ec6198;}.cls-19{fill:url(#linear-gradient-8);}.cls-20{fill:url(#linear-gradient-9);}.cls-21{fill:url(#linear-gradient-10);}.cls-22{fill:url(#linear-gradient-11);}.cls-23{fill:url(#linear-gradient-12);}.cls-24{fill:url(#linear-gradient-13);}.cls-25{fill:url(#linear-gradient-14);}.cls-26{fill:url(#linear-gradient-15);}.cls-27,.cls-76{fill:#ffc787;}.cls-28,.cls-35{fill:#14304a;}.cls-29{fill:#060d15;}.cls-30{fill:url(#linear-gradient-16);}.cls-31{fill:url(#linear-gradient-17);}.cls-32{fill:url(#linear-gradient-18);}.cls-33{fill:url(#linear-gradient-19);}.cls-34{fill:url(#linear-gradient-20);}.cls-36{fill:#cfab1b;}.cls-37{fill:#ebd063;}.cls-38{fill:url(#linear-gradient-21);}.cls-39,.cls-40,.cls-42,.cls-43{fill:#fdeef4;}.cls-39,.cls-40{fill-opacity:0.41;}.cls-44{fill:#2d7369;}.cls-45{fill:#44ae9e;}.cls-46{fill:url(#linear-gradient-22);}.cls-47,.cls-48{fill:#2f796e;}.cls-49{fill:#63c2b4;}.cls-50{fill:url(#linear-gradient-23);}.cls-51{fill:#4067b1;}.cls-52{fill:url(#linear-gradient-24);}.cls-53{fill:url(#linear-gradient-25);}.cls-54{fill:url(#linear-gradient-26);}.cls-55{fill:url(#linear-gradient-27);}.cls-56{fill-opacity:0.2;}.cls-57{fill:url(#linear-gradient-28);}.cls-58{fill:#33528c;}.cls-59{fill:url(#linear-gradient-29);}.cls-60{fill:url(#linear-gradient-30);}.cls-61{fill:url(#linear-gradient-31);}.cls-62{fill:url(#linear-gradient-32);}.cls-63{fill:url(#linear-gradient-33);}.cls-64{isolation:isolate;font-size:94.19px;fill:#132f4a;font-family:Arial-BoldMT, Arial;font-weight:700;}.cls-65{letter-spacing:-0.06em;}.cls-66{fill:url(#linear-gradient-34);}.cls-67{fill:url(#linear-gradient-35);}.cls-68{fill:url(#linear-gradient-36);}.cls-69{fill:url(#linear-gradient-37);}.cls-70{fill:url(#linear-gradient-38);}.cls-71{fill:url(#linear-gradient-39);}.cls-72{fill:url(#linear-gradient-40);}.cls-73{fill:url(#linear-gradient-41);}.cls-74{fill:#317e73;}.cls-75{fill:url(#linear-gradient-42);}.cls-78{fill:url(#linear-gradient-43);}.cls-79{fill:url(#linear-gradient-44);}.cls-80{fill:url(#linear-gradient-45);}.cls-81{fill:url(#linear-gradient-46);}.cls-82{fill:url(#linear-gradient-47);}.cls-83{fill:url(#linear-gradient-48);}.cls-84{fill:url(#linear-gradient-49);}.cls-85{fill:url(#linear-gradient-50);}.cls-86{fill:url(#linear-gradient-51);}.cls-87{fill:url(#linear-gradient-52);}.cls-88{fill:url(#linear-gradient-53);}.cls-89{fill:url(#linear-gradient-54);}</style><clipPath id="clip-path"><rect class="cls-1" width="4500" height="2500"/></clipPath><linearGradient id="linear-gradient" x1="1287.88" y1="1788.45" x2="1289.07" y2="1788.45" gradientTransform="matrix(516.83, -84.08, 84.08, 516.83, -814696.03, -813265.27)" gradientUnits="userSpaceOnUse"><stop offset="0" stop-opacity="0"/><stop offset="1"/></linearGradient><linearGradient id="linear-gradient-2" x1="1285.71" y1="1787.42" x2="1286.89" y2="1787.42" gradientTransform="matrix(276.93, -6.58, 6.58, 276.93, -366504.78, -483798.54)" gradientUnits="userSpaceOnUse"><stop offset="0" stop-opacity="0.07"/><stop offset="1" stop-opacity="0.07"/></linearGradient><linearGradient id="linear-gradient-3" x1="1289.76" y1="1782.64" x2="1290.95" y2="1782.64" gradientTransform="matrix(80.54, -157.5, 157.5, 80.54, -383291.99, 61921.62)" xlink:href="#linear-gradient"/><linearGradient id="linear-gradient-4" x1="1288.09" y1="1788.64" x2="1289.27" y2="1788.64" gradientTransform="matrix(618.7, 29.57, -29.57, 618.7, -742459.52, -1142018.77)" xlink:href="#linear-gradient"/><linearGradient id="linear-gradient-5" x1="1286.91" y1="1785.04" x2="1288.09" y2="1784.76" gradientTransform="matrix(383.56, -2.73, 9.11, 115.01, -508422.02, -199042.08)" xlink:href="#linear-gradient-2"/><linearGradient id="linear-gradient-6" x1="1287.32" y1="1788.8" x2="1288.5" y2="1788.8" gradientTransform="matrix(448.53, 21.44, -21.44, 448.53, -537618.84, -827242.8)" gradientUnits="userSpaceOnUse"><stop offset="0" stop-opacity="0.1"/><stop offset="1" stop-opacity="0.1"/></linearGradient><linearGradient id="linear-gradient-7" x1="1295.84" y1="1781.6" x2="1297.03" y2="1781.6" gradientTransform="matrix(-18.56, -123.99, 123.99, -18.56, -195154.58, 196061.06)" xlink:href="#linear-gradient"/><linearGradient id="linear-gradient-8" x1="1289.42" y1="1792.22" x2="1290.61" y2="1792.22" gradientTransform="matrix(443, -413.63, -413.63, -443, 171692.72, 1328596.19)" gradientUnits="userSpaceOnUse"><stop offset="0" stop-color="#fff" stop-opacity="0"/><stop offset="1" stop-color="#fff"/></linearGradient><linearGradient id="linear-gradient-9" x1="1289.22" y1="1790" x2="1290.4" y2="1790" gradientTransform="matrix(1651.22, 571.84, 571.84, -1651.22, -3151115.3, 2220071.31)" xlink:href="#linear-gradient"/><linearGradient id="linear-gradient-10" x1="1289.1" y1="1790.59" x2="1290.29" y2="1790.59" gradientTransform="matrix(1268.8, -70.75, -70.75, -1268.8, -1507452.52, 2364918.96)" xlink:href="#linear-gradient"/><linearGradient id="linear-gradient-11" x1="1288.42" y1="1788.79" x2="1289.61" y2="1788.79" gradientTransform="matrix(288.87, 615.79, 615.79, -288.87, -1472339.53, -274692.36)" xlink:href="#linear-gradient"/><linearGradient id="linear-gradient-12" x1="1289.07" y1="1795.02" x2="1290.25" y2="1794.76" gradientTransform="matrix(-120.47, 179.66, -256.81, -84.28, 617779.44, -78108.09)" xlink:href="#linear-gradient"/><linearGradient id="linear-gradient-13" x1="1288.12" y1="1789.57" x2="1289.3" y2="1789.57" gradientTransform="matrix(552.27, 436.92, 436.92, -552.27, -1491874.97, 427428.33)" xlink:href="#linear-gradient"/><linearGradient id="linear-gradient-14" x1="1287.8" y1="1790.17" x2="1288.99" y2="1789.62" gradientTransform="matrix(582.43, 289.7, 460.78, -366.18, -1573561.2, 283935.93)" xlink:href="#linear-gradient"/><linearGradient id="linear-gradient-15" x1="1288.98" y1="1789.14" x2="1290.17" y2="1790.04" gradientTransform="matrix(689.53, 3587.63, 545.51, -4534.78, -1863255.08, 3490536.18)" xlink:href="#linear-gradient"/><linearGradient id="linear-gradient-16" x1="1287.15" y1="1793.94" x2="1288.33" y2="1792.99" gradientTransform="matrix(171.09, -564.89, -159.74, -605, 68233.91, 1813858.48)" xlink:href="#linear-gradient-8"/><linearGradient id="linear-gradient-17" x1="1290.65" y1="1792.88" x2="1291.83" y2="1793.89" gradientTransform="matrix(548.27, -167.63, -511.92, -179.53, 211633.4, 540186.23)" xlink:href="#linear-gradient-8"/><linearGradient id="linear-gradient-18" x1="1293.03" y1="1796.37" x2="1294.21" y2="1797.56" gradientTransform="matrix(387.8, -62.29, -362.09, -66.72, 150443.92, 202443.21)" xlink:href="#linear-gradient-8"/><linearGradient id="linear-gradient-19" x1="1287.72" y1="1794.07" x2="1288.9" y2="1793.59" gradientTransform="matrix(199.31, -290.68, -186.1, -311.32, 78477.1, 935024.09)" xlink:href="#linear-gradient-8"/><linearGradient id="linear-gradient-20" x1="1290.29" y1="1788.6" x2="1291.47" y2="1788.6" gradientTransform="matrix(-639.26, 641.15, 641.15, 639.26, -319977.43, -1969347.69)" xlink:href="#linear-gradient"/><linearGradient id="linear-gradient-21" x1="1289.33" y1="1788.99" x2="1290.52" y2="1789.2" gradientTransform="matrix(-343.37, 731.25, 1417.88, 177.09, -2093342.21, -1257948.61)" xlink:href="#linear-gradient-8"/><linearGradient id="linear-gradient-22" x1="1290.56" y1="1791.2" x2="1291.75" y2="1791.2" gradientTransform="matrix(44.26, -1159, -1159, -44.26, 2019440.03, 1576503.94)" xlink:href="#linear-gradient-8"/><linearGradient id="linear-gradient-23" x1="1290.45" y1="1789.26" x2="1291.64" y2="1789.26" gradientTransform="translate(-2270182.95 1174783.15) rotate(-81.49) scale(1159.84)" xlink:href="#linear-gradient-8"/><linearGradient id="linear-gradient-24" x1="1290.56" y1="1788.98" x2="1291.74" y2="1788.98" gradientTransform="matrix(-1009.1, 593.73, 593.73, 1009.1, 241039.14, -2570972.81)" xlink:href="#linear-gradient"/><linearGradient id="linear-gradient-25" x1="1289.59" y1="1792.33" x2="1290.77" y2="1792.33" gradientTransform="matrix(460.78, -484.52, -484.52, -460.78, 275002.97, 1451307.7)" xlink:href="#linear-gradient-8"/><linearGradient id="linear-gradient-26" x1="1293.42" y1="1793.41" x2="1294.6" y2="1793.41" gradientTransform="matrix(218.36, -231.56, -231.56, -218.36, 133751.61, 691619.09)" xlink:href="#linear-gradient-8"/><linearGradient id="linear-gradient-27" x1="1295.68" y1="1792.16" x2="1296.86" y2="1793.25" gradientTransform="matrix(-61.01, -436.53, -56.06, 461.28, 180518.64, -260588.08)" xlink:href="#linear-gradient-8"/><linearGradient id="linear-gradient-28" x1="1288.34" y1="1787.08" x2="1289.53" y2="1787.08" gradientTransform="matrix(-34.79, 435.89, 435.89, 34.79, -733312.02, -623080.75)" xlink:href="#linear-gradient"/><linearGradient id="linear-gradient-29" x1="1289.02" y1="1790.08" x2="1290.2" y2="1790.08" gradientTransform="translate(267479.33 -2568497.07) rotate(41.61) scale(1170.81)" xlink:href="#linear-gradient"/><linearGradient id="linear-gradient-30" x1="1291.66" y1="1789.73" x2="1292.84" y2="1789.73" gradientTransform="translate(-543202.85 1371384.62) rotate(-122.42) scale(668.64)" xlink:href="#linear-gradient-8"/><linearGradient id="linear-gradient-31" x1="1291.41" y1="1786.72" x2="1292.59" y2="1786.72" gradientTransform="translate(-685409.25 -130781.68) rotate(-43.34) scale(318.28)" xlink:href="#linear-gradient-8"/><linearGradient id="linear-gradient-32" x1="1279.75" y1="1780.36" x2="1280.94" y2="1781.45" gradientTransform="matrix(436.52, 61.03, -461.28, 56.04, 266432.57, -177244.54)" xlink:href="#linear-gradient-8"/><linearGradient id="linear-gradient-33" x1="1288.39" y1="1792.16" x2="1289.57" y2="1792.16" gradientTransform="matrix(-50.11, 434.4, -434.4, -50.11, 847008.76, -469024.37)" xlink:href="#linear-gradient"/><linearGradient id="linear-gradient-34" x1="1291.81" y1="1788.16" x2="1292.99" y2="1788.16" gradientTransform="matrix(-428.56, 110.17, 110.17, 428.56, 359514.01, -905953.71)" xlink:href="#linear-gradient"/><linearGradient id="linear-gradient-35" x1="1291.92" y1="1789.11" x2="1293.1" y2="1789.11" gradientTransform="matrix(-522.37, -84.98, -84.98, 522.37, 829882.81, -822040.57)" xlink:href="#linear-gradient"/><linearGradient id="linear-gradient-36" x1="1293.43" y1="1787.61" x2="1294.61" y2="1787.61" gradientTransform="matrix(-279.9, -6.65, -6.65, 279.9, 376887.91, -489041.66)" xlink:href="#linear-gradient-2"/><linearGradient id="linear-gradient-37" x1="1295.26" y1="1793.41" x2="1296.45" y2="1793.41" gradientTransform="matrix(-81.4, -159.19, -159.19, 81.4, 393855.04, 62529.11)" xlink:href="#linear-gradient"/><linearGradient id="linear-gradient-38" x1="1291.54" y1="1788.48" x2="1292.72" y2="1788.48" gradientTransform="matrix(-625.33, 29.89, 29.89, 625.33, 756872.08, -1154318.61)" xlink:href="#linear-gradient"/><linearGradient id="linear-gradient-39" x1="1292.48" y1="1785.18" x2="1293.67" y2="1784.9" gradientTransform="matrix(-387.67, -2.76, -9.21, 116.25, 520326.2, -201232.35)" xlink:href="#linear-gradient-2"/><linearGradient id="linear-gradient-40" x1="1292.07" y1="1788.58" x2="1293.26" y2="1788.58" gradientTransform="matrix(-453.34, 21.67, 21.67, 453.34, 549835.95, -836167.95)" xlink:href="#linear-gradient-6"/><linearGradient id="linear-gradient-41" x1="1293.31" y1="1798.48" x2="1294.49" y2="1798.48" gradientTransform="matrix(18.76, -125.32, -125.32, -18.76, 203701.21, 198106.65)" xlink:href="#linear-gradient"/><linearGradient id="linear-gradient-42" x1="1289.39" y1="1791.36" x2="1290.57" y2="1791.36" gradientTransform="matrix(737.03, -412.85, -412.85, -737.03, -208063.65, 1853990.53)" xlink:href="#linear-gradient-8"/><linearGradient id="linear-gradient-43" x1="1284.42" y1="1773.55" x2="1285.6" y2="1773.55" gradientTransform="matrix(-24.73, 63.16, 63.16, 24.73, -76984.99, -123877.86)" gradientUnits="userSpaceOnUse"><stop offset="0" stop-color="#cc7973" stop-opacity="0"/><stop offset="1" stop-color="#cc7973"/></linearGradient><linearGradient id="linear-gradient-44" x1="1290.29" y1="1789.18" x2="1291.47" y2="1789.18" gradientTransform="matrix(-1048.33, 743.23, 743.23, 1048.33, 25824.77, -2833156.65)" xlink:href="#linear-gradient"/><linearGradient id="linear-gradient-45" x1="1292.57" y1="1795.4" x2="1293.75" y2="1795.4" gradientTransform="matrix(14.82, -197.51, -197.51, -14.82, 337943.99, 284127.3)" xlink:href="#linear-gradient"/><linearGradient id="linear-gradient-46" x1="1290.89" y1="1788.49" x2="1292.08" y2="1788.49" gradientTransform="matrix(-665.31, 291.5, 291.5, 665.31, 340088.89, -1564553.95)" xlink:href="#linear-gradient"/><linearGradient id="linear-gradient-47" x1="1289.5" y1="1787.63" x2="1290.69" y2="1787.63" gradientTransform="matrix(-171.13, 448.22, 448.22, 171.13, -577731.28, -881919.51)" xlink:href="#linear-gradient"/><linearGradient id="linear-gradient-48" x1="1289.48" y1="1787.7" x2="1290.67" y2="1787.71" gradientTransform="matrix(-176.32, 453.03, 461.81, 172.96, -595375.32, -891443.91)" xlink:href="#linear-gradient"/><linearGradient id="linear-gradient-49" x1="1285.3" y1="1786.13" x2="1286.49" y2="1786.55" gradientTransform="matrix(-184.77, 113.74, 483.94, 43.43, -624112.38, -222276.07)" xlink:href="#linear-gradient"/><linearGradient id="linear-gradient-50" x1="1288.12" y1="1792.33" x2="1289.3" y2="1791.87" gradientTransform="matrix(336.97, -373.51, -188.76, -666.79, -93539.51, 1677569.08)" xlink:href="#linear-gradient-8"/><linearGradient id="linear-gradient-51" x1="1289.42" y1="1791.8" x2="1290.6" y2="1792.28" gradientTransform="matrix(622.16, -233.37, -348.51, -416.62, -175022.55, 1049474.17)" xlink:href="#linear-gradient-8"/><linearGradient id="linear-gradient-52" x1="1289.04" y1="1791.53" x2="1290.22" y2="1791.35" gradientTransform="matrix(547.33, -378.83, -306.59, -676.29, -153474.1, 1702082.85)" xlink:href="#linear-gradient-8"/><linearGradient id="linear-gradient-53" x1="1288.09" y1="1788.77" x2="1289.27" y2="1788.77" gradientTransform="matrix(270.75, 524.17, 524.17, -270.75, -1284113.39, -189531.72)" xlink:href="#linear-gradient"/><linearGradient id="linear-gradient-54" x1="1283.58" y1="1782.22" x2="1284.76" y2="1783.61" gradientTransform="matrix(48.37, 269.36, 93.64, -139.13, -226566.48, -96445.78)" xlink:href="#linear-gradient"/></defs><g id="c37"><rect class="cls-2" width="4500" height="2500"/><path class="cls-3" d="M737.47,2500c115.68-123.66,214.38-267.71,363.48-354.23,147.42-85.53,318.13-101.85,485.57-108.57,577-23.21,2274.2,583.86,2913.48,247.8v215ZM4500,460.36c-89.49-70.33-197.13-118.25-324.36-135.28C3803.13,275.27,3423.87,465.15,3072.4,549c-727,173.39-1328.3,192.46-1952.15-256.93C1001,206.13,888.82,110.54,793.39,0H4500Z"/><rect class="cls-1" width="4500" height="2500"/><g class="cls-4"><rect class="cls-5" x="-275.07" y="1372" width="2682.9" height="17.5"/><rect class="cls-5" x="-275.07" y="1534.33" width="2682.9" height="17.5"/><rect class="cls-5" x="-275.07" y="1696.67" width="2682.9" height="17.5"/><rect class="cls-5" x="-275.07" y="1859" width="2682.9" height="17.5"/><rect class="cls-5" x="-275.07" y="2021.34" width="2682.9" height="17.5"/><rect class="cls-5" x="-275.07" y="2183.67" width="2682.9" height="17.5"/><rect class="cls-5" x="-275.07" y="2346.01" width="2682.9" height="17.5"/><rect class="cls-6" x="77.74" y="1194.03" width="14.89" height="1356.58"/><rect class="cls-6" x="252.89" y="1194.03" width="14.89" height="1356.58"/><rect class="cls-6" x="428.04" y="1194.03" width="14.89" height="1356.58"/><rect class="cls-6" x="603.19" y="1194.03" width="14.89" height="1356.58"/><rect class="cls-6" x="778.34" y="1194.03" width="14.89" height="1356.58"/><rect class="cls-6" x="953.49" y="1194.03" width="14.89" height="1356.58"/><rect class="cls-6" x="1128.64" y="1194.03" width="14.89" height="1356.58"/><rect class="cls-6" x="1303.79" y="1194.03" width="14.89" height="1356.58"/><rect class="cls-6" x="1478.93" y="1194.03" width="14.89" height="1356.58"/><rect class="cls-6" x="1654.08" y="1194.03" width="14.89" height="1356.58"/><rect class="cls-6" x="1829.23" y="1194.03" width="14.89" height="1356.58"/><rect class="cls-6" x="2004.39" y="1194.03" width="14.89" height="1356.58"/><rect class="cls-6" x="2179.53" y="1194.03" width="14.89" height="1356.58"/><rect class="cls-5" x="2185.44" y="1372" width="2682.9" height="17.5"/><rect class="cls-5" x="2185.44" y="1534.33" width="2682.9" height="17.5"/><rect class="cls-5" x="2185.44" y="1696.67" width="2682.9" height="17.5"/><rect class="cls-5" x="2185.44" y="1859" width="2682.9" height="17.5"/><rect class="cls-5" x="2185.44" y="2021.34" width="2682.9" height="17.5"/><rect class="cls-5" x="2185.44" y="2183.67" width="2682.9" height="17.5"/><rect class="cls-5" x="2185.44" y="2346.01" width="2682.9" height="17.5"/><rect class="cls-6" x="2363.11" y="1194.03" width="14.89" height="1356.58"/><rect class="cls-6" x="2538.26" y="1194.03" width="14.89" height="1356.58"/><rect class="cls-6" x="2713.41" y="1194.03" width="14.89" height="1356.58"/><rect class="cls-6" x="2888.56" y="1194.03" width="14.89" height="1356.58"/><rect class="cls-6" x="3063.71" y="1194.03" width="14.89" height="1356.58"/><rect class="cls-6" x="3238.85" y="1194.03" width="14.89" height="1356.58"/><rect class="cls-6" x="3414" y="1194.03" width="14.89" height="1356.58"/><rect class="cls-6" x="3589.15" y="1194.03" width="14.89" height="1356.58"/><rect class="cls-6" x="3764.3" y="1194.03" width="14.89" height="1356.58"/><rect class="cls-6" x="3939.45" y="1194.03" width="14.89" height="1356.58"/><rect class="cls-6" x="4114.59" y="1194.03" width="14.89" height="1356.58"/><rect class="cls-6" x="4289.74" y="1194.03" width="14.89" height="1356.58"/><rect class="cls-6" x="4464.9" y="1194.03" width="14.89" height="1356.58"/><path class="cls-7" d="M1642.06,632.87c21.69,85.92,145.19,114.37,158.47,225.49,13.4,112.08-134.68,174.18-52.49,322.21,53.2,95.81,279.67,48.75,314.75,212,8.88,41.3-25.94,328.23-56.35,351.43-21.6,16.47-108.89,48-117.75,67.27-22.49,48.93,3.77,166.62,8.26,218,10.43,119.56,101.21,704.72-24.89,744.43-159.26,50.15-264.94-245.68-307.46-351.45-119.81-298.07-228-1017.6-77.29-1305.29"/><path class="cls-7" d="M2666.35,579.29c-47.18-1.08-81.23,50.25-115.39,77.3-37.21,29.46-129.2,13.94-136.26,124.77-4,62.7,29.71,187.37,110.22,211.46,27.9,8.34,21.67,126.17,4.22,179.63-18.95,58.08-45.65,15.17-52.94,26.14-39.33,59.1-114.76,75-167.7,115.52-.12.1-100.37,258.91-102.8,270.68-14.6,71.09,31.78,109.85,55,174.47,5.94,16.52,14.32,31.43,21.47,47.35,4.67,10.41,7.59,21.36,13.95,31,.24.37,1.18,1.3.94.92-18.15-28.93-48.76-49.14-69.55-76.26-21.61-28.22-30.17-64.94-47.73-95.43-4.26-7.38-16.66-10.36-24.44-11.88-49.15-9.64-45.82,74.71-50.85,104-4.79,27.86-22.78,72.68-10.26,100.69,45.72,102.26,157.13,159.55,188.95,279.48,31.31,118-21.12,602.25,117.51,633.13,69.06,15.39,140-146.49,160.43-189.14,103.93-216.77,151.57-453.89,153.42-694.54,1.79-234.12-16-470-15.54-701.73"/><path class="cls-7" d="M3246.45,1319.74c50.34-31.19,41.64,132,38.54,154-13.94,99.52-69.85,667.24-260.85,602.48-26.35-8.94-42.71-26.27-54.14-51.63-26.32-58.37-117.06-563.72-91.28-593.12,9-10.29,25.82,8.13,31.81,12.66,49.25,37.21,176.45,145.44,240.85,112.07,56.59-29.33,50.38-207.68,81.16-264.7"/><path class="cls-8" d="M1290.73,3118.71c7,29.47,13.58,58.82,17.84,87.69,4.36,29.61,7.86,131.47,32.75,148.81,30.78,21.43,179.33,13.73,215.51,13.42,3.77,0,17.15,1.52,19.35-3.15,2.63-5.63-27.41-239.55-34.55-252.18-8.85-15.71-35.46-42.55-28.47-62.19,2.48-7,9.74-16.14,9.53-23.61-.22-7.95-10.22-14.24-10.88-21.84a267.86,267.86,0,0,1-.26-38.32l56.4-545.58-35.27-276.3s-268.63-236.91-272.81-85.24c-2.09,75.8-3.12,163.23-3.91,247.27-1.71,11.31-3.21,22.62-4.28,32.65-4.41,41.66,1.32,79.56,1.32,81.91,0,11.32-.23,22.43,0,33.74.54,35.65.18,70.84,0,106.45-.08,20.6,1.28,87.41-.45,107.9-1,12.24-4.75,48-3.42,61.05,5.07,50,3.26,99.11,1.73,149.72-.34,11.11,2.63,23.61.79,34.62-1.33,7.89-5.79,15.92-6.63,23.38-1.8,15.72,17.51,23.2,16.71,36.35-.28,4.54-4.78,7.95-5.83,12.28-7.37,30.06,15.42,45.26,21.11,73.46,3.48,17.19-2.06,41.07,6,57.12C1283.65,3119.37,1286.76,3119.44,1290.73,3118.71Z"/><path class="cls-9" d="M1472.84,2097.12l-22.56,8.22c-28.13,111.54-28.73,224-35,338.24-10.72,193.48-24.11,388.43-26.76,582.15-.27,19.12,30.94,18,29.58,35.16-1,12.89-20.33,14.36-17.85,31.77,2.24,15.62,25.2,23.79,34.31,36,20.25,27.17,29,62.48,38,94.59,13.48,48.12,21.51,97.53,30.94,146.6,23.38-.44,43-1.13,53.34-1.22,3.76,0,17.15,1.53,19.33-3.16,2.64-5.63-27.41-239.53-34.53-252.18-8.85-15.71-35.47-42.54-28.49-62.19,2.49-7,9.75-16.14,9.54-23.6-.22-7.94-10.21-14.25-10.87-21.83a265,265,0,0,1-.27-38.32l45.86-443.66c-17.48-100.74-33-202.06-50-302.65-5.75-34-5.2-71-10.87-105.53C1489.39,2109.82,1481.42,2103.59,1472.84,2097.12Z"/><path class="cls-10" d="M1473.71,2097.76l-.86-.64-22.56,8.2c-28.12,111.56-28.73,224-35,338.27-10.72,193.47-24.12,388.42-26.76,582.14-.27,19.12,30.94,18,29.58,35.16-1,12.89-20.34,14.37-17.85,31.77,2.24,15.62,25.2,23.79,34.3,36,20.27,27.18,29.06,62.48,38,94.6,13.49,48.1,21.51,97.51,30.94,146.59l1.82,0c-9.18-49.06-17-98.46-30.14-146.56-8.77-32.12-17.34-67.42-37.09-94.6-8.87-12.21-31.25-20.38-33.44-36-2.44-17.4,16.4-18.88,17.4-31.77,1.32-17.16-29.1-16-28.84-35.16,2.59-193.72,15.64-388.67,26.09-582.14,6.17-114.29,6.74-226.71,34.16-338.27Zm90.94,1271.1c-3.05,0-5.9-.24-7.32-.23h-.13C1558.81,3368.66,1561.64,3368.86,1564.65,3368.86Z"/><path class="cls-11" d="M1567.39,2427.12l.54-5.37-35.26-276.28s-268.64-236.92-272.81-85.24c-1.55,56.24-2.53,118.89-3.24,181.79,14.5,14.91,29.63,29.41,45.71,43.43C1379,2352.27,1471.44,2395.85,1567.39,2427.12Z"/><path class="cls-8" d="M1575.46,3087.35c5.74,20.65,11.84,41.21,14.92,62.16,3.09,21.17,27,180.67,32.37,186.18,14.6,14.91,143.2-.47,165.87-.47,26.93,0,81.15,7.29,104.34-8.76,1.2-.84,3.61-1.44,3.31-2.87-9.12-42.84-17.09-86.88-22.61-130.58-2.75-21.77,4.52-45.61,1-66.84-3-17.92-19-32.55-23.09-50.23a249.53,249.53,0,0,1-5.4-38.22l.59-.32s32.53-682.91,31.06-798.64-71-166.55-71-166.55L1478.9,2282.79s10.2,64.39,22.86,157.35c1.1,21.72,1.75,43.52,4.16,65.06,6.18,55.17,16.23,110.4,19.23,165.91.74,13.69,2.77,30.23,1.07,43.88-1.07,8.56-5.44,14.42-4.36,23.7,1,8.38,7.5,15.57,8.44,23.74,3.94,34.13,5.71,68.44,8.86,102.68,3.24,35.21,6.51,71,8.81,106.21.35,5.4-5.3,9.08-4.22,15.8,2.7,16.9,15.93,35.08,20.54,51.85,0,.23.11.45.17.67.7,4.55,1.53,9.08,2.46,13.6.88,8,1,15.59,2.63,24.34.19,1,2.73,17.13,3.11,16.83C1574,3093.45,1574.88,3090.9,1575.46,3087.35Z"/><path class="cls-12" d="M1704.94,2137.62l-2.93,21.52c15.48,67.73.2,148.66,1.55,217.53,2.85,145.07,8.68,288.55,16.62,433.26,2.91,52.88.66,128.43,25.58,177.55,8.9,17.53,28.4,22.89,32.12,43.36,2.2,12.06-18.62,14-17.29,26.7,1.81,17.55,36.61,21.21,36.57,35.45-.05,12.83-155.45,47.53-163.93,78.57-1,3.69,13.83,6.42,15.5,7,11.33,3.89,115.8,35.89,116.87,39.85,5.71,20.85-1.89,49.92-.34,71.66.63,8.77,3,26,7.12,46,7.25-.53,12.88-.86,16.22-.86,27,0,81.16,7.29,104.34-8.77,1.2-.82,3.62-1.44,3.31-2.86-9.1-42.83-17.08-86.89-22.6-130.57-2.76-21.78,4.52-45.62,1-66.84-3-17.94-19-32.55-23.1-50.23a251,251,0,0,1-5.39-38.22l.58-.33s32.56-682.91,31.07-798.63-71-166.57-71-166.57Z"/><path class="cls-13" d="M1844.29,2460.34c1.89-4.44,4.27,19.56,4.44,21.18,1.5,13.61,4.14,27.1,5,40.78,3.53,57.53-21.18,75.66-34.93,126.37-16.19,59.66-33,121.71-41.81,183-14.88,103.87-4.18,131.17-107.45,149-21.29,3.67-35.51,11.68-56.53,5.47-8.07-2.39,2.87-38.77,3-43.1.06-3.15-6.23-33.43-1.89-36,8.19-5,21.35,5.54,30.7,5.06,28.41-1.41,48.51-27.26,58.62-51.75,47.12-114.18,60.76-247,81.81-367.83"/><path class="cls-14" d="M1840.42,3336.87c-17.85-.07-35.69-1.65-47.81-1.65h-1.46C1804.12,3335.41,1822.38,3336.92,1840.42,3336.87Zm-32.08-1263.46c-1-.81-1.53-1.2-1.53-1.2L1705,2137.61l-2.93,21.53c15.47,67.73.19,148.65,1.55,217.53,2.86,145.06,8.68,288.54,16.62,433.27,2.9,52.87.65,128.41,25.58,177.52,8.91,17.55,28.4,22.9,32.13,43.37,2.2,12.08-18.63,14.05-17.31,26.71,1.83,17.54,36.62,21.22,36.58,35.45-.06,12.83-155.45,47.54-163.93,78.58-1,3.67,13.81,6.41,15.49,7,11.35,3.88,115.81,35.89,116.89,39.84,5.69,20.87-1.9,49.94-.34,71.67.62,8.78,3,26,7.11,46,1.59-.12,3.11-.23,4.53-.32-3.92-19.93-6.19-37-6.79-45.71-1.49-21.73,5.82-50.8.34-71.67-1-4-101.63-36-112.56-39.84-1.61-.56-15.89-3.3-14.93-7,8.18-31,157.82-65.75,157.86-78.58,0-14.23-33.45-17.91-35.22-35.45-1.26-12.66,18.78-14.63,16.66-26.71-3.58-20.47-22.35-25.82-30.92-43.37-24-49.11-21.84-124.65-24.63-177.52-7.64-144.73-13.25-288.21-16-433.27-1.3-68.88,13.41-149.8-1.5-217.53l2.83-21.53Z"/><path class="cls-15" d="M1875.36,2360.42c1.78-55.72,2.76-99.28,2.47-121.65-1.49-115.74-71-166.57-71-166.57l-327.92,210.59s6.73,42.28,16,107.77c49.22,11.68,83.92-33.1,143.8-46.46,56.18-12.52,129,6.24,185,10.7C1831.52,2355.44,1852.25,2358.12,1875.36,2360.42Z"/><path class="cls-16" d="M1222.62,1558.76l21,321.54,84-42.18-16.75-269.88Z"/><path class="cls-17" d="M1256.63,1167.3s-44.62,173.87-46.34,186.88,2.65,228,2.65,228l92.73,44.38Z"/><path class="cls-18" d="M1256.64,1167.3s148.42-107.87,338-93.25,337.55,132.1,337.55,132.1-1.23,101.84-44.33,261.59-49.71,193.59-64.32,255.08-4.21,73.81-5.61,90.48-25,32.28-20.93,44.2,7.13,36.75,15.32,46.28,74.1,285.79,66.86,330.55-272,38.61-356.93,84.89-216.84-65.3-277.65-175.69-25.09-53.63-17.77-182.62,32.5-302.33,23.71-382.28S1239.09,1289.93,1256.64,1167.3Z"/><path class="cls-19" d="M1745,1119.68c-18.54,19-66.68,36.67-90.48,48.25-19.12,9.3-37.38,12.94-58.26,15.92a320,320,0,0,1-38.1,3.43c-7.28.16-14.74.46-21.93-.43-16.38-2-20.26,13-4,15.55,20.31,3.19,94.88-5.4,103.75,22.6,8.58,27.08-13.47,114.52-13.75,149.48-.17,19.54,11,49.24,35.67,48.68,29.69-.69,68.71-38.16,84.94-60.43,15.93-21.85,25.62-48.71,40.69-71.51,17.72-26.81,40.61-47.42,62.19-71C1877,1186.22,1754.73,1109.77,1745,1119.68Z"/><path class="cls-20" d="M1414.38,2313.67a10.1,10.1,0,0,0,3.83.24c32.83-5.79,69-32.88,95-51.57,3.35-2.4,28.56-23.09,30.4-21.22,1.08,1.09-6,43.59-5.71,47.09.33,4.77,6.39-7.15,10.13-10.1,10.66-8.4,23.73-13.57,34.86-21.34,14.29-10,73.28-42.11,75.52-58.43,1.54-11.11-21.27-124.73-23.55-129.2-8.64-16.86-50.05-24.2-41.59-46.3,13.08-34.13,120.17-40.13,131.37-61.82.08-.14-13.7-9.58-46.72-32-25-16.94-52.93-30.53-81.07-41.18-31.68-12-74.36-15.79-100.49-39.24-32.17-28.87-74.33-152.25-68.78-188.76,4.38-28.79,31.41-79,19.91-106.79-5.28-12.73-26-36.47-48-58.21a76.57,76.57,0,0,1,17.17-17.33c.71-.49,1.43-1,2.12-1.42,106.32,13.51,236.51,17.46,306.33-40.53,51.32-42.63,67.76-107.17,110.36-154.65,22.86-25.49,55.2-40.58,84.15-58.87,4.07-2.56,8.15-5.16,12.25-7.85-1.27,27-8.06,120.08-44.05,253.49-43.11,159.75-49.7,193.59-64.31,255.09s-4.22,73.81-5.61,90.48-25,32.27-20.93,44.19,7.12,36.76,15.32,46.29,74.08,285.79,66.85,330.54-272,38.61-356.92,84.9C1490.76,2336.38,1452.8,2331.84,1414.38,2313.67Zm-47.55-29c.93.53,1.87,1,2.82,1.6,3.95,2.24,11.86,8.28,20.37,14.15Q1378.35,2293.24,1366.83,2284.67Z"/><path class="cls-21" d="M1927.74,1263.86c-5.13,45.51-16.17,115.91-39.89,203.88-43.11,159.75-49.72,193.59-64.33,255.09s-4.21,73.8-5.61,90.48-25,32.28-20.93,44.19,7.13,36.76,15.32,46.29,74.1,285.78,66.86,330.54-272,38.61-356.93,84.9a88.56,88.56,0,0,1-37.57,10.56c2.49-2.55,5.06-5,7.78-7.3,7.38-6.22,301.82-131.34,305.29-141.32,4.59-13.27,2.57-92.84.13-108.26-4.81-30.35-87.42-10.45-95.56-37.46-.08-.3,4.45-.25,4.86-.25,20.74-.14,45.62-3.75,65.8-8.45,37.48-8.73,35.54-25.62,25.94-60.46-2.48-9-115.22-64.49-134.22-82.19-73.94-68.89-151.81-169.95-164.38-273-3.52-28.92,10.92-72.34,19-99.36,1.57-5.21,9,6.22,13.13,9.7,8,6.64,15.67,13.24,24.35,19.07,28.5,19.17,73,58.75,111.14,43.81,87.28-34.23,102.21-194.11,185.67-249.81Z"/><path class="cls-22" d="M1603,2173.1c-25.88,8.48-55.52,19.39-82.87,18-53.2-2.79-125.28-61.85-167.76-95.28-23.42-18.42-45.79-39.14-68.29-58.92-7.28-6.41-14.86-12.51-22-19.11-3.42-3.15-6.41-6.25-10.18-9-.63-.46-1.88-2.33-1.87-1.48.1,8.83,13.82,23.59,17.52,29.07,12.76,18.89,26,37.54,39.18,56.07,22.62,31.91,47.63,61.45,72.44,91.26,8,9.59,19.09,25.08,29.89,30.68,16.57,8.61,41.39,10.17,59.51,8.91,19.29-1.33,37.44-12.67,56.42-17.61"/><path class="cls-23" d="M1541.7,2222.14c-9.07,2.08-16.26,7.59-24.86,11-21.41,8.37-41.6,10.29-62.14,22-4.26,2.43-30.25,10.36-27.27,14,8.54,10.32,36.32,6.49,47.19,3.17,28.57-8.72,52.71-23.38,77.11-39.85,8.57-5.78,14-15.31,22.67-19.81"/><path class="cls-24" d="M1660.73,1952.74c-37.77.23-75.49-11.8-113.33-8.35s-72.72,22.28-106.37,39c-15.46,7.69-30.7,15.37-46,23.33-1.25.65-14.55,6.93-14.13,9.14,1,5.25,47.09,6.6,51.28,6.39,49.29-2.5,126-16.81,173.18-31.34,18.94-5.83,39.26-10.87,57.33-19.08,3-1.37,30.48-9.69,14.21-12.83"/><path class="cls-25" d="M1301.74,1545.89c57,13,114.94,14.83,172.64,22.26,22.06,2.85,43.11,8.69,65.42,10,8,.47,75.27,6.54,76.34,16.14.81,7.28-20.29,1.35-23.1.87-29.25-5.09-59.49-2.93-89-6.86-40.11-5.35-79.22-14.56-119.44-19.11-28.58-3.23-57.75-1.11-86-7.47"/><path class="cls-26" d="M1415.73,1284.48c20,28.63,26.25,88.39,35.75,123,23.92,87.25,45.8,174.66,75.59,260.22,15.51,44.54,27.06,97.13,56.37,135.44,33.88,44.3,132.36,131.54,193.16,125.42,18.14-1.83,15.25-29.16,14.37-41.62-1.89-26.45,4.52-107.27-13.29-126.9"/><path class="cls-27" d="M1687.36,861.69c-.75,1.85-.59,10.88-.66,12-.84,13.59-3.4,27-5.65,40.38a841.78,841.78,0,0,0-11.24,128.26c-.2,14.4-1,28.8-1.89,43.18,18.74,4.11,36.91,9,54.33,14.42-21.3,14.49-50.42,28.45-66.24,36.66-59.69,31-140,37.27-194.74-6.22-4.71-3.75-28.37-23-40.8-37.95,14.85-3.68,30.65-10.88,46.72-13.46,5.13-9.38,4.87-27.94,7.53-38.06,4.31-16.34,9.92-35.09,21.55-48.34,12.21-13.9,39.68-21.65,56.18-29.21,32.5-14.87,62-33.84,93.59-50.21l41.32-51.42c.09-.19.18-.3.28-.32Z"/><path class="cls-16" d="M1398.63,1092.57c.21.52,3.78,1.43,4.19,1.59,5.6,2.14,11.2,4.3,16.82,6.4,19.91,7.44,38.75-72.35,59.69-67.94,6.37,1.34,14.69,90.09,21.16,91,1.89.26,5.34.61,5.78,2.87.67,3.49-3.49,5-6.38,5.44-7.8,1.18-15.77.76-23.54,1.93-20.69,3.08-40.95-3.92-58.58-13.78-6.53-3.64-15.39-7.5-17.85-14.76"/><path class="cls-16" d="M1478.14,1048.73c4.31-16.34,6.5-43,18.13-56.2,12.21-13.9,39.68-21.65,56.18-29.21,32.5-14.87,62-33.84,93.59-50.21l41.32-51.42c.09-.19.18-.3.28-.32l-.28.32c-.75,1.85-.59,10.88-.66,12-.84,13.59-3.4,27-5.65,40.38a841.78,841.78,0,0,0-11.24,128.26c-.2,14.4-1,28.8-1.89,43.18,18.74,4.11,36.91,9,54.33,14.42-21.3,14.49-50.42,28.45-66.24,36.66a223.79,223.79,0,0,1-36.18,14.88l0,0c-1.94-3.59-6.82-9.58-5.39-13.88,3.28-9.79,17.74-11.35,26.65-12.77,2.62-.42,9.29-1.71,8.07-5.63-1.14-3.67-12.63-3.45-15.56-3.49a102.53,102.53,0,0,1-32.34-5.48c-3.45-1.11-9.55-2-10.86-5.75-1.84-5.27,4.58-11.63,8.31-14.55,12-9.41,25.25-22.11,25.49-38,.12-8.09-3.81-17.74-13.06-20-15.9-3.88-35,1.91-50.29,5.49-23.87,5.59-46.46,9.82-71.14,11.11C1485.87,1048.66,1482,1048.78,1478.14,1048.73Z"/><path class="cls-28" d="M1460.57,548.21c63.35-52.35,176-29.8,242.14,7.61,12.94,7.32,34.45,25.08,45.59,35.15,3.61,3.27,6.67,8.6,10.67,11.26,1.26.84,10.18-2.26,13.72-.71,18.47,8.07,61.08,58.57,35,110.26-9.84,19.46-85,122.66-105,151.27-14.16,20.23-28.3,33.88-48.56,47-4.73,3.06-9.64,5.84-14.55,8.56-.14.08-5,2.74-5.16,2.43-.64-1,1.19-6.89,1.33-7.88,1.21-8.29,1.79-16.75,2.26-25.1,1.28-23.06-1-45.05-9.23-66.38-15.11-39-128.43-72.45-183.48-131.09C1406.5,649.38,1452.43,554.94,1460.57,548.21Z"/><path class="cls-29" d="M1775.17,761c-26.15,37.45-60.05,84.26-72.54,102.1q-2.25,3.21-4.51,6.21l-.84.17a228.18,228.18,0,0,1-59,3.95c-.27-17.77-3-34.92-9.54-51.68-14.4-37.16-118-69.28-175.31-123a58.22,58.22,0,0,1-.93-7c-.44-6.61-.82-13.39.25-19.94a62.88,62.88,0,0,1,3.71-12.46c11.46-29.55,49.85-4.39,70.36-1.44,22.38,3.22,44.59.91,66.53-4.33,40.66-9.72,89.42-49.65,131.08-21.22,24.36,16.64,9.86,35.87,8.64,59.41-.91,17.36,5.82,37.25,17.35,50.08C1757.53,749.82,1765.7,756.68,1775.17,761Z"/><path class="cls-27" d="M1454.35,670.8h0s-.28,3.2-.33,3.57c-1.06,7.13-2.38,14.14-4,21.15-6.21,26.12-14.57,50.11-10.5,76.54,6,38.87-8.66,81.56-9.21,120.77-.51,35.55,10.18,61.56,19.47,94.1,5.83,20.38,12.33,56.85,32.14,65.57,23.67,10.43,43.8-1.65,65.25-14.57,43.09-25.93,80.32-57.75,109.77-102,8.88-13.33,16.1-28.44,23.75-42.68,2.7-5.08,6-12.7,10.31-16.47,5.9-5.24,13.37-8.13,19.24-13.72,14-13.36,27.8-30.89,35.3-49.51,4.61-11.43,8.74-28.17,2.4-39.38-4.75-8.39-11.47-7.68-19.12-4.3-14.9,6.56-19.6,20.43-29.12,33.35-1.52,2-12,15.39-15.18,12.24-2.38-2.35.14-10.53.68-13.45,2.61-14,9.89-25.76,13.09-39.18,1.3-5.41,0-12.86-4-16.44-2.77-2.48-5.9-.89-6.36-6.21-1.45-16.57,8.57-42-2.54-55.86-2.62-3.27-7.15-4.43-10.57-6.39a46.38,46.38,0,0,0-10.86-4.87c-40.24-11-69.77,34.74-146.55,22.46C1480.68,689.64,1454.35,670.8,1454.35,670.8Z"/><path class="cls-16" d="M1496.53,869.61c-7.2-4.52-14.65-8.35-22-12.46-3.27-1.83-6.74-4-10.53-3.77-2.21.13-4.42,4-6,5.36s-3.3,2-4.86,3.17c-.87.67-1.65,1.5-2.47,2.25-7.76,7,7.53,9.84,10.5,12.88,2.8,2.87,2.95,9.83,7.29,10.46,2.77.4,7.31-5.15,9.69-6.77a35.23,35.23,0,0,1,19.79-6"/><path class="cls-16" d="M1746.56,772.11a18.65,18.65,0,0,1,1.34,2c6.34,11.21,2.21,28-2.4,39.38-7.5,18.62-21.31,36.15-35.3,49.51-5.87,5.59-13.34,8.48-19.24,13.72-4.29,3.77-7.61,11.39-10.31,16.47-7.65,14.24-14.87,29.35-23.75,42.68-29.45,44.26-66.68,76.08-109.77,102-21.45,12.92-41.58,25-65.25,14.57-5.76-2.53-10.38-7.41-14.21-13.56,7.56,1.46,15,1,21.59-2.39,8-4.08,11-15.12,20.39-19.23,20.14-8.88,39.76-13.66,51.55-36.51,10.31-20,13.23-44.4,19.23-66.07,5.49-19.89,14.09-38.1,24-55.76,14.45-25.68,44.28-37.42,55.13-65.58,3.16-8.18,2.4-19.7,2.26-28.27a87.06,87.06,0,0,0-3.18-20.4C1644.05,689.07,1582.53,714.8,1544,715c-13.12.06-26.11-2.43-38.67-6.06-19.36-5.62-36.3-15.07-52.59-26.87.45-2.54.86-5.09,1.26-7.66,0-.37.33-3.57.33-3.57l.29.21a164.38,164.38,0,0,0,62.71,24.5c76.78,12.28,106.31-33.47,146.55-22.46a46.38,46.38,0,0,1,10.86,4.87c3.42,2,8,3.12,10.57,6.39,11.11,13.85,1.09,39.29,2.54,55.86.46,5.32,3.59,3.73,6.36,6.21,4,3.58,5.32,11,4,16.44-3.2,13.42-10.48,25.19-13.09,39.18-.54,2.92-3.06,11.1-.68,13.45a1.54,1.54,0,0,0,.42.3c-2.77,5.63-9.76,20.41-3,24.87,2.38,1.57,5.5,1.14,8.09.37,5.91-1.74,17.28-6.65,19.5-14.16,1.4-4.69-6.68-3-7.84-6-.75-2,.85-5,1.66-6.69a42.64,42.64,0,0,1,11.88-14.44,32.58,32.58,0,0,1,17.59-6.93c6.93-.56,10.62,4.2,14-4.66A22,22,0,0,0,1746.56,772.11Z"/><path class="cls-27" d="M1786,1846.43c41.86-45,144-219,173-351.46,6.92-31.66-4-57.38-1.07-82.62,11.44-98.29,10.24-154.09-20.19-189.94C1899.55,1177.36,1801,1351.49,1790,1399c-6.45,27.78-40.23,156.13-65.61,262.22-18.89-34.3-35.5-71.59-61.37-99.89-81.58-89.28-168-259.9-184.39-280.53s-84.19-42.79-47.93,77.7,51,224.84,116,342,155.9,168.77,186.16,172.75C1752.79,1875.81,1773.75,1862.85,1786,1846.43Z"/><path class="cls-16" d="M1442.53,1399.76c28.5,103.56,46.69,197.13,104.16,300.68,65,117.1,155.9,168.77,186.16,172.75,19.94,2.62,40.9-10.34,53.16-26.76,36.14-38.88,117.19-173.88,157.36-295.27-15.83,2.76-32.25,3.56-48.15,3.65-45.49.31-100.58-6.2-146.14,6-7.16,28.52-14.5,58.12-21.37,86.54,21,14.47,40.37,31.24,61.85,45.27,10.15,6.64,27,7.82,34,18.17,3.18,4.71,1.78,11.47.64,16.59-1.69,7.56-24.55,53.4-26.86,45.13-5.86-21.14-58.46-90.82-58.46-90.82s41.46,79,31.81,106.29c-9.21,26-45.13,16.52-59.81,6.4-37.82-26-87.91-47.21-113.33-87-54.09-84.79-104-171.84-140.75-265.87C1451.43,1427.75,1446.78,1413.83,1442.53,1399.76Zm508.58,126.38c3-10.59,5.68-21,7.92-31.17,6.29-28.71,1.83-54.42,4.83-77.83,13.12-102.85,5.07-158-26.09-194.73-27.81-32.79-87.53,50.45-122.29,116.56,26.35,25.5,47.64,54.94,70.35,83.5,14.41,18.13,25.44,36.74,37.44,56.41C1932,1493.13,1943.46,1509.41,1951.11,1526.14Zm-528.17-198.76a297.88,297.88,0,0,0,7.74,31.11c1.07,3.56,2.13,7.09,3.16,10.65C1430.1,1355.23,1426.56,1341.29,1422.94,1327.38Z"/><path class="cls-18" d="M1910.33,1200.73c31.51.38,58.87,40.45,69.67,83.45s-52.77,412.48-52.77,412.48-174.12-8.92-211.9-87.84c0,0,64.6-263.76,77.22-299.85S1858.75,1200.09,1910.33,1200.73Z"/><path class="cls-30" d="M1905.85,1207.41c-27.72,2.91-61.31,66.2-62,90.59-.16,5.39,20.1-6.43,21.82-6.82,8-1.82,13.76,6.88,18.28,12.15,27.87,32.41,32,70.61,35,111.85,3.83,53.39-5.49,106.82-5.49,160.28,0,6.31-2.88,47.67,4.1,47.61,5.43,0,8.24-16.16,9.26-20,7.43-28.14,14.39-54.74,18.12-83.76,2.87-22.33,7.35-44.42,10.53-66.72,8.91-62.47,48.5-229-49.33-243.84"/><path class="cls-31" d="M1556.69,1885.91c-54.15-20.82-92.2-17-149-14.23-25.11,1.22-50.3-2.46-75.41-2.65-21.23-.15-37,4.5-56.35,12.75-1.33.58-16.17,6.69-14.93,9.75,2.68,6.7,23.62,7.86,29.28,10,29.72,11.32,64.63,17.2,91.33,35.44,24.33,16.63-36.24,41.62-34.38,55.39,0,0,9.12-.08,36-11.13,17.09-7,52.67-18,70.45-21.5,25.62-5.07,49.4-15.46,74.86-20.81,24-5.07,51.92-4.13,76.46-4.14,13.26,0,52.15,11.28,62.5,2.27,3.09-2.7-5.63-9.23-7.1-10.78-9.1-9.5-19-16.87-31.94-20.26"/><path class="cls-32" d="M1548.8,2026.14c-14.7,1.76-28.79,7-43.82,8.28-41.55,3.4-80.4,1.33-121.31-7.3-23.2-4.9-46.87-11.37-70.48-13.75-5.4-.55-20.5-2-21,7-.34,5.78,10.37,8.23,14,10,15.53,7.41,33.32,12.16,50.21,15.06,49.92,8.59,122.13,15.57,172.66,12.76,14.46-.81,29.82-6.2,42.24-13.68,2.9-1.74,11.12-8,8.31-12.67-2-3.37-11.5-5.76-15.11-7.23"/><path class="cls-33" d="M1224.43,2070.42c1.61,7,50.56,78.1,55.87,84.31,13.76,16.14,22.73,35.6,36.06,51.93,10.83,13.27,25,21.4,36.65,33.7,1.28,1.37,19.31,16.9,19.33,16.68,1.14-12.14-6.65-23.74-10.08-34.9-8-25.92-13-56.44-27.32-79.83-13.35-21.91-31-40.5-44.27-62.13-9.24-15-37.23-53.81-52.66-28.87"/><path class="cls-34" d="M1858.21,1221.61l11.43,3.53c-62.54,70.4-92.11,283.55-97.87,377.74-.29,4.84-.56,28.72-1.24,56.21-24.36-12.36-44.87-28.69-55.2-50.27,0,0,64.6-263.76,77.23-299.85C1800.84,1285.27,1826.78,1245.77,1858.21,1221.61Z"/><path class="cls-27" d="M1482.37,1112.67c-.35-32.62-2-63.84-8.35-94.59-2.14-10.32-18.78-22.44-29.85-28.33-8.6-4.57-31.78,20.12-42.24,42.29a39,39,0,0,1-3.21,4.66,36.62,36.62,0,0,1-5.46,1.13c-6.81.79-15.6-3.76-21.74-.18-8.76,5.11-7.94,19.62-10.85,27.93-4.1,11.68-14.87,20.41-18.67,31.38-4.46,13-3.89,29.88-5.83,43.69-1.31,9.34-13.75,25-11.48,33.27,3.09,11.1,13.8,7.14,22.06,9.16a40.37,40.37,0,0,1,7.48,2.76,169.48,169.48,0,0,0,3.73,47.76c14.2,65.83,64,97.27,64,97.27l61.62-38.23S1484.74,1137.31,1482.37,1112.67ZM1421,1038.75c5.27,4.78,9.29,12.87,13.14,18,2.64,3.59,5.29,7.36,7.94,11.19,1.3-10.79,2.54-21.39,1.58-29.54-.23-2-8.59-14.2-8.59-14.2S1426,1033.66,1421,1038.75Z"/><path class="cls-16" d="M1392.14,1303.26c-6.88-15.27-9.51-34-10.56-48.06-2.45-32.24-6.89-61.66,10.28-90.65,5.61-9.55,17.25-12.51,22.44-21.2,4.47-7.47.16-17.09,6.34-24.35,7.17-8.45,19.77-9.13,27.23-17,1.51-1.55-4.33.39-6.35,1.11a47.37,47.37,0,0,0-8.59,4.54c-8.48,5.16-16.86,12.86-27,14.34-6,.88-10.71-1.9-14.91-6-1.1-1-4.63-6.2-6.7-5.77-12.94,2.74-11.94,22.44-20.07,30.5-7.41,7.34-16.17-5.69-20.62,2.52s-1.74,17.65-4.85,26.14a126.78,126.78,0,0,1-5.48,12.38c4.19.77,9.15.21,13.45,1.26a40.37,40.37,0,0,1,7.48,2.76,169.48,169.48,0,0,0,3.73,47.76A161.71,161.71,0,0,0,1392.14,1303.26Z"/><path class="cls-35" d="M654.87,1642.44a15.34,15.34,0,0,0,1.32,6.81q2.44,5,8.91,5a9.91,9.91,0,0,0,6.92-2.72c2-1.81,2.94-4.43,2.94-7.83q0-6.78-5.47-9-3.12-1.28-9.81-1.28v-9.66c4.37-.06,7.42-.49,9.15-1.27q4.49-2,4.48-8.05A9,9,0,0,0,671,1608a8.35,8.35,0,0,0-6.44-2.46c-3.17,0-5.51,1-7,3a12.86,12.86,0,0,0-2.15,8.09H642.88a34,34,0,0,1,1.75-9.7,21.81,21.81,0,0,1,5.19-7.43,18,18,0,0,1,6.27-3.69,26.88,26.88,0,0,1,8.92-1.28q9.81,0,15.82,5.09t6,13.65a15.1,15.1,0,0,1-3.58,10.22,12.24,12.24,0,0,1-4.72,3.55q1.85,0,5.28,3.18Q689,1635,689,1643.29a22.05,22.05,0,0,1-6,15.31q-6,6.6-17.81,6.6-14.53,0-20.19-9.51-3-5.07-3.31-13.25Z"/><path class="cls-35" d="M719.45,1654.22c4,0,6.61-2.09,7.86-6.27s1.86-10.22,1.86-18.1q0-12.4-1.86-18.37c-1.25-4-3.86-6-7.86-6s-6.64,2-7.92,6-1.94,10.1-1.94,18.37q0,11.82,1.94,18.1C712.81,1652.13,715.46,1654.22,719.45,1654.22ZM743,1629.85q0,17-5.26,26.17t-18.33,9.18q-13.07,0-18.33-9.18t-5.26-26.17q0-17,5.26-26.22t18.33-9.23q13.08,0,18.33,9.23T743,1629.85Z"/><path class="cls-28" d="M758.06,1579.39A13.62,13.62,0,1,0,771.62,1593,13.6,13.6,0,0,0,758.06,1579.39Zm0,6.4a7.22,7.22,0,1,1-7.19,7.21A7.2,7.2,0,0,1,758.06,1585.79Z"/><path class="cls-35" d="M787.53,1601q8.49-8.61,21.61-8.61,17.54,0,25.66,11.55a24.93,24.93,0,0,1,4.81,13H825.08a19.63,19.63,0,0,0-3.63-7.57q-4-4.55-11.75-4.54a14.54,14.54,0,0,0-12.5,6.41q-4.58,6.42-4.58,18.15t4.84,17.58a15.25,15.25,0,0,0,12.29,5.85q7.65,0,11.65-5a21.69,21.69,0,0,0,3.68-8.09h14.39a31.3,31.3,0,0,1-9.64,18.55q-7.77,7.15-19.89,7.15-15,0-23.59-9.66t-8.59-26.6Q777.76,1610.91,787.53,1601Z"/><rect class="cls-35" x="479.01" y="1593.24" width="153.24" height="6.93"/><rect class="cls-35" x="491.11" y="1017.98" width="299.88" height="6.93"/><rect class="cls-35" x="424.7" y="589.42" width="299.88" height="6.93"/><path class="cls-35" d="M810.26,1078.09a16.55,16.55,0,0,0,1.42,7.32q2.63,5.34,9.57,5.34a10.66,10.66,0,0,0,7.43-2.92q3.17-2.92,3.16-8.42,0-7.26-5.88-9.71-3.35-1.37-10.53-1.37V1058c4.69-.07,8-.52,9.82-1.37q4.82-2.13,4.82-8.64a9.67,9.67,0,0,0-2.46-6.86,9,9,0,0,0-6.92-2.65q-5.12,0-7.52,3.26c-1.6,2.17-2.37,5.06-2.3,8.69H797.39a36.46,36.46,0,0,1,1.87-10.42,23.5,23.5,0,0,1,5.58-8,19.28,19.28,0,0,1,6.74-4,29.14,29.14,0,0,1,9.57-1.37q10.53,0,17,5.47t6.46,14.66a16.27,16.27,0,0,1-3.85,11,13.18,13.18,0,0,1-5.07,3.81q2,0,5.68,3.41,5.52,5.13,5.52,14a23.71,23.71,0,0,1-6.46,16.44q-6.46,7.1-19.13,7.09-15.6,0-21.68-10.22-3.2-5.43-3.55-14.23Z"/><path class="cls-35" d="M879.62,1090.75q6.43,0,8.44-6.74t2-19.44q0-13.32-2-19.72t-8.44-6.41q-6.43,0-8.51,6.41T869,1064.57q0,12.71,2.08,19.44T879.62,1090.75ZM905,1064.57q0,18.26-5.65,28.11t-19.68,9.86q-14,0-19.68-9.86t-5.66-28.11q0-18.24,5.66-28.16t19.68-9.91q14,0,19.68,9.91T905,1064.57Z"/><path class="cls-35" d="M977.3,1065.18a12.91,12.91,0,0,0-2.07-5.59q-2.43-3.36-7.55-3.36c-4.87,0-8.19,2.43-10,7.27a30.69,30.69,0,0,0-1.41,10.27,28.15,28.15,0,0,0,1.41,9.81q2.59,6.92,9.73,6.91,5.07,0,7.2-2.74a13.64,13.64,0,0,0,2.58-7.12h14.74a24.22,24.22,0,0,1-4.76,12.51q-6.78,9.49-20.11,9.5t-19.61-7.93q-6.29-7.92-6.28-20.58,0-14.3,6.94-22.22t19.15-7.93q10.38,0,17,4.68t7.83,16.52Z"/><path class="cls-35" d="M1077.37,1050.49a16,16,0,0,1,3.14,7.12,49,49,0,0,1,.51,8.18l-.1,34.92h-14.8v-35.28a11.68,11.68,0,0,0-1-5.18c-1.28-2.58-3.65-3.86-7.1-3.86q-6,0-8.25,5a15.62,15.62,0,0,0-1.17,6.35v33h-14.54v-33a18.74,18.74,0,0,0-1-7.17q-1.83-4-7.15-4-6.18,0-8.3,4a15.51,15.51,0,0,0-1.17,6.82v33.34h-14.64v-55.3h14v8.08a23.25,23.25,0,0,1,5.07-6.15q4.2-3.25,10.89-3.25,6.33,0,10.23,2.79a16.24,16.24,0,0,1,4.77,6.66,18.46,18.46,0,0,1,7-7.17,21.48,21.48,0,0,1,9.93-2.28,19.11,19.11,0,0,1,7.19,1.42A16.09,16.09,0,0,1,1077.37,1050.49Z"/><path class="cls-35" d="M431.5,542.33a13.15,13.15,0,0,0,3.1,6.86q2.28,2.41,6.66,2.41A9,9,0,0,0,449,548a14.63,14.63,0,0,0,2.64-9,15.58,15.58,0,0,0-2.48-9q-2.47-3.66-7.72-3.66a13.33,13.33,0,0,0-4.28.62,8.54,8.54,0,0,0-4.81,4.25l-12.19-.57L425,492.5h38v11.56H434.79l-2.48,15.15a28.18,28.18,0,0,1,4.9-2.72,20.57,20.57,0,0,1,7.2-1.1,21.54,21.54,0,0,1,14.95,5.78q6.38,5.77,6.38,16.81a26.5,26.5,0,0,1-6.14,17.16q-6.15,7.54-18.39,7.54-9.84,0-16.18-5.3t-7-15Z"/><path class="cls-35" d="M475.83,490.69h13.34v37.93L506.07,509h16.82L504.74,529l18.86,31.92H507.22L494.79,538.6l-5.62,5.88v16.39H475.83Z"/><path class="cls-35" d="M563.84,534.59q0-7.4-3.12-11.27a10.19,10.19,0,0,0-8.36-3.87q-7.14,0-9.86,6.73a24,24,0,0,0-1.42,8.84,20.27,20.27,0,0,0,1.52,8.07,9.93,9.93,0,0,0,9.91,6.6,10.45,10.45,0,0,0,8-3.61Q563.85,542.48,563.84,534.59Zm-7.91-25.84a16.38,16.38,0,0,1,8,7.54v-7.5h13.18v49.4q0,10.08-3.38,15.19-5.81,8.79-22.28,8.79-10,0-16.24-3.91a14.44,14.44,0,0,1-7-11.71H543a6.12,6.12,0,0,0,1.86,3.44c1.45,1.24,3.92,1.86,7.38,1.86,4.89,0,8.15-1.63,9.81-4.92q1.62-3.15,1.62-10.6V553a16.77,16.77,0,0,1-4.19,5q-4.05,3.11-10.53,3.11-10,0-16-7.05T527,535q0-11.61,5.76-19.51t16.33-7.91A17.71,17.71,0,0,1,555.93,508.75Z"/><path class="cls-36" d="M296.16,2004.36a85.62,85.62,0,0,0,58.35,105.92h0a85.26,85.26,0,0,0,105.58-58.54l196.6-684.51-163.93-47.38Z"/><path class="cls-37" d="M283.65,2000.74A85.61,85.61,0,0,0,342,2106.66h0a85.26,85.26,0,0,0,105.58-58.53l196.59-684.52-163.92-47.38Z"/><path class="cls-38" d="M479.45,1319l156.14,45.14S495.84,1850.77,439,2048.66A85.31,85.31,0,0,1,366.68,2110a85.29,85.29,0,0,0,80.9-61.86l196.59-684.52-163.92-47.38Z"/><path class="cls-18" d="M509.28,1580.49l-112.5,391.69A48.64,48.64,0,1,1,354,1959.8l112.49-391.69Z"/><path class="cls-39" d="M474.21,1653.68a2.94,2.94,0,1,0-5.64-1.63l-78.51,273.34a3,3,0,0,0,2,3.65,2.94,2.94,0,0,0,3.63-2Z"/><ellipse class="cls-40" cx="381.7" cy="1992.55" rx="9.44" ry="16.41" transform="translate(-1216.18 742.46) rotate(-41.12)"/><path class="cls-41" d="M550.94,1539.78l-12.67-3.66-.93,3.24L550,1543Zm3.81-13.27-12.67-3.66-.93,3.24,12.67,3.67Zm3.81-13.27-12.67-3.66-.93,3.24,12.67,3.67Zm3.81-13.27-12.67-3.66-.93,3.24,12.67,3.67Zm3.81-13.27L553.51,1483l-.93,3.24,12.67,3.67Zm3.82-13.27-12.67-3.66-.94,3.24,12.67,3.67ZM584,1457l-21.23-6.13-1.56,5.44,21.23,6.13Z"/><path class="cls-41" d="M520.23,1646.71l-12.67-3.66-.93,3.24L519.3,1650Zm3.81-13.27-12.67-3.66-.93,3.24,12.67,3.67Zm3.81-13.27-12.67-3.66-.93,3.24,12.67,3.67Zm3.81-13.27L519,1603.24l-.93,3.24,12.67,3.67Zm3.81-13.27L522.8,1590l-.93,3.24,12.67,3.67Zm3.82-13.27-12.68-3.66-.93,3.24,12.67,3.67Zm14-16.48-21.23-6.13-1.56,5.44,21.23,6.13Z"/><path class="cls-41" d="M489.52,1753.64,476.85,1750l-.93,3.24,12.67,3.66Zm3.81-13.27-12.67-3.67-.93,3.25,12.67,3.66Zm3.81-13.27-12.67-3.66-.93,3.24,12.67,3.66Zm3.81-13.27-12.67-3.66-.93,3.24,12.67,3.66Zm3.81-13.27-12.67-3.66-.93,3.24,12.67,3.66Zm3.81-13.27-12.67-3.66-.93,3.24,12.67,3.66Zm14-16.48-21.23-6.14-1.57,5.45,21.24,6.13Z"/><path class="cls-41" d="M458.81,1860.57l-12.67-3.67-.93,3.25,12.67,3.66Zm3.81-13.27L450,1843.63l-.93,3.25,12.67,3.66Zm3.81-13.27-12.67-3.67-.93,3.25,12.67,3.66Zm3.81-13.27-12.67-3.67-.93,3.25,12.67,3.66Zm3.81-13.27-12.67-3.67-.93,3.25,12.67,3.66Zm3.81-13.27-12.67-3.67-.93,3.25,12.67,3.66Zm14-16.48-21.23-6.14-1.57,5.44,21.24,6.14Z"/><path class="cls-41" d="M427.19,1970.66,414.52,1967l-.93,3.24,12.67,3.66Zm3.81-13.27-12.67-3.67-.93,3.25,12.67,3.66Zm3.81-13.27-12.67-3.66-.93,3.24,12.67,3.66Zm3.81-13.27L426,1927.19l-.93,3.24,12.67,3.66Zm3.81-13.27-12.67-3.66-.93,3.24,12.67,3.66Zm3.82-13.27-12.67-3.66-.94,3.24,12.67,3.66Zm14-16.48L439,1881.69l-1.56,5.45,21.23,6.13Z"/><polygon class="cls-42" points="511.68 1406.55 555.41 1419.19 507.93 1584.5 464.2 1571.86 511.68 1406.55"/><path class="cls-42" d="M402.9,1970.6l158.29-551.12a5.47,5.47,0,0,0-3.73-6.76l-42.83-12.38a5.45,5.45,0,0,0-6.74,3.74L349.61,1955.19a54.24,54.24,0,1,0,53.29,15.41Zm-11.35.06a5.46,5.46,0,0,0,1.5,5.48,43.21,43.21,0,1,1-38-11,5.44,5.44,0,0,0,4.17-3.85l157.66-548.95,32.38,9.36Z"/><path class="cls-36" d="M4133.71,2265.22a85.38,85.38,0,0,0,91.8,78.51h0a85.48,85.48,0,0,0,78.26-92.1l-56.38-710.11-170.06,13.59Z"/><path class="cls-37" d="M4120.73,2266.26a85.38,85.38,0,0,0,91.8,78.51h0a85.5,85.5,0,0,0,78.26-92.1l-56.38-710.11-170.06,13.59Z"/><path class="cls-18" d="M4184.32,1793.21l32.26,406.33a48.72,48.72,0,1,1-44.44,3.55l-32.26-406.33Z"/><path class="cls-39" d="M4177.2,1874.1a2.93,2.93,0,1,0-5.85.47l22.51,283.56a2.93,2.93,0,1,0,5.85-.47Z"/><ellipse class="cls-40" cx="4209.62" cy="2223.94" rx="9.45" ry="16.39" transform="translate(259.18 4881.16) rotate(-61.77)"/><path class="cls-41" d="M4209,1740.38l-13.14,1,.27,3.37,13.14-1Zm-1.09-13.76-13.14,1.05.26,3.37,13.15-1Zm-1.09-13.77-13.15,1.05.27,3.37,13.15-1Zm-1.09-13.76-13.15,1.05.27,3.36,13.14-1Zm-1.1-13.77-13.14,1,.27,3.37,13.14-1Zm-1.09-13.77-13.14,1,.26,3.37,13.15-1Zm7.32-20.37-22,1.76.45,5.65,22-1.76Z"/><path class="cls-41" d="M4217.82,1851.31l-13.14,1,.26,3.37,13.15-1Zm-1.09-13.77-13.15,1,.27,3.37,13.15-1Zm-1.09-13.76-13.15,1,.27,3.37,13.14-1Zm-1.1-13.77-13.14,1,.27,3.37,13.14-1Zm-1.09-13.76-13.14,1,.26,3.36,13.15-1.05Zm-1.09-13.77-13.15,1,.27,3.37,13.14-1.05Zm7.32-20.37-22,1.76.45,5.64,22-1.76Z"/><path class="cls-41" d="M4226.63,1962.24l-13.15,1,.27,3.37,13.15-1.05Zm-1.09-13.77-13.15,1,.27,3.37,13.14-1.05Zm-1.1-13.76-13.14,1,.27,3.37,13.14-1.06Zm-1.09-13.77-13.15,1,.27,3.37,13.15-1Zm-1.09-13.77-13.15,1,.27,3.37,13.14-1Zm-1.1-13.76-13.14,1,.27,3.37,13.14-1Zm7.32-20.37-22,1.76.45,5.64,22-1.76Z"/><path class="cls-41" d="M4235.43,2073.17l-13.14,1,.27,3.37,13.14-1.06Zm-1.09-13.77-13.14,1,.26,3.37,13.15-1.05Zm-1.09-13.77-13.15,1,.27,3.37,13.15-1.05Zm-1.09-13.76-13.15,1.05.27,3.37,13.14-1Zm-1.1-13.77-13.14,1.05.27,3.37,13.14-1Zm-1.09-13.76-13.14,1.05.26,3.36,13.15-1Zm7.32-20.37-22,1.76.45,5.64,22-1.76Z"/><path class="cls-41" d="M4244.5,2187.37l-13.14,1.06.27,3.36,13.14-1.05Zm-1.09-13.76-13.15,1,.27,3.37,13.15-1.05Zm-1.09-13.77-13.15,1,.27,3.37,13.14-1.05Zm-1.1-13.76-13.14,1.05.27,3.36,13.14-1Zm-1.09-13.77-13.14,1.05.26,3.37,13.15-1.05Zm-1.09-13.77-13.15,1.05.27,3.37,13.14-1.05Zm7.32-20.37-22,1.76.45,5.65,22-1.76Z"/><rect class="cls-43" x="4132.22" y="1627.49" width="45.51" height="172.03" transform="translate(-123.28 336.38) rotate(-4.57)"/><path class="cls-42" d="M4221.75,2195.9l-45.39-571.72a5.45,5.45,0,0,0-5.86-5l-44.43,3.55a5.45,5.45,0,0,0-5,5.87l45.39,571.73a54.12,54.12,0,1,0,55.29-4.42Zm-10.6,4.07a5.43,5.43,0,0,0,3.32,4.6,43.28,43.28,0,1,1-39.45,3.16,5.46,5.46,0,0,0,2.55-5.07l-45.21-569.49,33.58-2.68Z"/><path class="cls-44" d="M952.21,1412.3,275.75,657.48l-13.44.88-79.8,83.21L845,1496.3l13.94.09Z"/><polygon class="cls-45" points="261.98 657.92 938.43 1412.74 845.2 1496.84 168.74 742.02 261.98 657.92"/><path class="cls-46" d="M649.73,1090.6,828,1289.54q1.49,10,2.86,20c8.21,60.15,15.08,120.53,21.38,181l-7.06,6.37-172.62-192.6c-3.16-68.86-8.82-137.5-21.43-205.86Q650.43,1094.49,649.73,1090.6Zm-103-114.94,34.9,38.93c5.07,68.5,10.84,137,15.56,205.5l-52.45-58.52Q546.28,1068.6,546.72,975.66ZM292,691.38,504,927.92c-3,60-5.24,120-7.3,180L285.3,872.09Q287.63,781.83,292,691.38Z"/><ellipse class="cls-47" cx="262.11" cy="706.08" rx="16.21" ry="16.26"/><path class="cls-48" d="M214.86,735.62,212.54,733l-16.07,14.5,2.31,2.59Zm72.74,81.16-2.32-2.59L269.2,828.7l2.32,2.58Zm72.73,81.16L358,895.36l-16.08,14.5,2.32,2.58Zm72.74,81.16-2.32-2.58L414.67,991l2.32,2.59ZM217.6,752.68l-2.32-2.59-9.14,8.24,2.32,2.59Zm288.2,307.58-2.31-2.58-16.08,14.5,2.32,2.59Zm72.74,81.17-2.32-2.59-16.08,14.5,2.32,2.59Zm72.74,81.16L649,1220l-16.08,14.5,2.32,2.6ZM290.34,833.84,288,831.25l-9.14,8.25,2.32,2.58ZM226.1,762.16l-2.32-2.59-9.14,8.24L217,770.4ZM724,1303.75l-2.31-2.58-16.08,14.5,2.32,2.58ZM363.07,915l-2.31-2.59-9.14,8.25,2.31,2.58ZM234.6,771.64l-2.32-2.59-9.14,8.25,2.32,2.58Zm562.15,613.27-2.32-2.58-16.08,14.5,2.32,2.58ZM435.81,996.16l-2.32-2.58-9.14,8.24,2.32,2.59Zm-192.72-215-2.32-2.59-9.13,8.25,2.31,2.58Zm55.74,62.2-2.31-2.59L287.38,849l2.31,2.58ZM251.59,790.6,249.27,788l-9.14,8.24,2.32,2.59Zm55.74,62.2L305,850.22l-9.14,8.24,2.32,2.58Zm201.21,224.52-2.31-2.58-9.14,8.24,2.32,2.59Zm-137-152.84-2.32-2.58-9.14,8.24,2.32,2.58Zm72.74,81.16-2.32-2.58-9.14,8.24,2.32,2.59ZM315.83,862.28l-2.32-2.58-9.14,8.24,2.32,2.59Zm265.45,296.21L579,1155.9l-9.14,8.24,2.32,2.59ZM260.09,800.08l-2.32-2.58-9.14,8.24,2.32,2.59ZM380.07,934l-2.32-2.58-9.14,8.24,2.32,2.59ZM268.58,809.57,266.27,807l-9.14,8.24,2.31,2.59ZM452.8,1015.12l-2.31-2.58-9.14,8.24,2.31,2.59ZM517,1086.81l-2.32-2.59-9.14,8.24,2.32,2.59Zm-192.71-215L322,869.18l-9.14,8.24,2.32,2.59Zm64.23,71.68-2.31-2.58-9.14,8.24,2.32,2.59ZM654,1239.64l-2.31-2.58-9.14,8.24,2.31,2.59ZM589.78,1168l-2.32-2.59-9.14,8.24,2.32,2.59Zm-64.24-71.68-2.32-2.59-9.14,8.24,2.32,2.59ZM397.06,952.93l-2.32-2.59-9.14,8.24,2.32,2.59Zm329.69,367.88-2.32-2.59-9.14,8.24,2.32,2.6ZM461.3,1024.61,459,1022l-9.14,8.24,2.32,2.59ZM332.82,881.25l-2.31-2.59-9.14,8.24,2.31,2.59Zm8.5,9.48L339,888.14l-9.14,8.24,2.32,2.59Zm321.19,358.4-2.31-2.58-9.14,8.24,2.31,2.58Zm137,152.84-2.32-2.58-9.14,8.24,2.32,2.58ZM598.27,1177.45l-2.31-2.59-9.14,8.25,2.32,2.58ZM469.8,1034.09l-2.32-2.59-9.14,8.25,2.32,2.58ZM534,1105.77l-2.32-2.59-9.14,8.25,2.32,2.58ZM405.56,962.41l-2.32-2.59-9.14,8.24,2.32,2.59Zm8.5,9.48-2.32-2.59-9.14,8.25,2.32,2.58Zm192.71,215-2.32-2.59-9.13,8.25,2.31,2.58Zm-64.24-71.68-2.31-2.59-9.14,8.25,2.31,2.58ZM671,1258.61l-2.32-2.59-9.14,8.25,2.32,2.58Zm64.24,71.68-2.32-2.58-9.14,8.24,2.32,2.58Zm-257-286.72L476,1041l-9.14,8.25,2.32,2.58Zm201.22,224.52-2.32-2.58-9.14,8.24,2.32,2.58Zm64.24,71.68-2.32-2.58-9.14,8.24,2.32,2.59ZM615.27,1196.41l-2.32-2.58-9.14,8.24,2.32,2.58ZM551,1124.73l-2.32-2.58-9.14,8.24,2.32,2.58Zm-64.24-71.68-2.32-2.58-9.13,8.24,2.31,2.58ZM808,1411.46l-2.32-2.59-9.14,8.24,2.32,2.59ZM623.77,1205.89l-2.32-2.58-9.14,8.24,2.32,2.59Zm-64.24-71.68-2.32-2.58-9.14,8.24,2.32,2.59Zm257,286.72-2.31-2.58-9.14,8.24,2.31,2.59ZM688,1277.58l-2.32-2.59-9.14,8.24,2.32,2.59Zm64.23,71.67-2.31-2.58-9.14,8.24,2.31,2.58Zm-55.74-62.2-2.31-2.58-9.14,8.24,2.31,2.59ZM825,1430.42l-2.32-2.59-9.14,8.24,2.32,2.59Zm-64.24-71.68-2.31-2.59-9.14,8.25,2.31,2.58ZM632.27,1215.38l-2.32-2.59-9.14,8.24,2.32,2.59Zm201.2,224.52-2.31-2.59-9.14,8.25,2.32,2.58ZM705,1296.54l-2.32-2.59-9.14,8.24,2.32,2.59Zm64.24,71.68-2.32-2.59-9.14,8.24,2.32,2.59ZM842,1449.38l-2.31-2.58-9.14,8.24,2.32,2.58Zm-64.24-71.68-2.31-2.59-9.14,8.25,2.31,2.58Zm72.74,81.16-2.32-2.59-9.14,8.25,2.32,2.58Z"/><polygon class="cls-49" points="177.95 733.71 854.4 1488.54 845.2 1496.84 168.74 742.02 177.95 733.71"/><path class="cls-44" d="M3414.47,1660.22l804.39-615.69,13,3.37,63,96.64-790.68,618.19-13.71-2.51Z"/><polygon class="cls-45" points="4232.31 1047.54 3427.91 1663.23 3503.97 1763.23 4308.36 1147.54 4232.31 1047.54"/><path class="cls-50" d="M3771.22,1400.46l-212,162.27q-3.3,9.51-6.5,19.07c-19.2,57.57-37.13,115.63-54.5,173.86l5.76,7.57,205.25-157.1c15.85-67.07,34.12-133.47,59.17-198.29Q3769.82,1404.17,3771.22,1400.46Zm122.49-93.76-41.49,31.77c-17.66,66.35-36,132.55-53.32,199l62.36-47.73Q3877,1398.11,3893.71,1306.7Zm302.95-231.87-252.08,192.94c-8.18,59.52-17.07,118.88-26.15,178.22l251.32-192.36Q4184.18,1164.51,4196.66,1074.83Z"/><ellipse class="cls-47" cx="4223.27" cy="1094.84" rx="16.21" ry="16.26"/><path class="cls-48" d="M4264.23,1132.66l2.75-2.11,13.12,17.24-2.76,2.11Zm-86.49,66.2,2.75-2.11,13.12,17.24-2.76,2.11Zm-86.5,66.2L4094,1263l13.11,17.25-2.75,2.11Zm-86.49,66.2,2.76-2.11,13.11,17.25-2.76,2.11Zm253.63-182.35,2.76-2.11,7.45,9.8-2.76,2.11Zm-340.12,248.55,2.75-2.1,13.12,17.24-2.76,2.11Zm-86.5,66.21,2.76-2.11,13.12,17.24-2.76,2.11Zm-86.49,66.2,2.76-2.11,13.11,17.24-2.76,2.12Zm426.62-314.76,2.75-2.11,7.46,9.8-2.76,2.11Zm76.38-58.47,2.76-2.11,7.46,9.81-2.76,2.11Zm-589.49,439.43,2.75-2.11,13.12,17.25-2.76,2.11Zm426.61-314.76,2.76-2.11,7.45,9.81-2.75,2.11Zm152.78-116.93,2.76-2.11,7.45,9.8-2.75,2.11Zm-665.88,497.89,2.75-2.11,13.12,17.25-2.76,2.11Zm426.61-314.76,2.76-2.1,7.45,9.8-2.75,2.11Zm229.17-175.4,2.75-2.11,7.46,9.8-2.76,2.11Zm-66.29,50.73,2.76-2.1,7.45,9.8-2.75,2.11Zm56.18-43,2.76-2.11,7.45,9.81-2.75,2.11Zm-66.28,50.74,2.75-2.11,7.46,9.8-2.76,2.11Zm-239.27,183.14,2.75-2.11,7.46,9.8-2.76,2.11Zm162.88-124.67,2.76-2.11,7.45,9.8-2.76,2.11Zm-86.49,66.2,2.75-2.11,7.46,9.8-2.76,2.11Zm152.77-116.94,2.76-2.11,7.45,9.81-2.75,2.1Zm-315.65,241.61,2.75-2.11,7.46,9.8-2.76,2.11Zm381.94-292.34,2.75-2.11,7.46,9.8-2.76,2.11Zm-142.67,109.2,2.75-2.11,7.46,9.8-2.76,2.11Zm132.56-101.47,2.76-2.11,7.45,9.8-2.75,2.11ZM3978.69,1363l2.76-2.11,7.45,9.81-2.75,2.1Zm-76.39,58.47,2.76-2.11,7.45,9.8-2.75,2.11Zm229.17-175.4,2.76-2.11,7.45,9.8-2.76,2.11Zm-76.39,58.46,2.76-2.1,7.45,9.8-2.75,2.11Zm-315.65,241.61,2.75-2.11,7.45,9.8-2.75,2.11Zm76.38-58.47,2.76-2.11,7.45,9.81-2.75,2.1Zm76.39-58.47,2.76-2.1,7.45,9.8-2.76,2.11ZM4045,1312.25l2.75-2.11,7.46,9.8-2.76,2.11Zm-392.05,300.07,2.76-2.11,7.45,9.8-2.76,2.12Zm315.66-241.6,2.75-2.11,7.46,9.8-2.76,2.11Zm152.77-116.94,2.76-2.11,7.46,9.8-2.76,2.11Zm-10.1,7.73,2.76-2.11,7.45,9.81-2.75,2.11Zm-381.94,292.34,2.75-2.1,7.46,9.8-2.76,2.11Zm-162.88,124.67,2.75-2.1,7.46,9.8-2.76,2.11Zm239.27-183.13,2.75-2.11,7.46,9.8-2.76,2.11Zm152.77-116.94,2.76-2.11,7.45,9.8-2.75,2.11Zm-76.38,58.47,2.75-2.11,7.46,9.8-2.76,2.11ZM4034.87,1320l2.76-2.11,7.45,9.8-2.75,2.11Zm-10.1,7.74,2.75-2.11,7.46,9.8-2.76,2.11Zm-229.17,175.4,2.76-2.11,7.45,9.8-2.75,2.11Zm76.39-58.47,2.76-2.11,7.45,9.8-2.75,2.11Zm-152.77,116.93,2.75-2.1,7.46,9.8-2.76,2.11Zm-76.39,58.47,2.75-2.1,7.46,9.8-2.76,2.11Zm305.55-233.87,2.76-2.11,7.45,9.81-2.76,2.11Zm-239.27,183.14,2.75-2.11,7.46,9.81-2.75,2.1Zm-76.39,58.47,2.75-2.11,7.46,9.81-2.75,2.1Zm152.78-116.94,2.75-2.11,7.46,9.81-2.76,2.11Zm76.39-58.46,2.75-2.11,7.46,9.8-2.76,2.11Zm76.39-58.47,2.75-2.11,7.46,9.8-2.76,2.11Zm-382,292.34,2.76-2.11,7.46,9.8-2.76,2.11Zm219.06-167.67,2.76-2.11,7.45,9.8-2.75,2.11Zm76.39-58.47,2.76-2.11,7.45,9.8-2.75,2.11ZM3546.23,1694l2.75-2.11,7.46,9.81-2.75,2.1ZM3699,1577.06l2.76-2.12,7.46,9.81-2.76,2.11Zm-76.38,58.46,2.75-2.11,7.46,9.81-2.75,2.1Zm66.28-50.73,2.76-2.11,7.45,9.8-2.75,2.11Zm-152.78,116.94,2.76-2.12,7.46,9.81-2.76,2.11Zm76.39-58.47,2.76-2.11,7.45,9.8-2.75,2.11Zm152.78-116.93,2.76-2.12,7.45,9.8-2.76,2.12ZM3526,1709.46l2.76-2.11,7.45,9.8-2.75,2.11Zm152.78-116.93,2.76-2.12,7.45,9.8-2.76,2.12ZM3602.41,1651l2.76-2.11,7.45,9.8-2.76,2.12Zm-86.49,66.2,2.75-2.1,7.45,9.8-2.75,2.11Zm76.39-58.47,2.75-2.1,7.45,9.8-2.75,2.11Zm-86.49,66.2,2.75-2.1,7.45,9.8-2.75,2.11Z"/><polygon class="cls-49" points="4300.85 1137.66 3496.45 1753.35 3503.97 1763.23 4308.36 1147.54 4300.85 1137.66"/><path class="cls-51" d="M657.14,473.62c-20-30.41-51.79-81.34-59.44-124-5.79-32.3.91-60.63,24.46-79.63,25.34-20.43,70.46-28.72,120.12-26.31,68.26,3.3,144.85,25,180.28,46.68,29.08,17.79,41.43,51.85,43.18,87.57l-3.42,27.24A217,217,0,0,1,1054,626.81c-22.92,117.28-136.45,193.83-253.36,170.83S607.47,660.74,630.4,543.46A216.09,216.09,0,0,1,657.14,473.62Zm258.1-92.3c0-.3,0-.6,0-.91-.91-18.45-4-37.54-19-46.74C865.53,314.9,799,297.22,739.85,294.36c-35.26-1.7-68,.67-86,15.18-6.48,5.22-7.84,13-7.48,21.44.38,9,2.81,18.73,6.26,28.66,8.76,25.18,23.94,51.27,37.28,72.05,49.14-49,120.83-73.42,193.84-59.06A217.13,217.13,0,0,1,915.24,381.32Z"/><path class="cls-52" d="M629.61,622.72c9.87,10,22.66,17.8,32.07,27.86,15.51,16.58,39.14,28.79,59.6,37.82,66.52,29.38,164.19,32.68,233,8.8,30.5-10.59,57.16-26.2,84.07-43.93,2.6-1.71,6.69-5,11.32-8.22-30.54,106.86-138.25,174.38-249,152.59C710.64,779.93,644.69,708.29,629.61,622.72ZM672.9,403.4c5.53,9.93,11.33,19.41,16.83,28-7.8,13.41-23.31,29.62-33.32,41.12-8.7-13.28-19.5-30.27-29.55-48.7a20.74,20.74,0,0,0,6.18,3C647.23,430.82,661.11,411.6,672.9,403.4Z"/><path class="cls-53" d="M814.11,252.93c44.52,9,85.29,23.23,108.46,37.41,29.07,17.79,41.42,51.86,43.18,87.57l-3.43,27.24a216.91,216.91,0,0,1,4.54,356.75c-76.18-17.71-27.12-144.37-76.72-187.38-44.6-38.69-148.41-32.94-153.52-111.41-.82-12.56,6.29-25.41,13.87-34.82,31.31-38.86,85.16-30,129-21.53,20.42,3.95,48.32,12.59,58.87-12.22,3.94-9.27,3-20.46,1.87-30.17-7.17-62.17-55.11-82.15-107.56-103C826.32,258.84,820.21,255.87,814.11,252.93Z"/><ellipse class="cls-54" cx="936.68" cy="462.2" rx="42.22" ry="109.09" transform="translate(20.49 963.79) rotate(-54.96)"/><ellipse class="cls-55" cx="979.27" cy="494.76" rx="28.4" ry="84.23" transform="translate(-98.5 700.11) rotate(-37.59)"/><path class="cls-56" d="M837.24,265c-50-10.29-103.14-20-154.34-12.89-12.38,1.72-24.35,4-35.61,9.49-4.45,2.18-11,5.39-10.15,11.38,1.36,9.65,19.77,5.42,25.42,5.12,1.56-.09,4.34-.21,5.94-.36,33.74-3.27,67.46-9.32,101.43-9.76,17.43-.22,34.36,2,51.73,3,6.75.37,13.49,1.69,20.25,2.14,2.31.16,4.93-2.22,2.53-4.14"/><path class="cls-57" d="M1051.21,530.85a216.18,216.18,0,0,1,2.84,96C1031.12,744.1,917.59,820.64,800.68,797.64,709.84,779.77,643.52,707,629.21,620.45c1.41,1.55,2.71,3,3.86,4.13,16.48,16.28,26.76,37.15,44.76,52,47.94,39.47,97.73,55.15,159.89,53.14,35.35-1.15,76-6.81,107-25C1000.33,672.24,1046.16,600.46,1051.21,530.85Z"/><path class="cls-58" d="M646.36,330.17c-1.33-5.05-2.32-10-.71-15.36,4.37-14.54,24.72-24.89,38.12-28.66,17.45-4.92,35-3.18,52.79-3.21a500.13,500.13,0,0,1,97.82,9.91c17,3.34,34.87,6.77,50.63,14.18,21.6,10.15,42.61,23.31,49.19,47.66,2.15,7.94.69,17.38.49,25.48,0,1.31.65,8.18-.81,8.92-2.26,1.15-13-4.86-15.26-5.64-10.41-3.61-20.89-6.44-31.22-10.07a216.85,216.85,0,0,1,27.84,7.94c0-.3,0-.6,0-.91-.91-18.45-4-37.54-19-46.74-30.68-18.77-97.27-36.45-156.36-39.31-35.26-1.7-68,.67-86,15.18C647.6,314.6,646.13,322,646.36,330.17Z"/><path class="cls-51" d="M4154,691.14c25.46-26,66.48-69.77,82.21-110.15,11.9-30.58,10.79-59.68-8.66-82.88-20.93-25-63.6-41.84-112.79-49.11-67.61-10-146.93-3.56-185.88,10.85-32,11.82-50.63,42.85-59.23,77.55l-1.89,27.39A216.73,216.73,0,0,0,3735,764.49c-.1,119.52,96.54,216.63,215.68,216.73s215.94-96.86,216-216.38A216.49,216.49,0,0,0,4154,691.14ZM3918.5,550.54c.07-.3.14-.59.22-.89,4.44-17.92,11.13-36.06,27.63-42.17,33.72-12.47,102.46-16.91,161-8.25,34.92,5.16,66.58,13.83,81.43,31.55,5.35,6.39,5.19,14.28,3.21,22.49-2.11,8.77-6.36,17.83-11.66,26.9-13.45,23-33.37,45.67-50.46,63.47-38.78-57.57-104.4-95.47-178.8-95.53A215.7,215.7,0,0,0,3918.5,550.54Z"/><path class="cls-59" d="M4152.25,842.77c-11.62,7.93-25.67,13.07-36.84,21.11-18.4,13.26-43.94,20.66-65.76,25.56-70.93,15.93-167.39.22-230.3-36.55-27.88-16.3-51-36.79-74-59.4-2.22-2.18-5.6-6.18-9.52-10.26,9.38,110.76,102,197.9,214.89,198C4042.46,981.3,4121,923.8,4152.25,842.77ZM4152,619.19c-7.34,8.67-14.86,16.84-21.91,24.19,5.07,14.67,17.16,33.59,24.77,46.8,11.09-11.33,25-25.9,38.38-42a20.86,20.86,0,0,1-6.66,1.78C4171.93,651.06,4162,629.52,4152,619.19Z"/><path class="cls-60" d="M4042.46,444.18c-45.42.24-88.15,6.25-113.61,15.67-32,11.82-50.64,42.85-59.24,77.55l-1.89,27.39a216.89,216.89,0,0,0-73.18,349.14c78.16-2.61,54.42-136.38,111.37-169,51.22-29.31,152-3.55,172.1-79.55,3.22-12.16-1.28-26.14-6.91-36.85-23.23-44.2-77.76-46-122.4-46.13-20.79-.08-49.83,3-55.4-23.4-2.08-9.86,1-20.66,4-30,19-59.6,69.9-69.91,125.38-80.22C4029.35,447.6,4035.91,445.87,4042.46,444.18Z"/><ellipse class="cls-61" cx="3881.88" cy="625.73" rx="109.04" ry="42.24" transform="translate(78.8 1624.3) rotate(-23.87)"/><ellipse class="cls-62" cx="3833.82" cy="649.42" rx="84.18" ry="28.42" transform="translate(523.85 2690.01) rotate(-41.27)"/><path class="cls-56" d="M4017.45,451.48c51.07-.39,105.06.35,153.91,17.28,11.82,4.09,23.13,8.62,33.12,16.21,3.94,3,9.74,7.43,7.76,13.14-3.19,9.2-20.44,1.48-25.92.09-1.52-.38-4.23-1-5.76-1.5-32.48-9.75-64.4-22.22-97.64-29.24-17.06-3.6-34.11-4.69-51.33-7.13-6.69-.94-13.56-.95-20.27-1.82-2.31-.3-4.42-3.14-1.7-4.56"/><path class="cls-63" d="M3756.29,670.88A216,216,0,0,0,3735,764.49c-.1,119.52,96.54,216.63,215.68,216.73,92.57.08,171.66-58.44,202.37-140.61-1.68,1.26-3.23,2.42-4.58,3.31-19.3,12.78-33.42,31.26-53.93,42.31-54.64,29.43-106.51,35.16-167.11,21.14-34.46-8-73.25-21.42-100.21-45.24C3779,819.47,3747.84,740.16,3756.29,670.88Z"/><path class="cls-58" d="M4192.17,552.48c2.27-4.69,4.2-9.35,3.65-14.93-1.48-15.12-19.45-29.21-31.87-35.52-16.18-8.2-33.72-9.89-51.18-13.38a500,500,0,0,0-97.88-9.24c-17.34,0-35.53-.11-52.42,4.1-23.15,5.77-46.29,14.61-57.44,37.22-3.64,7.38-4,16.92-5.39,24.91-.22,1.29-2.21,7.89-.92,8.9,2,1.57,13.69-2.24,16.06-2.57,10.91-1.52,21.74-2.27,32.57-3.83a215.88,215.88,0,0,0-28.85,2.4c.07-.3.14-.59.22-.89,4.44-17.92,11.13-36.06,27.63-42.17,33.72-12.47,102.46-16.91,161-8.25,34.92,5.16,66.58,13.83,81.43,31.55C4194,537,4194,544.55,4192.17,552.48Z"/><text class="cls-64" transform="translate(3716.59 1872.5)">86 F</text><text class="cls-64" transform="translate(3460.58 1175.05)"><tspan class="cls-65">1</tspan><tspan x="47.19" y="0">1.8 Inch</tspan></text><text class="cls-64" transform="translate(3155.05 692.31)"><tspan class="cls-65">1</tspan><tspan x="47.19" y="0">1 Pounds</tspan></text><rect class="cls-35" x="3401.71" y="740.49" width="412.14" height="6.93"/><rect class="cls-35" x="3638.99" y="1196.69" width="412.14" height="6.93"/><rect class="cls-35" x="3724.28" y="1887.37" width="412.14" height="6.93"/><path class="cls-8" d="M2987.88,3097.21c-7,29.78-13.72,59.44-18,88.62-4.41,29.93-8,132.88-33.11,150.41-31.11,21.66-181.25,13.87-217.82,13.57-3.81,0-17.33,1.53-19.55-3.2-2.67-5.69,27.7-242.11,34.91-254.88,8.95-15.88,35.84-43,28.78-62.85-2.51-7.08-9.85-16.32-9.63-23.86.22-8,10.33-14.4,11-22.08a270.67,270.67,0,0,0,.27-38.73l-57-551.43,35.65-279.26s271.5-239.46,275.72-86.15c2.12,76.6,3.16,165,4,249.91,1.73,11.43,3.24,22.87,4.32,33,4.46,42.11-1.33,80.41-1.33,82.79,0,11.45.23,22.68.05,34.11-.54,36-.18,71.6-.05,107.59.08,20.82-1.29,88.34.45,109.06,1.06,12.36,4.81,48.49,3.46,61.7-5.12,50.51-3.3,100.17-1.75,151.32.34,11.24-2.65,23.87-.8,35,1.34,8,5.86,16.1,6.71,23.63,1.81,15.89-17.71,23.45-16.9,36.74.28,4.59,4.84,8,5.9,12.42,7.44,30.38-15.59,45.74-21.34,74.24-3.51,17.38,2.08,41.51-6.07,57.74C2995,3097.87,2991.9,3097.94,2987.88,3097.21Z"/><path class="cls-66" d="M2933.39,2942.69c-28.2-2.43-54.4-52.05-67.47-74-36.59-61.27-45.12-138.93-69.74-205.63-9.46-25.63-23.85-49-32.68-74.89-11.65-34.14-25.83-68-35-102.82-.29-1.13-2.41-11-4.9-11.55s-1.36,31-1.17,32.84c3.4,33,9.6,65.93,14.2,98.73,9.44,67.14,21.9,135,26.69,202.65,2.22,31.48-5.12,74.16,6.26,103.77,14.48,37.67,122.12,69.89,140,45.25"/><path class="cls-67" d="M2803.82,2064.66l22.81,8.3c28.42,112.75,29,226.37,35.42,341.88,10.83,195.54,24.37,392.58,27,588.39.27,19.32-31.27,18.18-29.9,35.54,1,13,20.55,14.51,18,32.1-2.26,15.79-25.47,24-34.67,36.39-20.48,27.46-29.37,63.15-38.45,95.61-13.63,48.63-21.75,98.57-31.28,148.16-23.63-.44-43.43-1.14-53.91-1.23-3.8,0-17.33,1.55-19.54-3.19-2.66-5.69,27.71-242.1,34.91-254.88,8.94-15.88,35.84-43,28.79-62.86-2.51-7.07-9.86-16.32-9.64-23.85.22-8,10.32-14.41,11-22.07a267.81,267.81,0,0,0,.28-38.73l-46.35-448.42c17.67-101.82,33.38-204.22,50.52-305.89,5.8-34.38,5.25-71.76,11-106.67C2787.09,2077.5,2795.15,2071.2,2803.82,2064.66Z"/><path class="cls-68" d="M2803,2065.31l.86-.66,22.8,8.3c28.43,112.76,29,226.38,35.43,341.89,10.84,195.55,24.37,392.59,27.05,588.39.27,19.32-31.27,18.19-29.9,35.53,1,13,20.55,14.52,18,32.11-2.26,15.79-25.47,24.05-34.67,36.39-20.48,27.47-29.36,63.15-38.46,95.61-13.63,48.61-21.74,98.56-31.27,148.16l-1.83,0c9.27-49.59,17.17-99.53,30.45-148.14,8.87-32.46,17.54-68.14,37.49-95.61,9-12.34,31.59-20.6,33.8-36.39,2.47-17.59-16.57-19.08-17.58-32.11-1.33-17.34,29.4-16.21,29.15-35.53-2.62-195.8-15.81-392.84-26.37-588.39-6.24-115.51-6.82-229.13-34.53-341.89ZM2711,3350c3.09,0,6-.24,7.41-.22h.13C2716.93,3349.83,2714.07,3350,2711,3350Z"/><path class="cls-69" d="M2708.26,2398.2l-.55-5.43,35.64-279.24s271.52-239.47,275.74-86.16c1.56,56.85,2.55,120.17,3.27,183.74-14.66,15.07-30,29.73-46.2,43.9C2898.72,2322.54,2805.24,2366.59,2708.26,2398.2Z"/><path class="cls-8" d="M2700.11,3065.5c-5.81,20.88-12,41.66-15.09,62.84-3.12,21.39-27.29,182.6-32.72,188.17-14.75,15.07-144.73-.48-167.64-.48-27.22,0-82,7.37-105.46-8.85-1.21-.85-3.65-1.46-3.34-2.9,9.21-43.3,17.26-87.81,22.84-132,2.78-22-4.56-46.1-1-67.56,3-18.11,19.18-32.9,23.33-50.76a251,251,0,0,0,5.46-38.64l-.6-.32s-32.88-690.23-31.39-807.2,71.8-168.34,71.8-168.34l331.42,212.84s-10.32,65.08-23.11,159c-1.1,22-1.77,44-4.21,65.76-6.24,55.76-16.4,111.59-19.43,167.69-.75,13.84-2.8,30.56-1.08,44.35,1.08,8.66,5.5,14.57,4.41,24-1,8.47-7.58,15.74-8.54,24-4,34.5-5.76,69.18-8.94,103.78-3.28,35.59-6.59,71.76-8.91,107.35-.36,5.46,5.35,9.17,4.26,16-2.73,17.08-16.09,35.46-20.75,52.41l-.18.68c-.7,4.59-1.54,9.17-2.49,13.74-.89,8.09-1,15.76-2.66,24.6-.19,1-2.75,17.31-3.14,17C2701.6,3071.67,2700.69,3069.09,2700.11,3065.5Z"/><path class="cls-70" d="M2569.24,2105.59l3,21.76c-15.64,68.45-.2,150.24-1.56,219.86-2.88,146.62-8.78,291.64-16.8,437.91-2.94,53.44-.66,129.8-25.86,179.44-9,17.72-28.7,23.14-32.46,43.83-2.22,12.19,18.82,14.2,17.48,27-1.84,17.74-37,21.44-37,35.83,0,13,157.11,48,165.68,79.41,1,3.72-14,6.49-15.66,7.06-11.46,3.92-117,36.27-118.13,40.27-5.76,21.07,1.91,50.46.35,72.43-.64,8.86-3,26.25-7.2,46.52-7.32-.54-13-.87-16.4-.87-27.23,0-82,7.37-105.45-8.86-1.21-.83-3.66-1.45-3.34-2.89,9.19-43.29,17.26-87.82,22.84-132,2.79-22-4.57-46.11-1-67.55,3-18.13,19.19-32.9,23.34-50.77a253.31,253.31,0,0,0,5.45-38.63l-.58-.33s-32.91-690.23-31.4-807.19,71.79-168.36,71.79-168.36Z"/><path class="cls-71" d="M2428.39,2431.77c-1.91-4.48-4.31,19.77-4.49,21.41-1.52,13.76-4.18,27.39-5,41.22-3.57,58.14,21.41,76.47,35.3,127.72,16.37,60.3,33.38,123,42.26,184.93,15,105,4.23,132.58,108.6,150.58,21.53,3.71,35.89,11.81,57.14,5.53,8.16-2.42-2.91-39.18-3-43.56-.06-3.18,6.29-33.79,1.91-36.44-8.28-5-21.58,5.6-31,5.12-28.71-1.43-49-27.55-59.25-52.31-47.62-115.41-61.41-249.65-82.69-371.77"/><path class="cls-72" d="M2432.3,3317.7c18-.07,36.08-1.67,48.33-1.67h1.47C2469,3316.23,2450.54,3317.75,2432.3,3317.7Zm32.43-1277c1-.82,1.55-1.22,1.55-1.22l102.94,66.11,3,21.75c-15.64,68.46-.2,150.25-1.57,219.87-2.89,146.61-8.77,291.64-16.8,437.91-2.93,53.44-.65,129.79-25.85,179.43-9,17.74-28.71,23.14-32.47,43.83-2.23,12.21,18.82,14.2,17.49,27-1.85,17.74-37,21.45-37,35.83.05,13,157.11,48.06,165.69,79.43,1,3.71-14,6.47-15.66,7-11.47,3.91-117.06,36.27-118.15,40.26-5.75,21.09,1.92,50.47.35,72.44-.63,8.87-3,26.25-7.19,46.52-1.61-.12-3.14-.23-4.58-.32,4-20.14,6.26-37.38,6.87-46.2,1.5-22-5.88-51.35-.35-72.44,1.06-4,102.72-36.35,113.77-40.26,1.63-.58,16.06-3.34,15.08-7-8.26-31.37-159.5-66.46-159.54-79.43,0-14.38,33.81-18.09,35.59-35.83,1.28-12.79-19-14.78-16.84-27,3.62-20.69,22.59-26.09,31.26-43.83,24.27-49.64,22.07-126,24.89-179.43,7.73-146.27,13.4-291.3,16.18-437.91,1.32-69.62-13.55-151.41,1.52-219.87l-2.87-21.75Z"/><path class="cls-73" d="M2397,2330.78c-1.8-56.32-2.79-100.35-2.49-123,1.5-117,71.79-168.36,71.79-168.36l331.43,212.85s-6.79,42.74-16.15,108.93c-49.75,11.81-84.82-33.46-145.35-47-56.77-12.66-130.39,6.3-186.95,10.81C2441.3,2325.75,2420.35,2328.46,2397,2330.78Z"/><path class="cls-74" d="M3016,1121.58l20.17,18.5,136.32,384.77s14.83,174.34-119.94,244.49l-69.43-55.5Z"/><path class="cls-16" d="M3054.48,1601.44s20.4-60.06,64.09-94.71l55.51,32.75-61.84,234s-36.85-10.9-52.24-81.17S3054.48,1601.44,3054.48,1601.44Z"/><path class="cls-45" d="M3022.34,1124.87s-150-109-341.6-94.25-341.17,133.52-341.17,133.52,1.24,102.93,44.8,264.39,50.25,195.67,65,257.82,4.26,74.59,5.67,91.45,25.23,32.62,21.15,44.67-7.2,37.14-15.48,46.77-74.89,288.86-67.57,334.1,274.94,39,360.75,85.8,219.17-66,280.63-177.57,25.36-54.21,18-184.58-32.85-305.57-24-386.37S3040.08,1248.82,3022.34,1124.87Z"/><path class="cls-75" d="M2880,1085.34c-63.33,31.41-132.3,61.26-192.3,98.87-22.32,14-63.11,40-69.19,68.6-6.29,29.57,52.33,59.17,72.54,67.62,59.95,25.07,236.06,99.89,297.06,74.52,43.73-18.19,37.29-76.22,39.86-115.86,4.4-67.89,1.08-153.18-70.35-182.85-18.16-7.55-38.62-9.66-57.36-15.89"/><path class="cls-76" d="M3212.09,1076.28s-23.12-93.79-24.57-124.17-24.06-70.84-36.75-71c0,0,7.88,117.61,6.66,147.62-1.45,29.93,4.78,72.12,4.78,72.12Z"/><path class="cls-76" d="M3311.31,1226c20.29-51.54,32.84-105.13,22.66-136.11l-68.54,84.36Z"/><path class="cls-76" d="M3198.25,1047.92s40.29-36.48,49.77-38.19,28.26,12.43,39.19,9.41,20,5.09,31.29,4,7.37,10.11,18.09,13.15,2.14,56.94-1.89,68.38-43.26,68.72-49.39,65.66-82.32-6.84-82.32-6.84Z"/><path class="cls-77" d="M3336.14,1099.5c-5.33,10-24.76,7.13-23.5-6.76,2.39-23.49,7.07-46.22,7.62-69.54-.77,0-1.23-.15-2-.15-6,.55-11.48-1.51-16.84-3a83.23,83.23,0,0,1,6.49,22.85c2.49,16.42,7.07,42-5.67,55.11-1.9,1.93-6.11,2.32-8,.41-11.8-10.56-7.95-28.45-7.38-42.57.73-13,1.62-25-.93-36.6-5.13.86-11.56-1.27-18.14-3.71,3.85,9.2,6.85,18.63,7.57,29.6,1.21,21.86-.88,43.66-9.39,64.1-2.51,6.07-11.38,5.94-12.93-1-4.49-20.4,0-40.13.38-60.69.27-11.67-2.21-25-2.17-37.52a8.18,8.18,0,0,0-3.59.08c-9.48,1.72-49.77,38.2-49.77,38.2l4.82,115.32s76,3.71,82.32,6.84c6.12,3,45.52-53.92,49.39-65.67A21.26,21.26,0,0,0,3336.14,1099.5Z"/><path class="cls-76" d="M3203.4,1259.46c-11.71-22.75-61.65-120.58-61.61-133.65,0-14.8,11.08-32.1,11.08-32.1s86.47-44.44,105.75-69c0,0,5.12,25.46-13.48,51s-30.55,43.29-30.55,43.29,3.07,34,22.65,34.85c19.35.79,88,28.39,80.38,53.73-6.38,20.64-17.12,50.39-20.84,60.61l.28.06s-5,100.83-12.67,244.59-79.89,229.39-110.47,250.81-75.31,35.1-90.45-35.89-5.23-118.31,36.33-220.78C3155.48,1419,3193.4,1293.21,3203.4,1259.46Z"/><path class="cls-77" d="M3192.18,1237.47c4.42,4.22,8.79,8.23,13,12,5.53,5,32.43,19.61,32.13,28.6,0,.77-17.26,17.74-19.42,21.86-10,19.11-14.91,42.32-20.6,63-6.34,23-7.56,46.33-12,69.65-6.84,36.08-19.76,71-28.59,106.6-5.35,21.56-5.41,43.6-13.15,64.42-3.91,10.53-20.05,15.8-25.28,26.45-13.61,27.76-19,56.41-14.56,87.25,1.61,11.21,5.83,21.54,9,32.25.95,3.15,2.58,6.2,3.62,9.31.43,1.36,2.75,4,1.33,4.06-7.28.06-15.65-11.48-20.16-16.41-14.79-16.24-18.09-41-20.3-62.56-2.83-46.61,8.2-89.83,35.61-159.49,10.68-27.14,24.75-63.36,32.38-84.84,26.73-75.21,50.59-154.45,58.21-180.19C3201,1254.81,3197,1247,3192.18,1237.47Z"/><path class="cls-78" d="M3250.93,1156.36l21.78-38.27-13.89,40.63Z"/><path class="cls-79" d="M2862.91,2283.53a9.93,9.93,0,0,1-3.87.24c-33.19-5.85-69.69-33.23-96.08-52.12-3.38-2.42-28.86-23.33-30.72-21.45-1.09,1.11,6,44.06,5.78,47.6-.34,4.82-6.46-7.23-10.24-10.21-10.78-8.49-24-13.71-35.24-21.57-14.44-10.06-74.07-42.56-76.33-59.05-1.56-11.23,21.5-126.07,23.8-130.59,8.73-17,50.59-24.46,42-46.79-13.22-34.5-121.46-40.56-132.78-62.49-.08-.14,13.85-9.69,47.22-32.3,25.27-17.12,53.51-30.85,81.94-41.61,32-12.11,75.16-16,101.57-39.66,32.51-29.19,75.13-153.88,69.52-190.78-4.43-29.1-31.75-79.88-20.13-107.94,5.34-12.87,26.26-36.86,48.54-58.84a77,77,0,0,0-17.36-17.51c-.72-.49-1.44-1-2.14-1.44-107.46,13.66-239,17.65-309.61-41-51.88-43.09-68.49-108.33-111.54-156.31-23.11-25.76-55.79-41-85.06-59.5-4.11-2.59-8.24-5.22-12.38-7.93,1.28,27.34,8.15,121.36,44.52,256.2,43.57,161.47,50.24,195.67,65,257.82s4.26,74.61,5.67,91.46,25.24,32.61,21.15,44.66-7.2,37.15-15.48,46.78-74.88,288.86-67.58,334.09,274.94,39,360.76,85.81C2785.72,2306.49,2824.08,2301.9,2862.91,2283.53Zm48.06-29.31-2.85,1.61c-4,2.27-12,8.38-20.59,14.31C2895.4,2265.3,2903.22,2260,2911,2254.22Z"/><path class="cls-80" d="M2633.66,2051.36c1.8,25.68-20.39,64.07-31.64,86.21-11,21.63-22.09,47.36-41.05,63.29-45.15,37.95-137.44,38.37-160.57-27.85-5-14.29-8.56-44.54-4.21-59.61,6.45-22.32,66.18-96.06,88-104.51,11.62-4.51,26.21-2,38.44-2,19.62,0,54.08-1.91,71.71,8.05,11.32,6.4,5.33,24.93,19.67,27.46"/><path class="cls-81" d="M2343.64,1218.79c14.3,12.57,33.92,22.61,44.43,37.08,40.94,56.45,63.86,128.23,77.39,196,10.4,52.15,12,104.52,18.29,156.92,4.63,38.26,16.75,75.18,24.54,112.72,4.68,22.56-17.64,52.13-13.18,62.33,14.84,34,48.6,38.23,80.75,38.23,1.07,0,9.06-.37,9.72,1.49,2.4,6.69-30,16.73-33.86,19-20.62,12.18-43.18,32-56.85,51.87-27.06,39.41,14,37.88,16.27,76.22,1.25,20.82-20.53,31-26.36,49.29-18.67,58.65-33.62,151.24-34.29,211.51-33-6.89-55.31-15.51-57.34-28.16-7.33-45.23,59.3-324.46,67.57-334.08s11.39-34.73,15.48-46.78-19.74-27.82-21.15-44.67,9.09-29.31-5.67-91.45-21.45-96.36-65-257.82C2359.75,1337.22,2348.64,1264.63,2343.64,1218.79Z"/><path class="cls-82" d="M2646.42,2111.2c26.64,7.62,57.14,17.44,85.29,16.14,54.75-2.51,128.93-55.64,172.65-85.72,24.09-16.56,47.11-35.21,70.27-53,7.5-5.77,15.29-11.26,22.64-17.19a113.92,113.92,0,0,1,10.48-8.08c.65-.42,1.93-2.1,1.92-1.34-.1,8-14.22,21.23-18,26.16-13.13,17-26.78,33.77-40.31,50.44-23.29,28.71-49,55.28-74.56,82.1-8.2,8.63-19.65,22.57-30.76,27.6-17.05,7.75-42.6,9.16-61.24,8-19.85-1.2-38.54-11.4-58.07-15.84"/><path class="cls-83" d="M2968.12,1932.45c-13.95,5-26.93,15.78-40.47,22.35-31.56,15.29-63.52,29.58-94.88,45.31-29.64,14.88-58.85,30.3-88,46-30,16.11-61.23,30-90.36,47.52-2,1.2-25.8,12.13-24.73,15.42,1.93,5.92,21,.27,24.25-.43,29.15-6.15,56.77-18.66,85.71-26.11,65.79-16.93,141.42-33.63,196.84-74.82,12.87-9.55,22.27-24.3,32.54-36.41,12.06-14.25,36.89-35.41,34.75-56.51"/><path class="cls-84" d="M2943.59,1482.79c-76.69,22.24-161.09,23.19-240.34,26.09-25.73.94-51,5.63-76.69,7.21-8.44.52-16.85,1.08-25.28,1.75-3.92.32-15.2,0-11.66,1.65,20.94,10,84.89-.79,107.93-2.29,67.35-4.37,135-2.48,202.32-6.63,12-.74,95.23-12.21,79.22-36.32"/><path class="cls-27" d="M2587,816c.77,1.87.6,11,.67,12.09.85,13.74,3.43,27.26,5.71,40.82a850.73,850.73,0,0,1,11.37,129.63c.2,14.56,1,29.11,1.9,43.64-18.94,4.15-37.31,9.09-54.91,14.58,21.53,14.64,51,28.75,67,37,60.33,31.32,141.48,37.67,196.83-6.28,4.76-3.79,28.67-23.21,41.23-38.36-15-3.72-31-11-47.21-13.61-5.19-9.47-4.93-28.23-7.62-38.47-4.35-16.51-10-35.46-21.78-48.86-12.34-14.05-40.11-21.87-56.78-29.51-32.85-15-62.7-34.21-94.59-50.75L2587,816c-.09-.19-.18-.31-.28-.33Z"/><path class="cls-16" d="M2798.46,1005c-4.35-16.52-6.56-43.42-18.32-56.81-12.34-14.05-40.11-21.87-56.78-29.51-32.85-15-62.7-34.21-94.59-50.75L2587,816c-.09-.19-.18-.31-.28-.33l.28.33c.77,1.87.6,11,.67,12.09.85,13.74,3.43,27.26,5.71,40.82a850.73,850.73,0,0,1,11.37,129.63c.2,14.56,1,29.11,1.9,43.64-18.94,4.15-37.31,9.09-54.91,14.58,21.53,14.64,51,28.75,67,37a226.09,226.09,0,0,0,36.57,15l0,0c2-3.63,6.89-9.68,5.45-14-3.32-9.89-17.93-11.47-26.94-12.9-2.65-.43-9.39-1.74-8.16-5.7,1.15-3.7,12.77-3.49,15.73-3.52a103.73,103.73,0,0,0,32.68-5.54c3.5-1.12,9.66-2,11-5.82,1.86-5.32-4.63-11.75-8.4-14.7-12.14-9.51-25.52-22.35-25.76-38.4-.12-8.19,3.85-17.93,13.2-20.22,16.07-3.91,35.36,1.94,50.83,5.56,24.12,5.65,47,9.93,71.9,11.23C2790.66,1005,2794.56,1005.08,2798.46,1005Z"/><path class="cls-27" d="M2822.51,623.05h0s.29,3.23.34,3.61c1.07,7.2,2.4,14.28,4.08,21.37,6.27,26.4,14.72,50.65,10.61,77.36-6.06,39.29,8.75,82.44,9.31,122.07.51,35.93-10.29,62.22-19.68,95.11-5.89,20.6-12.47,57.45-32.48,66.27-23.93,10.54-44.28-1.67-66-14.73-43.55-26.21-81.17-58.37-110.94-103.1-9-13.48-16.28-28.74-24-43.14-2.73-5.14-6.09-12.83-10.42-16.65-6-5.29-13.52-8.21-19.45-13.86-14.15-13.51-28.1-31.23-35.68-50-4.66-11.55-8.83-28.47-2.42-39.8,4.8-8.48,11.59-7.77,19.32-4.35,15.06,6.63,19.81,20.65,29.43,33.71,1.54,2.06,12.11,15.56,15.34,12.37,2.41-2.38-.14-10.65-.69-13.59-2.63-14.15-10-26-13.23-39.61-1.31-5.47,0-13,4.07-16.62,2.8-2.5,6-.89,6.43-6.26,1.46-16.75-8.66-42.47,2.57-56.47,2.64-3.31,7.22-4.47,10.68-6.45a45.92,45.92,0,0,1,11-4.92c40.68-11.14,70.52,35.1,148.13,22.69C2795.9,642.09,2822.51,623.05,2822.51,623.05Z"/><path class="cls-16" d="M2779.88,824c7.28-4.57,14.8-8.44,22.24-12.59,3.3-1.85,6.81-4,10.64-3.81,2.23.12,4.47,4,6.09,5.42s3.33,2,4.91,3.2c.89.67,1.67,1.52,2.5,2.27,7.84,7.07-7.61,9.94-10.61,13-2.83,2.9-3,9.93-7.37,10.57-2.8.4-7.39-5.21-9.8-6.84a35.61,35.61,0,0,0-20-6.1"/><path class="cls-16" d="M2527.17,725.44a19.19,19.19,0,0,0-1.35,2.08c-6.41,11.33-2.24,28.25,2.42,39.8,7.58,18.81,21.53,36.53,35.68,50,5.93,5.65,13.48,8.57,19.45,13.86,4.33,3.82,7.69,11.51,10.42,16.65,7.72,14.4,15,29.66,24,43.14,29.77,44.73,67.39,76.89,110.94,103.1,21.68,13.06,42,25.27,66,14.73,5.82-2.56,10.49-7.49,14.35-13.71-7.63,1.48-15.17,1-21.81-2.41-8.05-4.13-11.17-15.28-20.61-19.44-20.36-9-40.19-13.8-52.11-36.9-10.41-20.22-13.37-44.87-19.44-66.77-5.54-20.1-14.24-38.52-24.25-56.36-14.61-26-44.75-37.83-55.72-66.28-3.19-8.28-2.43-19.92-2.28-28.58a87.8,87.8,0,0,1,3.21-20.62c14.75-56.26,76.92-30.25,115.85-30.08,13.26.06,26.39-2.46,39.08-6.14,19.58-5.67,36.69-15.23,53.16-27.15-.46-2.57-.87-5.15-1.27-7.74,0-.38-.34-3.61-.34-3.61l-.3.21A166.16,166.16,0,0,1,2758.84,648c-77.61,12.41-107.45-33.83-148.13-22.69a45.92,45.92,0,0,0-11,4.92c-3.46,2-8,3.14-10.68,6.45-11.23,14-1.11,39.72-2.57,56.47-.47,5.37-3.63,3.76-6.43,6.26-4.06,3.63-5.38,11.15-4.07,16.62,3.24,13.56,10.6,25.46,13.23,39.61.55,2.94,3.1,11.21.69,13.59a1.35,1.35,0,0,1-.42.3c2.79,5.7,9.86,20.63,3,25.14-2.4,1.58-5.56,1.15-8.17.37-6-1.75-17.47-6.72-19.72-14.31-1.4-4.74,6.76-3,7.93-6.1.75-2-.86-5-1.68-6.76a43,43,0,0,0-12-14.6,33.06,33.06,0,0,0-17.77-7c-7-.56-10.74,4.25-14.1-4.7A22.32,22.32,0,0,1,2527.17,725.44Z"/><path class="cls-28" d="M2530.45,715.41c-14.61-22.31-43.91-91-29.67-114.84,9.84-16.51,34.94-24,52.1-29.2,3-.92,13.17,3.35,14,2.33,8.22-9.53,6.76-36.91,17.06-45.12,26.58-21.15,68-17.63,97.15-35.06,10.56-6.3,44.8-36.3,53.35-36.66,12-.5.61,23.3,17.12,20.84,18.26-2.71,73.2-13.38,87.79-8.22,6.95,2.46-13.84,16.47-6.26,22.53,12.06,9.65,34.85,2,47.81-.84,2.16-.48,15.89-5.34,17.07-2.65,11,24.92-11.69,46.61-10.68,58.12.54,6.31,34.69,18.69,36,25,1.66,8-26.61,30.67-32.34,35.54-38.65,32.77-99.08,53.49-148.83,57-25.45,1.8-53.3,2.57-78.52-1.87-8.66-1.53-23.82-5.59-31.83-.63-26.1,16.17-26.91,56-26.91,82.71,0,8,3,36.11-4.79,39.72-17.86,8.26-24.82-37.26-38.27-48.31-2.66-2.18-19.54-12.39-22.69-8.94"/><path class="cls-29" d="M2923.3,573.33c-1.86,9.12-26.94,29.25-32.3,33.8-38.65,32.77-99.08,53.49-148.83,57-25.45,1.8-53.3,2.57-78.52-1.87-8.66-1.53-23.82-5.59-31.83-.63-26.1,16.17-26.91,56-26.91,82.71,0,8,3,36.11-4.79,39.72-14,6.47-21.29-20.08-30.27-37.19,3.22,3.3,6.4,6.62,9.83,9.51.57.48,7.49,5.63,8.47,4.65,2.72-2.74-8.88-40.21-9.44-42.7-2.48-11.1-7.39-23.37-4.24-34.85,2.45-9,12.66-11,12-21.4-1.1-18-16.43-34.69-15.24-53.47.11-1.59,2.1,2.45,2.74,3.91,1.6,3.63,2.53,7.84,4.37,11.34,3.74,7.09,18.7,12.36,25.86,13.95,32.34,7.17,66.91-.6,99.7,3,57.73,6.37,125.8-4.44,176.88-32.44C2896.94,599.55,2911,587.15,2923.3,573.33Z"/><path class="cls-27" d="M2337.85,2010.18c-121.38-115.23-236.88-271-245.38-325.09-16.81-106.81,247.9-502,247.9-502s102.74,246.18,73.84,289.36-147.13,203.71-147.13,203.71,51.13,65.73,80.63,137.7c29.78,72.62,67.52,139.29,87.4,172.63,23-5.52,57.16-14,77.93-20.51,33.55-10.49,61.95,1.67,66.43,7.57s46.4,62.58,56.37,67.11-10.4,27.81-10.4,27.81l-31.22,33.11s-23.28,27-27.49,33.83-25.42,5.15-33.18,2.93-57-5.21-63.91-1.88c-6.31,3-7.15-12.73,11.74-20.1a29,29,0,0,0,6.27-1.93,45.57,45.57,0,0,0-6.27,1.93c-10.94,2.32-35.35,3.12-66.79-22.51-43.13-35.15-77.37-83.55-77.37-83.55Z"/><path class="cls-16" d="M2127.48,1759.3c8.1,10.12,16.56,19.91,23.77,29.7,38.33,52.16,85.16,100,130,146.64,25.4,26.41,57.2,46.3,81.7,73.73,20.21,22.62,62.53,86.83,94.68,86.49.3,0-21.56-19.12-19.29-20.12,6.72-2.95,27.63,7.13,34.77,9.18,5.61,1.61,36.11-.11,38.51,2,6.59,5.76-12.24,8.59-7.33,13.57,5.69,5.74,14.12.62,20.48-.13,14-1.65,26.63-.21,40.54-.19.79,0,4.17.52,4.63-.38,1.77-3.44-28.56-36.38-32.89-40.84-4.67-4.78-10.52-8.79-14.8-13.9-.21-.26-.95-.75-.62-.78,18-2.08,58.14,60.9,73.28,46.87,10.82-10-28.09-60.23-33.78-73.93-.16-.36,2.11.77,2.27.91a121.61,121.61,0,0,1,11.52,11.52c3.15,3.73,38.28,40.66,42.6,31.61,1.5-3.13-16.89-34.15-19.87-38.54-2.15-3.19-4.76-6-7.08-9.06-1.22-1.6-5.21-6-3.52-4.9,12,7.78,16.35,29.28,28.88,36.57,7.57,4.41,12.09-1.94,17.06-6.55a14,14,0,0,0,2.86,1.94c10,4.52-10.4,27.81-10.4,27.81l-31.22,33.11s-23.28,27-27.49,33.83-25.42,5.15-33.18,2.93-57-5.21-63.91-1.88c-6.31,3-7.15-12.73,11.74-20.1a29,29,0,0,0,6.27-1.93,45.57,45.57,0,0,0-6.27,1.93c-10.94,2.32-35.35,3.12-66.79-22.51-43.13-35.15-77.37-83.55-77.37-83.55l.63-.15C2253.63,1930.24,2172.26,1830.77,2127.48,1759.3Z"/><path class="cls-16" d="M2273.54,1684.85c-7.94-2.83-15.25-5.15-20.87-5.63-6.33-.52-60.1,5.65-60.77-4.2-.31-4.39,24.93-2.86,22.71-6.58-3.83-6.39-35.59-17.32-44-24.62-.56-.48-5.2-6.43-4-6.69,14.23-3.07,29.07-6.66,39.24-18.68,4.86-5.74,6.43-17.29,11.4-21.74l6-12.11c33,1.3,68.62-.23,95.68,20.76-28.52,39.07-51.9,70.83-51.9,70.83S2269.48,1679.28,2273.54,1684.85Z"/><path class="cls-45" d="M2342.64,1163.16s-64.1,69.42-111.56,148.49-130,228.2-130,228.2,112.06,170.69,210.51,98.55l117.33-163.52s18-151.94-24.32-222.37S2342.64,1163.16,2342.64,1163.16Z"/><path class="cls-85" d="M2318.25,1201c-24.28,33.49-50.21,67.85-70.5,103.91-11.87,21.13-23.8,42.17-35.38,63.47-12.45,22.89-26,48.72-32.95,74-1.41,5.12-2.89,10.19-4.25,15.33-.79,3-5.28,8.95-2.2,9,4.63.12,13.08-14.11,15.51-17.26,18-23.32,34.91-47.29,53.28-70.35,11.5-14.44,22-29.72,33.79-43.91,15-18,30-35.92,44.33-54.48,16.91-21.92,55-56,33.74-88.26-3.85-5.86-9.41-10.18-14.43-15.06"/><path class="cls-86" d="M2990.25,1885.91c-82.75,33.41-166.24,65.16-243.12,110.86-40.63,24.13-74.77,48-70.1,53.56,6.6,7.8,54.12-13.78,61.88-17.61,37.66-18.55,76.7-34.16,114.89-51.68,25.17-11.54,47.84-27.73,73-39.37,29.74-13.77,57.2-26.77,84.1-45.49,8.22-5.73,22-24,4-24.93"/><path class="cls-87" d="M2981.12,1977c-42.14,17.67-77.41,53.43-114.4,79.39-18.23,12.8-41.27,20.09-60.8,31.08-9,5.08-58.07,26.24-59.59,36.53-.17,1.19,7.45,1.31,7.55,1.28,17.8-2.44,40-20.94,54.34-30.74,48-32.74,100.65-57.19,149.15-88.68,4.74-3.07,38.32-30.58,43.42-19.59,7.64,16.5-23,37.26-31.43,46.6-36.29,40.22-65.61,87.36-92.78,134.08-9.8,16.82-26.89,38.21-31.3,57.43-.4,1.78-1.3,5.53,1.4,6,18.41,3.11,51.6-14.69,66.91-23.29,47.51-26.72,129.74-90.17,136.68-148,2.28-19.07,5.38-122.14-22-121.79-5.12,0-9.82,7.53-13.94,10"/><path class="cls-88" d="M2393.3,1234.17c2.38,9,4.15,16.69,4.26,20.72,1.39,56.14-17.57,113.35-36.7,165.48-25,68.16-91,160.73-142,227.05,29.65,12.35,61.83,13.58,92.65-9l117.34-163.54s18-151.92-24.33-222.36Q2398.6,1242.69,2393.3,1234.17Z"/><path class="cls-89" d="M2396.39,1241.1c14.33,50.42,19.42,102.89,24.29,154.88.38,4,4.64,45.94,8,47,2.91.89,3.64-10.56,3.67-12.14.29-14.74-.5-29.56-1.49-44.25-3.24-47.4-7.78-95.31-25.18-139.93-2.81-7.21-8.52-13.19-11.46-20.49"/></g></g></svg>